<?xml version="1.0" encoding="utf-8"?>
<!-- Generator: Adobe Illustrator 22.0.0, SVG Export Plug-In . SVG Version: 6.00 Build 0)  -->
<svg version="1.1" id="Layer_1" xmlns="http://www.w3.org/2000/svg" xmlns:xlink="http://www.w3.org/1999/xlink" x="0px" y="0px"
	 viewBox="0 0 595.6 184.9" style="enable-background:new 0 0 595.6 184.9;" xml:space="preserve">
<style type="text/css">
	.st0{fill:#FFFFFF;}
	.st1{fill:#FFFFFF;stroke:#FFFFFF;stroke-width:1.4472;stroke-miterlimit:10;}
	.st2{fill-rule:evenodd;clip-rule:evenodd;fill:#FFFFFF;}
	.st3{fill:none;}
</style>
<g>
	<path class="st0" d="M256.4,138v28.4c-7.5,1.8-14.3,2.8-20.3,2.8c-20.6,0-37.4-5.9-50.2-17.7c-12.8-11.8-19.3-27.3-19.3-46.5
		c0-17.8,6.5-32.6,19.4-44.2c13-11.6,29.3-17.4,49.1-17.4c7.7,0,14.8,0.8,21.2,2.3v28.5c-6.8-1.7-13.3-2.6-19.3-2.6
		c-9.3,0-17,3.2-23.1,9.7c-6.1,6.4-9.2,14.6-9.2,24.6c0,10.7,3.1,19.2,9.2,25.5c6.2,6.2,14.4,9.4,24.7,9.4
		C243.8,140.7,249.7,139.8,256.4,138z"/>
	<path class="st0" d="M272.5,46.7h36.3c21.1,0,36.3,3.1,45.6,9.4c9.3,6.3,13.9,14.3,13.9,24c0,10.5-6.8,18.9-20.3,25.3
		c15.3,4.6,23,13.3,23,26.2c0,10.3-4.7,18.6-14.2,25c-9.5,6.3-22,9.5-37.6,9.5h-46.6V46.7z M308.2,69.6v25.8
		c15.9-0.3,23.9-4.5,23.9-12.6c0-4.8-1.9-8.2-5.7-10.1C322.6,70.8,316.5,69.8,308.2,69.6z M308.2,117.1v25.9
		c9-0.1,15.8-1.2,20.3-3.2c4.5-2,6.8-5.3,6.8-9.9c0-8.5-8-12.8-24.1-12.8H308.2z"/>
	<path class="st1" d="M438.5,75.7"/>
	<path class="st1" d="M455.9,43.9"/>
	<polygon class="st0" points="533,145.9 533,145.9 533,146 533,146 	"/>
	<path class="st0" d="M535.9,141.1l-2.1,3.5c-0.1-0.2-0.1-0.4,0.1-1l0.1-0.2c0.2-0.5,0.4-1,0.6-1.6
		C535,141.7,535.4,141.5,535.9,141.1z"/>
	<g>
		<path class="st0" d="M595.4,56L595.4,56c-1.1-2-1.7-4.3-2.2-6.9c-0.2-1.2-1-1.9-1.7-2.5c-0.1-0.1-0.2-0.2-0.3-0.3
			c-0.2-0.1-0.3-0.3-0.4-0.3l-0.3-0.3l-0.5,0.1c-0.4,0.1-0.7,0.2-1.1,0.2c-0.7,0.2-1.4,0.3-2,0.4c-0.3,0-0.6-0.1-1-0.2
			c-0.3-0.1-0.6-0.2-1-0.2c-0.3,0-0.4-0.2-0.8-0.5c-0.2-0.2-0.4-0.3-0.6-0.5c0,0-0.1-0.1-0.1-0.1v21.7l-0.5,0.8l-39.8,67.9
			c0.4-0.2,0.8-0.5,1.2-0.8l0.6-0.4c0.1-0.1,0.2-0.1,0.7,0.1c0.1,0.1,0.2,0.1,0.4,0.2c0.1,0.1,0.2,0.1,0.3,0.2l1.9,1.3l-0.3-2.2
			c-0.1-0.7,0.1-0.9,1.1-1.4c0.2-0.1,0.3-0.2,0.5-0.2c0.3-0.2,1-0.5,1.1-1.5c0,0,0.1,0,0.1,0c0.2,0.3,0.5,0.5,0.9,0.6
			c0.1,0,0.4,0,0.7,0l0.1,0.6l1.2-0.8c0.7-0.5,0.9-0.4,1.2-0.2c0.7,0.4,1.7,0.1,2.2-0.3c0.1,0,0.1-0.1,0.1-0.1
			c0.4,0.2,1,0.4,1.6,0.3c0.5-0.1,0.9-0.1,1.4-0.2c0.4,0,0.9-0.1,1.3-0.2c0.6-0.1,1.2-0.8,1.2-1.5c-0.1-0.8,0.3-1.1,1.4-1.8
			c0.1-0.1,0.3-0.2,0.4-0.2c0.1-0.1,0.3-0.1,0.5-0.2c0.1,0,0.2-0.1,0.4-0.1c1.9-0.7,2.3-1.4,2.2-3.4l0-0.1c-0.1-1.1-0.1-1.7,0.4-2.2
			c0.3-0.3,0.5-0.8,0.4-1.3c0-0.1,0-0.2,0.6-0.6c1.5-0.9,2.2-2.2,2.2-3.7c0.1-0.1,0.2-0.3,0.3-0.4c0.3-0.3,0.7-0.7,1-1
			c0.2-0.2,0.3-0.3,0.5-0.5l0.5-0.5l-0.3-0.6c-0.1-0.3-0.3-0.6-0.4-0.8c-0.3-0.6-0.5-0.9-0.4-1.3c0-0.1,0-0.2,0-0.3
			c0.1-0.3,0.3-0.6,0.4-0.9c0.4-0.9,0.8-1.8,1.3-2.5c0.6-0.8,1.2-1.8,1.1-3.1c-0.1-1.3,0.1-2.7,0.5-4.4c1.1-1.6,0.9-3.4,0.6-4.8
			c-0.2-0.8-0.2-1.4,0.1-2c0.5-0.9,0.4-1.4-0.1-2c0-0.1,0-0.2,0-0.2c0.1-0.6,0.2-1.2,0.1-1.9l-0.1-0.2c-0.2-0.7-0.3-1.1,0-1.6
			c0.3-0.5,0.1-1.1,0-1.6c0.4-0.5,0.8-1,1.3-1.6c1.3,0,2-0.8,2.5-1.4c0.1-0.1,0.2-0.2,0.3-0.3c0.2-0.3,0.4-0.5,0.6-0.8
			c0.1-0.2,0.3-0.4,0.4-0.6c1.1-1.3,1.8-2.8,2.4-4.2c0.2-0.4,0.3-0.7,0.5-1.1c0.6-1.2,1.4-2,2.4-2.2c0.2,0,0.4-0.1,0.5-0.2l0.1,0
			c0.2-0.1,0.4-0.3,0.4-0.4l0.3-0.4c0.4-0.2,0.8-0.6,1-1.1c0.3-0.7,0.7-1.3,1.1-1.8c0.3-0.4,0.6-0.7,1-1.1l0.3-0.3
			c2-2,2.4-4.6,2.5-6.4c0.1-0.9,0.4-1.7,0.9-2.5c0.2-0.3,0.3-0.7,0.5-1C595.5,57.1,595.7,56.5,595.4,56z"/>
		<path class="st0" d="M525.3,166.1l-1,1.7h-26.6c0.2,0.2,0.4,0.4,0.6,0.6c0.2,0.3,0.3,0.5,0.5,0.9c0.1,0.2,0.1,0.5,0.2,0.8
			c0,0.2,0.1,0.4,0.1,0.5l0.1,0.5l0.4,0.2c0.5,0.2,0.9,0.3,1.3,0.1c0.4-0.1,0.6-0.4,0.8-0.6c0.2,0.1,0.3,0.1,0.5,0.2
			c0.1,0.1,0.2,0.1,0.3,0.1c0.7,1.3,1.9,1.7,3.1,1.9c0.1,0,0.2,0.1,0.3,0.1c0.3,0.3,0.6,0.6,0.8,0.9c0.5,0.8,1.2,1.3,2.2,1.5
			c0,0,0.1,0.2,0.2,0.3c0.1,0.1,0.2,0.3,0.2,0.4c0.8,1.2,1.5,2.2,2.2,3.1c0.1,0.1,0.3,0.3,0.4,0.4c-0.2,0.2-0.3,0.4-0.4,0.6
			l-0.1,0.1c-0.3,0.5-0.9,1.2-0.5,2.4c0,0.1,0,0.3-0.1,0.4c0,0.2-0.1,0.4-0.1,0.6l-0.1,1.1h2.8l0.3-0.4c0.2-0.2,0.3-0.4,0.4-0.6
			c0.3-0.4,0.6-0.8,0.9-1.1c1.3-1.1,1.9-2.7,2.3-4c0.5-1.7,1.5-2.9,3-4c0.6-0.4,1.2-0.9,1.7-1.3l0.4-0.3c1.8-1.5,3-2.9,3.8-4.6
			c0.2-0.4,0.3-0.8,0.4-1.4c0.2-0.7,0.4-1.4,0.6-2.1c0.5-1.4,1.2-2.8,2.1-4.1c0.2-0.4,0.5-0.7,1-1.2c0.2-0.2,0.4-0.4,0.6-0.5
			c0.3-0.3,0.7-0.6,1-1c0.5-0.5,0.7-1,0.6-1.5c0-0.1,0-0.1,0.4-0.5c0.8-0.7,1-1.4,1.1-2.2c0.1-0.4,0.3-0.8,0.5-1.3l0.1-0.3
			c0.1-0.2,0.2-0.4,0.2-0.5l0.5-1.4h-0.8L525.3,166.1z M522.1,168.3C522.1,168.3,522.1,168.3,522.1,168.3c0,0,0-0.1,0-0.1
			c0,0,0,0,0-0.1l0.1-0.1c0-0.1,0.1-0.2,0.2-0.2c0,0,0.1,0,0.1,0c0,0,0.1,0,0.1,0C522.5,167.9,522.3,168.1,522.1,168.3z"/>
		<path class="st0" d="M459.2,42.2v34.4h-1.7c0,0.1,0.1,0.2,0.1,0.3l0.1,0.3c0.1,0.2,0.1,0.4,0.2,0.6l0.2,0.6l0.7,0.1c0,0,0,0,0.1,0
			c0.4,0.9,1.3,1.2,1.8,1.3c0.1,0,0.3,0.1,0.4,0.2c0.1,0.1,0.2,0.1,0.3,0.1c0.1,0,0.1,0.1,0.2,0.1c0,0.8,1,1.2,1.4,1.3
			c0.5,0.1,1,0,1.5,0c0.4,0,0.7,0.1,1.2,0.4c0.6,0.3,1.3,0.3,1.9,0.3c0,0.3,0.1,0.7,0.5,1c0.1,0.1,0.2,0.2,0.3,0.3
			c0.4,0.4,1,1,2.1,0.9c0.2,0,0.4,0,0.7,0c0,0.3,0.2,0.7,0.5,0.9l0.2,0.1c0.7,0.4,1.4,0.8,2.2,1c1,0.2,2,0.1,2.9,0l0.3,0
			c0.7-0.1,1.2,0.3,1.9,1l0,0c0,0.2,0,0.4-0.1,0.5c0,0.3-0.1,0.7-0.1,1.1c0,0.9,0.1,1.8,0.1,2.8l0,0.4l-1.6,0.3l1.2,1.3
			c1.2,1.4,1.6,2.6,1.4,3.9l-0.2,1.1h7.9c-0.6,1.2-0.5,2.6,0.2,4c0.4,0.9,1.5,1.8,2.9,1.9c0.1,0.3,0.2,0.6,0.3,0.9
			c0.1,0.3,0.2,0.5,0.3,0.8c0.1,0.4,0,0.9-0.2,1.3c-0.5,1.1-0.7,2.2-0.7,3.3c0,0,0,0.1,0,0.1c-0.9,0.8-1.2,1.9-1.5,2.8l-0.1,0.4
			c-0.3,0.8,0,1.7,0.2,2.4c0.6,1.7,0.6,3.5,0.6,5.5c0,0.7,0,1.3-0.1,2c0,0.4,0,0.9-0.1,1.4c0,0.3,0.1,0.5,0.1,0.6l0.1,0.7l0.8,0.1
			c0.8,0.1,1.6,0.1,2.4,0c1.1,0,2.2-0.1,3.2,0.2c0.6,0.2,1.2-0.2,1.6-0.5c0.6,0.5,1.2,0.6,1.8,0.7c0.1,0,0.2,0.1,0.4,0.1
			c0.1,0,0.2,0.1,0.2,0.1c0,0,0,0.1-0.1,0.3c-0.1,0.1-0.6,1.2,0,1.9c0.4,0.4,0.5,1,0.6,1.5c0.1,0.2,0.1,0.5,0.2,0.8
			c0,0.1,0,0.2,0.1,0.3l32.1-55.9h-64.7V42.2h111.9c-0.2-0.2-0.5-0.5-0.8-0.7c-0.5-0.5-0.9-0.8-1.4-1.2c-0.3-0.2-0.5-0.4-0.8-0.6
			c-0.8-0.6-1.6-1.3-2.5-1.9c-1.1-0.7-2.2-1.2-3.4-1.7c-0.6-0.2-1.3-0.2-1.9-0.1c-0.2,0-0.3,0-0.5,0c-0.6,0-1.2,0.1-1.8,0.2
			c-0.3,0-0.6,0.1-0.8,0.1c-0.4,0.1-0.8,0.1-1.2,0.1l-0.3,0c-0.6,0-1.1,0.1-1.6-0.2c-0.6-0.3-1.2-0.3-1.7-0.3c-0.2,0-0.4,0-0.6,0
			c-1.1-0.2-1.9-0.5-2.6-1c-0.6-0.5-1.3-0.7-1.9-0.8c-0.3-0.1-0.6,0-0.8,0.1l-0.1-1.3l-1.5,1.1c-0.3,0.3-0.7,0.5-1,0.7
			c-0.4-0.2-0.8-0.3-1.2-0.2c-0.1,0-0.1,0-0.2,0.1c0-0.9-0.3-1.8-1-2.7c-1-1.4-2.2-1.4-3.2-1.4l0.3-0.9l-3.3-0.7c-0.4-1-1.5-1-1.8-1
			c-0.1,0-0.2,0-0.3,0c-0.9-0.3-1.7-0.7-2.5-1l-0.6-0.2c-0.3-0.1-0.6-0.3-1-0.4l-0.9-0.3l-0.3,0.6c-1-0.4-2-0.3-2.8,0.4
			c-0.1,0.1-0.3,0.2-0.4,0.3c0.1-0.1,0.1-0.3,0.2-0.4c0.3-0.7,0.2-1.5-0.2-2c-0.4-0.6-1.2-0.8-2-0.7c-0.6,0.1-1.2,0.1-1.7,0.2
			c-1,0.1-2,0.3-2.9,0.3c-0.5,0-1.2-0.2-1.8-0.5c-0.8-0.3-1.4-0.5-2-0.5c0.1-0.1,0.2-0.2,0.3-0.3c0.6-0.6,1.1-1.2,1.7-1.8l0.3-0.3
			c0.3-0.3,0.5-0.6,0.8-1l0.9-1l-0.3-0.3l0.2-0.1v-3l-1.1,0l0.1-0.5l-0.6-0.4c-0.1-0.1-0.2-0.1-0.3-0.2c-0.2-0.1-0.3-0.2-0.5-0.3
			c-0.6-0.4-1-0.5-1.4-0.3c-0.2-0.9-0.5-1.8-0.8-2.7c-0.1-0.3-0.3-0.6-0.5-0.8c0-0.1-0.1-0.1-0.1-0.1c-0.4-0.6-0.5-1.3-0.5-2
			c0-1-0.2-2-0.3-2.8c-0.2-0.7-0.9-1.4-1.6-1.4c-0.4-0.1-0.8,0.1-1.2,0.3c-0.2,0.2-0.5,0.5-0.6,1.1c0,0-0.1,0-0.1,0.1
			c-0.1,0.1-0.2,0.2-0.3,0.3c-0.1,0.1-0.2,0.2-0.3,0.4c-0.3,0.3-0.6,0.6-0.8,1c-0.7,1.2-1.4,2.4-2,3.6l-0.3,0.5
			c-0.1,0.2-0.2,0.5-0.4,0.8c-0.1,0.2-0.2,0.5-0.3,0.7c-0.2,0.4-0.5,0.6-0.7,0.7c-0.3,0.1-0.6-0.1-0.9-0.3c-1.3-0.8-3.4-0.7-4.6,0.6
			c-0.9-0.4-1.8-0.7-2.6-1.1c0-0.1,0-0.1-0.1-0.2l-0.2-0.6h-0.7c-0.1,0-0.5-0.1-0.8,0.2c-0.6,0.4-1.4,0.6-2.6,0.5
			c-0.3,0-0.9,0-1.4,0.3c-0.2,0.2-0.8,0.6-0.9,1.2c0,0.4,0.1,0.8,0.3,1.2c-0.1,0-0.2,0-0.3,0c-0.6-0.1-1.2-0.1-1.8,0
			c-0.2,0-0.3,0-0.5,0c-0.5,0-0.6,0-0.7-0.1c-0.4-0.3-0.9-0.5-1.4-0.5c-0.6,0-1.1,0.3-1.6,0.8l-0.1,0.1c-0.3,0.3-0.3,0.3-0.5,0.3
			c-0.8-0.1-1.6,0.2-2,0.8c-0.3-0.1-0.7-0.2-1.1-0.1c-0.7,0.2-1,0.9-1.1,1.1c-0.1,0.3-0.6,0.6-0.9,0.8c0,0-0.1,0-0.1,0l-0.1-0.1
			c-1-0.7-1.8-1.2-2.4-2.1c-0.3-0.5-0.5-0.9-0.6-1.5c-0.1-0.7-0.4-1.3-0.7-1.8c-0.1-0.2-0.2-0.4-0.3-0.6c-0.3-0.6-0.3-1.2-0.1-1.7
			c0.2-0.4,0.3-0.9,0.2-1.3c-0.1-0.4,0-0.8,0.6-1.3c0.7-0.6,1-1.4,0.6-2.3c-0.2-0.7-0.6-1.8-1.7-2.5c0.1-0.5,0.1-1,0.1-1.5
			c-0.1-0.7-0.7-1.5-1.4-1.8c-0.7-0.2-1.4-0.2-2-0.1c-0.7,0.1-1,0.5-1.1,0.7c-0.1,0.2-0.3,0.7,0,1.3c0,0,0,0,0,0
			c-0.7,0.2-1.1,0.6-1.3,0.9c-1.3-0.1-2,0.8-2.5,1.3l-0.1,0.1c0,0,0,0,0,0c-0.7-0.1-1.2,0.2-1.6,0.4c-0.2,0.1-0.4,0.2-0.5,0.2
			c-0.5,0-0.9,0.1-1.3,0.2c-0.2,0.1-0.5,0.1-0.7,0.2c-0.7,0.1-1.2,0.5-1.5,1.1c-0.5-0.4-1.1-0.7-2.2-0.4c-0.5,0.1-1.4,0.2-2.2-0.3
			c-0.2-0.2-0.5-0.4-1.1-0.4c0,0,0,0,0,0c-0.7,0-1.1-0.1-1.4-0.3c-0.5-0.3-1.2-0.2-1.6,0.2c-0.4,0.4-0.5,1.2,0,1.7
			c0.1,0.1,0.2,0.2,0.2,0.2c0.3,0.3,0.7,0.7,1.1,0.9c0.6,0.3,0.7,0.5,0.6,0.9c-0.1,0.8,0.3,1.6,0.6,2.1c0.2,0.3,0.2,0.7,0.2,1.2
			c0,1.3,0.7,2,2.1,2h0l0.2,0c-0.1,0-0.2,0-0.3,0c-1,0-1.6,0.5-1.9,1.4c0,0.1-0.1,0.2-0.1,0.3c-0.1,0.6-0.2,0.6-0.3,0.6
			c-0.2,0.1-0.4,0.1-0.6,0.1c-0.3,0.1-0.6,0.2-0.9,0.3c-0.4,0.1-0.8,0.4-1.2,0.6c-0.4,0.2-0.7,0.5-1,0.7l-0.1,0
			c-0.3,0.2-0.6,0.5-0.8,0.9c0,0.1-0.1,0.1-0.1,0.2c-0.3-0.6-1.1-0.8-1.6-0.7c-0.4,0.1-0.9,0.3-1.2,0.6c-0.3,0.2-0.4,0.3-1.4-0.2
			c-0.5-0.3-1-0.5-1.5-0.7c-0.3-0.1-0.7-0.3-1-0.4c0,0,0-0.1,0-0.1c0-0.1,0-0.3,0-0.4c0.2-1.6-0.6-2.4-1.3-2.7c0-0.1,0-0.2,0-0.3
			L450,12l-3.2,3.5c0,0,0,0,0,0c0,0,0,0,0,0c-0.1-0.1-0.2-0.2-0.3-0.4l-1.1-1.3l-0.7,1.2c-0.2,0.4-0.5,0.4-1.4,0.5
			c-0.2,0-0.3,0-0.5,0c-1.2,0.1-2.5,0.2-3.7,0.3c-0.5,0-0.9,0.1-1.4,0.1l-0.9,0.1V17c0,0.7,0,1.3,0,2c0,0.3,0.1,0.9,0.7,1.2l0.1,0
			c0.1,0,0.2,0.1,0.3,0.2c0.2,0.1,0.4,0.2,0.7,0.3c-0.1,0-0.2,0-0.2,0.1c-0.2,0.1-0.4,0.1-0.6,0.1c-0.6,0.1-1.1,0.7-1.1,1.2
			l-0.1,0.5c-0.1,0.7-0.2,1.4-0.1,2.2c0,0.6,0.4,1.1,0.7,1.5l0.1,0.2c0.8,1.2,1.5,2.3,1.4,3.6c0,0.4-0.1,0.9-0.1,1.3
			c-0.2,1.9-0.4,3.8-0.8,5.6c-0.4,1.5-0.6,3.1-0.9,4.7l-0.1,0.4L459.2,42.2z"/>
		<path class="st0" d="M580.1,45.7v20.1l-44.2,75.4c-0.4,0.3-0.8,0.6-1.3,0.7c-0.2,0.6-0.4,1.1-0.6,1.6l-0.1,0.2
			c-0.2,0.6-0.3,0.8-0.1,1l-0.7,1.3h0l0,0l-10.8,18.4h-35.5l16.6-28.8L539.3,73h-67.2V45.7H580.1z"/>
		<polygon class="st0" points="533,146 522.3,164.3 533,146 		"/>
	</g>
	<polygon class="st0" points="455.9,141.7 455.9,167.2 383.5,167.2 383.5,45.7 455.7,45.7 455.7,73.1 419.2,73.1 419.2,95.2 
		450.9,95.2 450.9,119.9 419.2,119.9 419.2,141.7 	"/>
	<g>
		<path class="st2" d="M178.6,59.4L178.6,59.4z"/>
		<g>
			<path class="st3" d="M77.8,142.1c-0.5,1.1-1,2.1-1.4,2.9C77.1,144.2,77.6,143.1,77.8,142.1z"/>
			<path class="st3" d="M113.9,90.5c0.6-0.3,1.1-0.5,1.7-0.7c0.6-0.2,1.1-0.7,2-1.3c-0.2,0-0.3-0.1-0.5-0.1
				c-0.1,0.4-0.2,0.6-0.2,0.6C115.9,89.4,114.9,89.9,113.9,90.5z"/>
			<path class="st3" d="M25.5,99.9l0.3,0.5c-0.1-0.2-0.1-0.4-0.2-0.5C25.6,99.9,25.5,99.9,25.5,99.9z"/>
			<path class="st3" d="M49.4,152.5c0,0,0-0.1-0.1-0.1C49.4,152.5,49.4,152.5,49.4,152.5z"/>
			<path class="st3" d="M111.9,83.4c-0.3,0.2-0.5,0.5-0.7,0.7c0.3-0.2,0.5-0.3,0.8-0.5C111.9,83.5,111.9,83.5,111.9,83.4z"/>
			<path class="st3" d="M60.6,110.3c-0.1-0.7-0.2-1.5-0.4-2.2C60.3,108.9,60.5,109.6,60.6,110.3z"/>
			<path class="st3" d="M97.2,77.6c-0.8,1.3-2,3.8-3.3,6.9c1.3-2.6,2.7-4.9,3.9-6.6C97.6,77.8,97.4,77.7,97.2,77.6z"/>
			<path class="st3" d="M84.3,110.3c-0.3,1-0.6,1.9-1,2.8c0.3-0.4,0.6-0.9,0.8-1.3C84.2,111.4,84.2,110.9,84.3,110.3z"/>
			<path class="st3" d="M76.9,122.4c0,0.3,0.1,0.6,0.2,0.9L76.9,122.4z"/>
			<path class="st0" d="M84.3,113.2c-0.1-0.3-0.1-0.8-0.1-1.3c-0.3,0.4-0.6,0.8-0.8,1.3c-0.6,1.6-1.3,3-2.1,4.3c0,0,0,0,0.1-0.1
				c0.1,0,0.2,0.1,0.3,0.1c-1.1,2.2-2.3,4.3-3.3,6.5c-1.3,2.8-3.1,5.6-3.7,8.6c-0.7,3.5-0.4,7.2-0.4,10.9c0,0.8,0.3,1.6,0.5,2.4
				c0.6,0,1.3-0.4,1.8-0.9c0.4-0.8,0.8-1.8,1.4-2.9c0.1-0.7,0.1-1.4-0.1-2c1.2-2.2,2.3-3.9,3.2-5.7c2.6-5.4,5.1-10.8,7.7-16.1
				c0-0.1,0-0.2,0-0.2c2-1.4,2.6-3.3,1.7-6c2.4,0.9,3-0.5,4-1.7c3.7-4.4,7.6-8.7,11.2-13.2c2.3-2.9,5-5.1,8.3-6.7c1-0.6,2-1.1,3-1.5
				c0,0,0.1-0.2,0.2-0.6c-2.8-0.6-4.9-1.7-5.1-4.8c-0.2,0.1-0.5,0.3-0.8,0.5c-1.1,1-2.2,2-3.2,2.9c-0.1-0.1-0.2-0.3-0.3-0.4
				c-5.5,4.1-14.5,12.1-23.4,25.2C84.3,112.2,84.3,112.7,84.3,113.2z"/>
			<path class="st0" d="M33.1,91.2c-1.3,1-1.3,2-0.3,3.2c1.1,1.2,2.2,2.3,3,3.6c4.7,7.8,9.2,15.6,13.8,23.4c3.1,5.3,6,10.8,7.1,17
				c0.1,0.6,0.5,1.2,0.7,1.8c0.9-1.9,1.3-3.9,1.8-5.8c0.1-0.4,0.5-2.2,1-5c0-2.6-0.8-5-2.1-7.3c-1-1.8-2.2-3.5-3.2-5.4
				c-2.1-3.6-4.1-7.1-6.1-10.7c-1.2-1.9-2.3-3.8-3.5-5.7c-2.5-4.1-4.9-8.2-7.4-12.4C36.5,88.8,34.8,90,33.1,91.2z"/>
			<path class="st0" d="M41.7,138.6c2.2,4,4.5,7.9,6.7,11.9c0.4,0.6,0.5,1.4,0.9,2c0,0,0,0.1,0.1,0.1c0.1,0.2,0.2,0.4,0.3,0.5
				c0.7,0.8,1.7,2,2.5,2c1.2-0.1,3.2,0.6,3.7-1.7c-0.7,0.1-1.3,0.1-2.2,0.2c0.9-1.4,1.7-2.6,2.4-3.8c-0.1-0.1-0.3-0.2-0.4-0.3
				c-0.6,0.4-1.2,0.9-1.8,1.3c-0.1-0.1-0.1-0.1-0.2-0.2c0.5-0.7,1-1.5,1.6-2.2c-0.1-0.1-0.2-0.2-0.3-0.3c-1.2,0.7-2.5,1.3-3.7,2
				c-0.1-0.2-0.3-0.4-0.4-0.6c0.6-0.4,1.1-1,1.8-1.3c1.7-0.8,2.2-1.9,1.1-3.5c-2.5-3.7-4.8-7.4-7.3-11.1c-0.7-1-1.4-2-2.1-3.1
				c0.1-0.1,0.2-0.2,0.3-0.2l-17.9-28.2c0,0.3,0,0.7,0,1.2c-0.4-1-0.6-1.7-1-2.7l-0.3-0.5c-1.8,0.9-3.5,1.8-4.9,2.5
				c0.3-0.6,0.6-1.1,1-1.5c-2,1.7-2.3,4.7-2.3,4.7c1.7-1.7,2.9-2.9,4.2-4.1c0.2-0.2,0.8-0.2,1-0.1c0.2,0.1,0.4,0.6,0.3,0.9
				c-0.3,1.5-3,3.4-5.5,3.3c1.7,2.2,3.7,4.9,5.8,7.9c0,0,0.1,0.1,0.1,0.2C31.4,121.5,36.9,129.8,41.7,138.6z"/>
			<path class="st0" d="M57.6,98.2c-0.4,0-0.9-0.1-1.3-0.2c1.2,1.8,2.1,3.7,2.8,5.8c0.6,1.4,0.9,2.8,1.2,4.3
				c0.2,0.7,0.3,1.5,0.4,2.2c0,0.1,0.1,0.3,0.1,0.4c1.6,8.1,1.2,16.2-0.4,24.3c-0.5,2.4-1.2,4.8-1.5,7.2c-0.4,3-0.7,6-0.4,8.9
				c0.1,1.5,0.2,4,2.9,3.9c0.4,0,0.9-0.3,1.7-0.7c-0.8-0.5-1.3-0.8-1.7-1.1c0-0.2,0-0.4,0.1-0.5c1.2-1,3.1-1.7,1.9-3.9
				c3-4.5,0.9-9.7,2-14.5c1.1-4.8,2-9.7,2.4-14.6c0.4-5.5,0.4-11-0.9-16.4c0,0,0-0.1,0-0.1c-1.5-5.2-3.3-8.6-4.8-10.8
				c0,0.1,0.1,0.2,0.1,0.3C63,95.4,60.2,98.5,57.6,98.2z"/>
			<path class="st0" d="M61,123c0,0.6-0.1,1.2-0.1,1.7c0.1,0,0.1,0,0.2,0C61,124.1,61,123.6,61,123z"/>
			<path class="st0" d="M60.2,129.4c-0.4,2.7-0.9,4.6-1,5c0.2-0.6,0.3-1.2,0.5-1.8C60.1,131.4,60.2,130.4,60.2,129.4z"/>
			<path class="st0" d="M84.5,109.8c0,0.1-0.1,0.3-0.1,0.4C84.4,110,84.4,109.9,84.5,109.8z"/>
			<path class="st0" d="M90.2,75.2c0,0.1-0.1,0.1-0.1,0.2C90.1,75.4,90.1,75.3,90.2,75.2C90.2,75.2,90.2,75.2,90.2,75.2z"/>
			<path class="st0" d="M79.2,112.7c1.2,2,1,3.7-0.4,5.6c-0.9,1.1-2,2.2-1.8,4.1l0.2,0.9c0.4-0.6,0.8-1.2,1.2-1.7
				c1.6-3,3.3-5.8,5-8.4c0.4-0.9,0.7-1.9,1-2.8c0.8-5.8,5.2-17.3,9.6-25.8c1.3-3.1,2.5-5.6,3.3-6.9c-1.5-0.8-3-1.7-4.7-2.2
				c-0.7-0.2-1.7,0.6-3,1.1c0.1-0.3,0.3-0.6,0.4-0.9c-1.7,3.7-10.6,20.3-13.8,34.5C77.5,110.5,78.4,111.3,79.2,112.7z"/>
			<path class="st0" d="M83.3,113.2c-1.7,2.6-3.4,5.4-5,8.4c1.1-1.5,2-2.8,2.9-4.1C82,116.2,82.7,114.7,83.3,113.2z"/>
			<path class="st2" d="M68.5,145c0,0.2-0.1,0.4-0.1,0.6c0.6,0,1.1,0,1.6-0.1C69.4,145.3,68.9,145.2,68.5,145z"/>
			<path class="st2" d="M111.2,84.1c-0.9,0.6-2.1,1.4-3.5,2.4c0.1,0.1,0.2,0.3,0.3,0.4C109,86,110,85.1,111.2,84.1z"/>
			<path class="st2" d="M117.1,88.4c0.4-1.5,0.9-5.2-4-5.4c0,0-0.4,0.2-1.1,0.6C112.2,86.7,114.3,87.8,117.1,88.4z"/>
			<path class="st2" d="M60.2,108.1c-0.3-1.5-0.6-3-1.2-4.3C59.5,105.2,59.9,106.7,60.2,108.1z"/>
			<path class="st2" d="M78.3,121.5c-0.4,0.5-0.8,1.1-1.2,1.7c0,0,0.3-0.3,0.8-0.9C78,122.1,78.2,121.8,78.3,121.5z"/>
			<path class="st2" d="M81.3,117.4c-0.9,1.3-1.9,2.6-2.9,4.1c-0.1,0.3-0.3,0.5-0.4,0.8C78.7,121.4,80,119.7,81.3,117.4z"/>
			<path class="st2" d="M90,75.6c0-0.1,0.1-0.1,0.1-0.2C90,75.5,90,75.6,90,75.6z"/>
			<path class="st2" d="M84.2,111.9c0,0,0.1-0.1,0.1-0.1c0-0.5,0-1.1,0.1-1.6c0,0.1,0,0.1,0,0.2C84.2,110.9,84.2,111.4,84.2,111.9z"
				/>
			<path class="st2" d="M84.3,113.2c0-0.5,0-0.9,0-1.4c0,0-0.1,0.1-0.1,0.1C84.2,112.4,84.2,112.9,84.3,113.2z"/>
			<path class="st2" d="M92.6,75.4c1.6,0.5,3.1,1.4,4.7,2.2c0.4-0.7,0.7-1,0.9-1c1.4,0.5-6.6-4.4-7.9-1.4c0,0.1-0.1,0.2-0.1,0.2
				c0,0.1,0,0.1-0.1,0.2c-0.1,0.3-0.3,0.6-0.4,0.9C90.9,76,91.9,75.1,92.6,75.4z"/>
			<path class="st0" d="M68.6,112.3c2.6-0.8,4-2,4.4-4.3c0.9-5.1,1.7-10.1,2.8-15.2c1.1-5,2.4-10,3.6-15c0.6-1.5,1.2-2.9,1.8-4.4
				c-0.3-0.5-0.4-1.4-0.8-1.6c-1.9-0.6-3.8-0.9-5.7-1.4c-1.4,5.4-2.7,10.6-4,15.7c-0.4,2-0.9,3.9-1.3,5.9c-0.5,3-1.1,6-1.6,8.9
				c0,0,0,0,0,0C68,104.8,68.3,108.5,68.6,112.3z"/>
			<path class="st0" d="M67.7,101.1C67.7,101.1,67.7,101.1,67.7,101.1C67.7,101.1,67.7,101.2,67.7,101.1L67.7,101.1z"/>
			<path class="st0" d="M92.5,116.8c-0.8,0.4-1.4,0.9-1.8,1.4c-0.5,0.8-0.9,1.6-1.4,2.3c-0.2,0.5-0.5,1-0.7,1.6c1,0.3,2,0.8,2.5,0.6
				c3.1-1.5,6.4-2,9.6-3.1c2.5-0.8,4.8-0.7,7.2-0.8c0.5,0,1,0,1.6,0c4.8-0.4,9.6-1.9,14.1,1.2c2-4.3,4.2-5.8,6.5-4.1
				c0.1-0.8,0.2-1.5,0.3-2.2c-0.2-0.1-0.4-0.2-0.5-0.3c-2.7-0.4-5.4-0.9-8.1-1.2C111.5,110.8,101.8,112.2,92.5,116.8z"/>
			<path class="st0" d="M89.3,120.5c0.5-0.8,0.9-1.5,1.4-2.3C90.1,118.9,89.7,119.7,89.3,120.5z"/>
			<path class="st2" d="M25.4,99.8c-1.4-0.3-2.8,0.1-3.8,1.1C22.5,100.1,23.8,99.6,25.4,99.8z"/>
			<path class="st0" d="M73,132.3c0.4-2.6,0.8-5.2,1.4-7.7c0.4-1.6,1.1-3.1,2-4.5l-0.4-2.1c-0.5,0.3-1,0.5-1.5,0.5
				c-1.9,0.1-3.9-1.8-3.8-3.6c0-0.4,0.4-1,0.7-1.3c0.5-0.5,2.5-0.4,4.1,0c0.1-0.9,0.3-1.8,0.5-2.7c-0.6-0.1-1.2-0.1-1.8,0
				c-2,0.3-3.9,1.4-4.4,3.4c-0.3,1.1-0.5,2.3-0.8,3.5c0.8,9,1,19.7-0.6,27.4c0.4,0.2,0.9,0.3,1.5,0.5c-0.5,0.1-1.1,0.1-1.6,0.1
				c-0.5,2.3-1.2,4.4-2,6c0.5,1.2,1.4,2.1,2.8,2.4c0.5,0.1,1.6-0.2,1.7-0.5c0.8-2.2,2.1-4.2,2.3-6.5c-1.4-2.7-2.5-8.8-2.5-8.8
				C71.4,136.1,72.2,134.1,73,132.3z"/>
			<path class="st0" d="M72.9,144.2c-0.5-2.1-0.7-4.3-0.5-6.4c0.2-1.8,0.4-3.7,0.6-5.5c-0.8,1.9-1.6,3.8-2.4,5.8
				c0,0,1.1,6.1,2.5,8.8C73.2,146,73.2,145.2,72.9,144.2z"/>
			<path class="st0" d="M66.2,146.1c-0.7,1-0.5,2.8-0.3,4.1c0.1,0.5,0.2,0.9,0.4,1.3c0.9-1.6,1.5-3.7,2-6
				C67.4,145.6,66.5,145.7,66.2,146.1z"/>
			<path class="st0" d="M69.1,117.6c-0.7,3.5-1.4,7-1.9,10.6c-0.6,3.7-0.6,7.4-1.1,11.1c-0.5,3.8-0.4,4.8,2.3,5.7
				C70.1,137.3,70,126.6,69.1,117.6z"/>
			<path class="st0" d="M77.8,114.6c0.5,1-0.4,2.5-1.7,3.3l0.4,2.1c0.4-0.7,0.9-1.3,1.3-1.9c1.2-1.7,1.9-3.2,1-5.1
				c-0.6-1.3-1.6-2-2.7-2.2c-0.2,0.9-0.4,1.8-0.5,2.7C76.7,113.7,77.6,114.1,77.8,114.6z"/>
			<path class="st0" d="M130.5,73.3c0.1-0.3,0.2-0.5,0.3-0.7c0.1-0.2,0.1-0.4,0.2-0.6c-5.7,2.1-10.6,5.1-14.8,9.2
				c5.4-2.9,10.2-7.1,16.8-7c-0.5-0.2-0.9-0.3-1.3-0.4C131.4,73.7,131,73.5,130.5,73.3z"/>
			<path class="st0" d="M52.9,82.5c-0.9-0.9-1.8-1.8-3-3c1.3,0.1,2.2,0.2,3.4,0.3c-0.9-0.9-1.4-1.9-2.2-2.1
				c-1.1-0.3-2.4-0.1-3.6,0.2c-0.2,0.1-0.4,2.2,0.1,2.5c1.6,1.1,3.4,1.9,5.2,2.8C52.7,82.9,52.8,82.7,52.9,82.5z"/>
			<path class="st0" d="M102.7,61c0.2-1.2,0.4-2,0.5-2.8c0.2-0.8,0.3-1.5,0.5-2.3c-0.1,0-0.1,0-0.2,0.1c-2.1,4.8-4.2,9.6-6,13.8
				c2.9-3.3,6.3-7.1,9.6-10.9C106,59.3,104.5,60.1,102.7,61z"/>
			<path class="st0" d="M108.3,52.7c-1.3-0.6-2.6-0.9-3.4,0.5c1.6,1.1,3.2,2.2,4.9,3.4C110.1,55.1,110.1,53.6,108.3,52.7z"/>
		</g>
	</g>
	<g>
		<path class="st3" d="M76.4,144.9c0.7-0.7,1.2-1.8,1.4-2.9C77.3,143.2,76.8,144.1,76.4,144.9z"/>
		<path class="st3" d="M55.2,136.3c-0.6-1.6-1.2-3.3-1.8-4.9l-7.3,0.2c3.3,4.6,6.6,9.2,10,14C57.1,142.2,56.2,139.1,55.2,136.3z"/>
		<path class="st0" d="M111.9,83.4c-0.3,0.2-0.5,0.5-0.7,0.7c0.3-0.2,0.5-0.3,0.8-0.5C111.9,83.5,111.9,83.5,111.9,83.4z"/>
		<path class="st0" d="M117.6,88.5c-0.2,0-0.3-0.1-0.5-0.1c-0.1,0.4-0.2,0.6-0.2,0.6c-1,0.4-2,0.9-3,1.5c0.6-0.3,1.1-0.5,1.7-0.7
			C116.2,89.5,116.7,89.1,117.6,88.5z"/>
		<path class="st0" d="M25.5,99.9l0.3,0.5c-0.1-0.2-0.1-0.4-0.2-0.5C25.6,99.9,25.5,99.9,25.5,99.9z"/>
		<path class="st0" d="M77.1,123.3l-0.2-0.9C77,122.6,77,122.9,77.1,123.3z"/>
		<path class="st0" d="M155.2,100.1c-0.5-20.5-9.1-39.5-24.1-53.7c-14.5-13.6-33.4-21.1-53.4-21.1c-0.7,0-1.4,0-2.1,0
			c-20.7,0.5-40,9-54.3,23.9C7.1,64.1-0.5,83.6,0,104.1c0.3,9.9,2.4,19.5,6.3,28.5l30.4-0.8c-0.1-0.2-0.3-0.5-0.4-0.7
			c-1.5-2.3-3.2-4.5-4.8-6.8c-0.6-0.8-1-1.7-1.5-2.5c-1.7-2.4-3.5-4.8-5.2-7.3c-0.8-1.1-1.6-2.2-2.4-3.2c-0.9-1.1-1.8-2.2-2.6-3.3
			c-0.6-0.9-1-2-1-3.2c2.1,2.9,4.1,5.8,6.3,8.6c-2.1-3-4-5.7-5.8-7.9c0,0,0.3-3,2.3-4.7c1-1,2.3-1.4,3.8-1.1
			c1.1,0.2,1.3,0.3,1.4,2.1l17.9,28.2c0.1-0.1,0.2-0.1,0.3-0.2c0.4,0.5,0.8,1.1,1.2,1.6l7.3-0.2c-1.2-3.1-2.6-6.1-4.2-9.1
			c-4.2-7.8-8.9-15.4-13.4-23.2c0-0.1-0.1-0.1-0.1-0.2c-4.1-3.4-4.6-8.7-7.2-12.9c-1-1.6-0.2-4.2,1.7-5.8c1.5,1.6,2.9,3.4,4.5,4.9
			c0.9,0.8,2.3,1.2,3.3,1.9c0.6,0.4,1.2,1,1.5,1.7c2,3.8,3.8,7.7,5.7,11.6c1.2,1.9,2.3,3.8,3.5,5.7c2.3,3.5,4.6,7,6.8,10.5
			c1.7,2.7,3.2,5.5,4.8,8.2c0.1,0,0.3,0,0.4,0c0.1-0.6,0.1-1.1,0.1-1.7c-0.1-3-0.1-5.9-0.5-8.8c-0.5-3.6-1.6-7.1-2.6-10.7
			c-0.2-0.6-0.4-1.4-0.9-1.8c-4.7-3.6-5.2-9.5-8-14.2c-1.4-2.4-1.9-5.3-2.7-8c-0.4-1.4,0.1-2.2,1.6-2.6c2.1-0.5,3.8-0.3,5.4,1.2
			c4.5,4,6.6,9.3,8.6,14.6c1.5,2.2,3.3,5.6,4.8,10.8c0,0,0,0.1,0,0.1c-0.2-0.8-0.4-1.7-0.7-2.5c-0.4-1.3-0.8-2.5-0.9-3.9
			c0.5,1.2,0.9,2.4,1.5,3.6c0.1,0.2,0.7,0.3,1,0.4c0.5-3,1.1-6,1.6-8.9c0.4-2,0.9-3.9,1.3-5.9c0.3-1.9,0.6-3.8,1-5.7
			c0.5-2.4,0.9-4.8,1.5-7.2c0.3-1.2,1.1-2.3,1.6-3.5c0.2-0.5,0.4-0.9,0.4-1.4c0.1-6.9,1.4-13.5,3.5-20c0.4-1.3,1.5-2.4,2.3-3.6
			c1.2,1.2,2.3,2.4,3.5,3.7c0.1,0.1,0.2,0.4,0.1,0.6c-1,6.7,0.4,13.6-2.5,20.1c-0.3,0.7,0.2,1.7,0,2.5c-0.1,0.6-0.5,1.2-0.8,1.7
			c-0.6,1.5-1.2,2.9-1.8,4.4c-2.1,10.7-4.2,21.3-6.4,32.5c1.2-0.4,2.3-0.4,3.1-0.2C79.4,96,88.3,79.4,90,75.6c0-0.1,0.1-0.1,0.1-0.2
			c0-0.1,0.1-0.2,0.1-0.2c0,0,0,0,0,0c1.6-3.6,3-7.3,5-10.6c2.4-4,5.5-7.4,8.3-11.2c1.7-2.3,2.7-2.6,4.9-1.3c2.5,1.6,3,3.4,2,5.6
			c-1.8,3.8-3.4,7.7-5.2,11.5c-1.4,3-3.1,5.6-5.7,7.9c-2.4,2.2-4.2,5.3-5.5,8.3c-3.4,8-6.5,16.2-9.5,24.4c0,0.1-0.1,0.3-0.1,0.4
			c-0.1,0.5-0.1,1-0.1,1.6c8.8-13.1,17.8-21.1,23.4-25.2c-0.1-0.1-0.1-0.1-0.2-0.2c1.9-1.3,3.9-2.6,5.8-4c0.4-0.3,0.6-0.7,0.9-1
			c3.9-4.4,8.4-7.9,14.2-9.6c1.5-0.4,2.9-1.2,4.3-1.9c1.6-0.7,3.2-1.4,5.2-0.2c-1.7,0.3-3.2,0.6-4.5,0.8c1.6,0.3,3.3,0.4,4.9,0.8
			c1.6,0.4,1.7,1.4,0.4,2.4c-5.7,4.4-11,9.6-17.8,12.5c-1.3,0.5-2.7,0.9-2.8,2.8c0,0.5-1.1,1.3-1.8,1.5c-5.6,1.7-9.2,6-12.8,10
			c-2.5,2.8-4.8,5.8-7,8.8c-1.4,2.1-2.8,4.2-4.2,6.4c0.7-0.2,1.2-0.2,1.7-0.5c9.8-4.9,20-5.3,30.6-3.5c1.8,0.3,3.5,1.1,5.3,1.6
			c0.2,0.1,0.4,0.2,0.5,0.3c0,1,0.3,2.2,0,3c-1.6,4-4.5,4.7-8.4,3.5c-2.8-0.9-6-0.8-9-0.5c-5.1,0.5-10.2,1.2-15.2,2.3
			c-4.8,1-9.6,2.8-12.6,6.9c-0.4,0.6-0.8,1.1-1.1,1.8l66.6-1.7C153.8,119.7,155.5,110,155.2,100.1z"/>
		<path class="st0" d="M83.3,113.2c0.3-0.4,0.6-0.9,0.8-1.3c0-0.5,0.1-1,0.1-1.6C84,111.3,83.7,112.3,83.3,113.2z"/>
	</g>
	<g>
		<path class="st2" d="M82.4,133.4c-0.6,1.3-1.1,2.6-1.6,3.9c-1.8,4.1-3.6,8.2-5.4,12.3c-0.2,0.5-0.2,1.1-0.4,1.9
			c1.9-0.2,3.7-0.3,5.4-0.4c0,0.1,0,0.2,0,0.3c-3,1.3-6,2.7-8.9,4c-0.2,0.1-0.5,0.2-0.6,0.2c-2.5-1.2-4.1,0.5-5.8,1.9
			c-0.5,0.4-1.4,0.8-1.7,0.6c-3-1.8-5.8-1.4-8.7,0.3c-0.6,0.4-1.8-0.1-2.7-0.3c-0.9-0.1-1.8-0.5-2.6-0.5c-1.3,0.1-2.7,0.2-4,0.2
			l0-0.1c0.2-0.4,0.1-0.7-0.2-0.9c0.8-0.1,1.7-0.3,2.5-0.3c1.7-0.1,1.8-1,1.3-2.1c-1.2-2.9-2.4-5.8-4-8.5c-2.1-3.8-4.3-7.5-6.6-11.2
			l-30.9,0.8c13.3,25.8,40.8,43.1,72,42.3c31.2-0.8,57.7-19.5,69.8-45.9L82.4,133.4z"/>
		<path class="st2" d="M76.4,144.9c0.7-0.7,1.2-1.8,1.4-2.9C77.3,143.2,76.8,144.1,76.4,144.9z"/>
		<path class="st2" d="M56.1,145.5c1-3.3,0.1-6.4-0.9-9.2c-0.3-0.7-0.5-1.4-0.8-2.2l-6.4,0.2C50.7,138,53.4,141.7,56.1,145.5z"/>
	</g>
</g>
</svg>
