<?xml version="1.0" encoding="utf-8"?>
<!-- Generator: Adobe Illustrator 22.0.0, SVG Export Plug-In . SVG Version: 6.00 Build 0)  -->
<svg version="1.1" id="Layer_1" xmlns="http://www.w3.org/2000/svg" xmlns:xlink="http://www.w3.org/1999/xlink" x="0px" y="0px"
	 viewBox="0 0 592.5 174" style="enable-background:new 0 0 592.5 174;" xml:space="preserve">
<style type="text/css">
	.st0{fill:#FFFFFF;stroke:#FFFFFF;stroke-width:1.4472;stroke-miterlimit:10;}
	.st1{fill:#FFFFFF;}
	.st2{fill:none;}
</style>
<path class="st0" d="M438.5,71.9"/>
<path class="st0" d="M455.9,40.1"/>
<polygon class="st1" points="533,142.1 533,142.1 533,142.2 533,142.2 "/>
<g>
	<path class="st1" d="M178.6,55.6L178.6,55.6z"/>
	<g>
		<path class="st2" d="M77.8,138.3c-0.5,1.1-1,2.1-1.4,2.9C77.1,140.4,77.6,139.3,77.8,138.3z"/>
		<path class="st2" d="M113.9,86.7c0.6-0.3,1.1-0.5,1.7-0.7s1.1-0.7,2-1.3c-0.2,0-0.3-0.1-0.5-0.1c-0.1,0.4-0.2,0.6-0.2,0.6
			C115.9,85.6,114.9,86.1,113.9,86.7z"/>
		<path class="st2" d="M25.5,96.1l0.3,0.5C25.7,96.4,25.7,96.2,25.5,96.1C25.6,96.1,25.5,96.1,25.5,96.1z"/>
		<path class="st2" d="M49.4,148.7c0,0,0-0.1-0.1-0.1C49.4,148.7,49.4,148.7,49.4,148.7z"/>
		<path class="st2" d="M111.9,79.6c-0.3,0.2-0.5,0.5-0.7,0.7c0.3-0.2,0.5-0.3,0.8-0.5C111.9,79.7,111.9,79.7,111.9,79.6z"/>
		<path class="st2" d="M60.6,106.5c-0.1-0.7-0.2-1.5-0.4-2.2C60.3,105.1,60.5,105.8,60.6,106.5z"/>
		<path class="st2" d="M97.2,73.8c-0.8,1.3-2,3.8-3.3,6.9c1.3-2.6,2.7-4.9,3.9-6.6C97.6,74,97.4,73.9,97.2,73.8z"/>
		<path class="st2" d="M84.3,106.5c-0.3,1-0.6,1.9-1,2.8c0.3-0.4,0.6-0.9,0.8-1.3C84.2,107.6,84.2,107.1,84.3,106.5z"/>
		<path class="st2" d="M76.9,118.6c0,0.3,0.1,0.6,0.2,0.9L76.9,118.6z"/>
		<path class="st1" d="M84.3,109.4c-0.1-0.3-0.1-0.8-0.1-1.3c-0.3,0.4-0.6,0.8-0.8,1.3c-0.6,1.6-1.3,3-2.1,4.3c0,0,0,0,0.1-0.1
			c0.1,0,0.2,0.1,0.3,0.1c-1.1,2.2-2.3,4.3-3.3,6.5c-1.3,2.8-3.1,5.6-3.7,8.6c-0.7,3.5-0.4,7.2-0.4,10.9c0,0.8,0.3,1.6,0.5,2.4
			c0.6,0,1.3-0.4,1.8-0.9c0.4-0.8,0.8-1.8,1.4-2.9c0.1-0.7,0.1-1.4-0.1-2c1.2-2.2,2.3-3.9,3.2-5.7c2.6-5.4,5.1-10.8,7.7-16.1
			c0-0.1,0-0.2,0-0.2c2-1.4,2.6-3.3,1.7-6c2.4,0.9,3-0.5,4-1.7c3.7-4.4,7.6-8.7,11.2-13.2c2.3-2.9,5-5.1,8.3-6.7c1-0.6,2-1.1,3-1.5
			c0,0,0.1-0.2,0.2-0.6c-2.8-0.6-4.9-1.7-5.1-4.8c-0.2,0.1-0.5,0.3-0.8,0.5c-1.1,1-2.2,2-3.2,2.9c-0.1-0.1-0.2-0.3-0.3-0.4
			c-5.5,4.1-14.5,12.1-23.4,25.2C84.3,108.4,84.3,108.9,84.3,109.4z"/>
		<path class="st1" d="M33.1,87.4c-1.3,1-1.3,2-0.3,3.2c1.1,1.2,2.2,2.3,3,3.6c4.7,7.8,9.2,15.6,13.8,23.4c3.1,5.3,6,10.8,7.1,17
			c0.1,0.6,0.5,1.2,0.7,1.8c0.9-1.9,1.3-3.9,1.8-5.8c0.1-0.4,0.5-2.2,1-5c0-2.6-0.8-5-2.1-7.3c-1-1.8-2.2-3.5-3.2-5.4
			c-2.1-3.6-4.1-7.1-6.1-10.7c-1.2-1.9-2.3-3.8-3.5-5.7c-2.5-4.1-4.9-8.2-7.4-12.4C36.5,85,34.8,86.2,33.1,87.4z"/>
		<path class="st1" d="M41.7,134.8c2.2,4,4.5,7.9,6.7,11.9c0.4,0.6,0.5,1.4,0.9,2c0,0,0,0.1,0.1,0.1c0.1,0.2,0.2,0.4,0.3,0.5
			c0.7,0.8,1.7,2,2.5,2c1.2-0.1,3.2,0.6,3.7-1.7c-0.7,0.1-1.3,0.1-2.2,0.2c0.9-1.4,1.7-2.6,2.4-3.8c-0.1-0.1-0.3-0.2-0.4-0.3
			c-0.6,0.4-1.2,0.9-1.8,1.3c-0.1-0.1-0.1-0.1-0.2-0.2c0.5-0.7,1-1.5,1.6-2.2c-0.1-0.1-0.2-0.2-0.3-0.3c-1.2,0.7-2.5,1.3-3.7,2
			c-0.1-0.2-0.3-0.4-0.4-0.6c0.6-0.4,1.1-1,1.8-1.3c1.7-0.8,2.2-1.9,1.1-3.5c-2.5-3.7-4.8-7.4-7.3-11.1c-0.7-1-1.4-2-2.1-3.1
			c0.1-0.1,0.2-0.2,0.3-0.2L26.8,98.3c0,0.3,0,0.7,0,1.2c-0.4-1-0.6-1.7-1-2.7l-0.3-0.5c-1.8,0.9-3.5,1.8-4.9,2.5
			c0.3-0.6,0.6-1.1,1-1.5c-2,1.7-2.3,4.7-2.3,4.7c1.7-1.7,2.9-2.9,4.2-4.1c0.2-0.2,0.8-0.2,1-0.1s0.4,0.6,0.3,0.9
			c-0.3,1.5-3,3.4-5.5,3.3c1.7,2.2,3.7,4.9,5.8,7.9c0,0,0.1,0.1,0.1,0.2C31.4,117.7,36.9,126,41.7,134.8z"/>
		<path class="st1" d="M57.6,94.4c-0.4,0-0.9-0.1-1.3-0.2c1.2,1.8,2.1,3.7,2.8,5.8c0.6,1.4,0.9,2.8,1.2,4.3c0.2,0.7,0.3,1.5,0.4,2.2
			c0,0.1,0.1,0.3,0.1,0.4c1.6,8.1,1.2,16.2-0.4,24.3c-0.5,2.4-1.2,4.8-1.5,7.2c-0.4,3-0.7,6-0.4,8.9c0.1,1.5,0.2,4,2.9,3.9
			c0.4,0,0.9-0.3,1.7-0.7c-0.8-0.5-1.3-0.8-1.7-1.1c0-0.2,0-0.4,0.1-0.5c1.2-1,3.1-1.7,1.9-3.9c3-4.5,0.9-9.7,2-14.5
			c1.1-4.8,2-9.7,2.4-14.6c0.4-5.5,0.4-11-0.9-16.4v-0.1c-1.5-5.2-3.3-8.6-4.8-10.8c0,0.1,0.1,0.2,0.1,0.3
			C63,91.6,60.2,94.7,57.6,94.4z"/>
		<path class="st1" d="M61,119.2c0,0.6-0.1,1.2-0.1,1.7c0.1,0,0.1,0,0.2,0C61,120.3,61,119.8,61,119.2z"/>
		<path class="st1" d="M60.2,125.6c-0.4,2.7-0.9,4.6-1,5c0.2-0.6,0.3-1.2,0.5-1.8C60.1,127.6,60.2,126.6,60.2,125.6z"/>
		<path class="st1" d="M84.5,106c0,0.1-0.1,0.3-0.1,0.4C84.4,106.2,84.4,106.1,84.5,106z"/>
		<path class="st1" d="M90.2,71.4c0,0.1-0.1,0.1-0.1,0.2C90.1,71.6,90.1,71.5,90.2,71.4L90.2,71.4z"/>
		<path class="st1" d="M79.2,108.9c1.2,2,1,3.7-0.4,5.6c-0.9,1.1-2,2.2-1.8,4.1l0.2,0.9c0.4-0.6,0.8-1.2,1.2-1.7
			c1.6-3,3.3-5.8,5-8.4c0.4-0.9,0.7-1.9,1-2.8c0.8-5.8,5.2-17.3,9.6-25.8c1.3-3.1,2.5-5.6,3.3-6.9c-1.5-0.8-3-1.7-4.7-2.2
			c-0.7-0.2-1.7,0.6-3,1.1c0.1-0.3,0.3-0.6,0.4-0.9c-1.7,3.7-10.6,20.3-13.8,34.5C77.5,106.7,78.4,107.5,79.2,108.9z"/>
		<path class="st1" d="M83.3,109.4c-1.7,2.6-3.4,5.4-5,8.4c1.1-1.5,2-2.8,2.9-4.1C82,112.4,82.7,110.9,83.3,109.4z"/>
		<path class="st1" d="M68.5,141.2c0,0.2-0.1,0.4-0.1,0.6c0.6,0,1.1,0,1.6-0.1C69.4,141.5,68.9,141.4,68.5,141.2z"/>
		<path class="st1" d="M111.2,80.3c-0.9,0.6-2.1,1.4-3.5,2.4c0.1,0.1,0.2,0.3,0.3,0.4C109,82.2,110,81.3,111.2,80.3z"/>
		<path class="st1" d="M117.1,84.6c0.4-1.5,0.9-5.2-4-5.4c0,0-0.4,0.2-1.1,0.6C112.2,82.9,114.3,84,117.1,84.6z"/>
		<path class="st1" d="M60.2,104.3c-0.3-1.5-0.6-3-1.2-4.3C59.5,101.4,59.9,102.9,60.2,104.3z"/>
		<path class="st1" d="M78.3,117.7c-0.4,0.5-0.8,1.1-1.2,1.7c0,0,0.3-0.3,0.8-0.9C78,118.3,78.2,118,78.3,117.7z"/>
		<path class="st1" d="M81.3,113.6c-0.9,1.3-1.9,2.6-2.9,4.1c-0.1,0.3-0.3,0.5-0.4,0.8C78.7,117.6,80,115.9,81.3,113.6z"/>
		<path class="st1" d="M90,71.8c0-0.1,0.1-0.1,0.1-0.2C90,71.7,90,71.8,90,71.8z"/>
		<path class="st1" d="M84.2,108.1L84.2,108.1c0.1-0.6,0.1-1.2,0.2-1.7c0,0.1,0,0.1,0,0.2C84.2,107.1,84.2,107.6,84.2,108.1z"/>
		<path class="st1" d="M84.3,109.4c0-0.5,0-0.9,0-1.4l-0.1,0.1C84.2,108.6,84.2,109.1,84.3,109.4z"/>
		<path class="st1" d="M92.6,71.6c1.6,0.5,3.1,1.4,4.7,2.2c0.4-0.7,0.7-1,0.9-1c1.4,0.5-6.6-4.4-7.9-1.4c0,0.1-0.1,0.2-0.1,0.2
			c0,0.1,0,0.1-0.1,0.2c-0.1,0.3-0.3,0.6-0.4,0.9C90.9,72.2,91.9,71.3,92.6,71.6z"/>
		<path class="st1" d="M68.6,108.5c2.6-0.8,4-2,4.4-4.3c0.9-5.1,1.7-10.1,2.8-15.2c1.1-5,2.4-10,3.6-15c0.6-1.5,1.2-2.9,1.8-4.4
			c-0.3-0.5-0.4-1.4-0.8-1.6c-1.9-0.6-3.8-0.9-5.7-1.4c-1.4,5.4-2.7,10.6-4,15.7c-0.4,2-0.9,3.9-1.3,5.9c-0.5,3-1.1,6-1.6,8.9l0,0
			C68,101,68.3,104.7,68.6,108.5z"/>
		<path class="st1" d="M67.7,97.3L67.7,97.3C67.7,97.3,67.7,97.4,67.7,97.3L67.7,97.3z"/>
		<path class="st1" d="M92.5,113c-0.8,0.4-1.4,0.9-1.8,1.4c-0.5,0.8-0.9,1.6-1.4,2.3c-0.2,0.5-0.5,1-0.7,1.6c1,0.3,2,0.8,2.5,0.6
			c3.1-1.5,6.4-2,9.6-3.1c2.5-0.8,4.8-0.7,7.2-0.8c0.5,0,1,0,1.6,0c4.8-0.4,9.6-1.9,14.1,1.2c2-4.3,4.2-5.8,6.5-4.1
			c0.1-0.8,0.2-1.5,0.3-2.2c-0.2-0.1-0.4-0.2-0.5-0.3c-2.7-0.4-5.4-0.9-8.1-1.2C111.5,107,101.8,108.4,92.5,113z"/>
		<path class="st1" d="M89.3,116.7c0.5-0.8,0.9-1.5,1.4-2.3C90.1,115.1,89.7,115.9,89.3,116.7z"/>
		<path class="st1" d="M25.4,96c-1.4-0.3-2.8,0.1-3.8,1.1C22.5,96.3,23.8,95.8,25.4,96z"/>
		<path class="st1" d="M73,128.5c0.4-2.6,0.8-5.2,1.4-7.7c0.4-1.6,1.1-3.1,2-4.5l-0.4-2.1c-0.5,0.3-1,0.5-1.5,0.5
			c-1.9,0.1-3.9-1.8-3.8-3.6c0-0.4,0.4-1,0.7-1.3c0.5-0.5,2.5-0.4,4.1,0c0.1-0.9,0.3-1.8,0.5-2.7c-0.6-0.1-1.2-0.1-1.8,0
			c-2,0.3-3.9,1.4-4.4,3.4c-0.3,1.1-0.5,2.3-0.8,3.5c0.8,9,1,19.7-0.6,27.4c0.4,0.2,0.9,0.3,1.5,0.5c-0.5,0.1-1.1,0.1-1.6,0.1
			c-0.5,2.3-1.2,4.4-2,6c0.5,1.2,1.4,2.1,2.8,2.4c0.5,0.1,1.6-0.2,1.7-0.5c0.8-2.2,2.1-4.2,2.3-6.5c-1.4-2.7-2.5-8.8-2.5-8.8
			C71.4,132.3,72.2,130.3,73,128.5z"/>
		<path class="st1" d="M72.9,140.4c-0.5-2.1-0.7-4.3-0.5-6.4c0.2-1.8,0.4-3.7,0.6-5.5c-0.8,1.9-1.6,3.8-2.4,5.8c0,0,1.1,6.1,2.5,8.8
			C73.2,142.2,73.2,141.4,72.9,140.4z"/>
		<path class="st1" d="M66.2,142.3c-0.7,1-0.5,2.8-0.3,4.1c0.1,0.5,0.2,0.9,0.4,1.3c0.9-1.6,1.5-3.7,2-6
			C67.4,141.8,66.5,141.9,66.2,142.3z"/>
		<path class="st1" d="M69.1,113.8c-0.7,3.5-1.4,7-1.9,10.6c-0.6,3.7-0.6,7.4-1.1,11.1c-0.5,3.8-0.4,4.8,2.3,5.7
			C70.1,133.5,70,122.8,69.1,113.8z"/>
		<path class="st1" d="M77.8,110.8c0.5,1-0.4,2.5-1.7,3.3l0.4,2.1c0.4-0.7,0.9-1.3,1.3-1.9c1.2-1.7,1.9-3.2,1-5.1
			c-0.6-1.3-1.6-2-2.7-2.2c-0.2,0.9-0.4,1.8-0.5,2.7C76.7,109.9,77.6,110.3,77.8,110.8z"/>
		<path class="st1" d="M130.5,69.5c0.1-0.3,0.2-0.5,0.3-0.7s0.1-0.4,0.2-0.6c-5.7,2.1-10.6,5.1-14.8,9.2c5.4-2.9,10.2-7.1,16.8-7
			c-0.5-0.2-0.9-0.3-1.3-0.4C131.4,69.9,131,69.7,130.5,69.5z"/>
		<path class="st1" d="M52.9,78.7c-0.9-0.9-1.8-1.8-3-3c1.3,0.1,2.2,0.2,3.4,0.3c-0.9-0.9-1.4-1.9-2.2-2.1c-1.1-0.3-2.4-0.1-3.6,0.2
			c-0.2,0.1-0.4,2.2,0.1,2.5c1.6,1.1,3.4,1.9,5.2,2.8C52.7,79.1,52.8,78.9,52.9,78.7z"/>
		<path class="st1" d="M102.7,57.2c0.2-1.2,0.4-2,0.5-2.8c0.2-0.8,0.3-1.5,0.5-2.3c-0.1,0-0.1,0-0.2,0.1c-2.1,4.8-4.2,9.6-6,13.8
			c2.9-3.3,6.3-7.1,9.6-10.9C106,55.5,104.5,56.3,102.7,57.2z"/>
		<path class="st1" d="M108.3,48.9c-1.3-0.6-2.6-0.9-3.4,0.5c1.6,1.1,3.2,2.2,4.9,3.4C110.1,51.3,110.1,49.8,108.3,48.9z"/>
	</g>
</g>
<g>
	<path class="st2" d="M76.4,141.1c0.7-0.7,1.2-1.8,1.4-2.9C77.3,139.4,76.8,140.3,76.4,141.1z"/>
	<path class="st2" d="M55.2,132.5c-0.6-1.6-1.2-3.3-1.8-4.9l-7.3,0.2c3.3,4.6,6.6,9.2,10,14C57.1,138.4,56.2,135.3,55.2,132.5z"/>
	<path class="st1" d="M111.9,79.6c-0.3,0.2-0.5,0.5-0.7,0.7c0.3-0.2,0.5-0.3,0.8-0.5C111.9,79.7,111.9,79.7,111.9,79.6z"/>
	<path class="st1" d="M117.6,84.7c-0.2,0-0.3-0.1-0.5-0.1c-0.1,0.4-0.2,0.6-0.2,0.6c-1,0.4-2,0.9-3,1.5c0.6-0.3,1.1-0.5,1.7-0.7
		C116.2,85.7,116.7,85.3,117.6,84.7z"/>
	<path class="st1" d="M25.5,96.1l0.3,0.5C25.7,96.4,25.7,96.2,25.5,96.1C25.6,96.1,25.5,96.1,25.5,96.1z"/>
	<path class="st1" d="M77.1,119.5l-0.2-0.9C77,118.8,77,119.1,77.1,119.5z"/>
	<path class="st1" d="M155.2,96.3c-0.5-20.5-9.1-39.5-24.1-53.7C116.6,29,97.7,21.5,77.7,21.5c-0.7,0-1.4,0-2.1,0
		c-20.7,0.5-40,9-54.3,23.9C7.1,60.3-0.5,79.8,0,100.3c0.3,9.9,2.4,19.5,6.3,28.5l30.4-0.8c-0.1-0.2-0.3-0.5-0.4-0.7
		c-1.5-2.3-3.2-4.5-4.8-6.8c-0.6-0.8-1-1.7-1.5-2.5c-1.7-2.4-3.5-4.8-5.2-7.3c-0.8-1.1-1.6-2.2-2.4-3.2c-0.9-1.1-1.8-2.2-2.6-3.3
		c-0.6-0.9-1-2-1-3.2c2.1,2.9,4.1,5.8,6.3,8.6c-2.1-3-4-5.7-5.8-7.9c0,0,0.3-3,2.3-4.7c1-1,2.3-1.4,3.8-1.1c1.1,0.2,1.3,0.3,1.4,2.1
		l17.9,28.2c0.1-0.1,0.2-0.1,0.3-0.2c0.4,0.5,0.8,1.1,1.2,1.6l7.3-0.2c-1.2-3.1-2.6-6.1-4.2-9.1c-4.2-7.8-8.9-15.4-13.4-23.2
		c0-0.1-0.1-0.1-0.1-0.2c-4.1-3.4-4.6-8.7-7.2-12.9c-1-1.6-0.2-4.2,1.7-5.8c1.5,1.6,2.9,3.4,4.5,4.9c0.9,0.8,2.3,1.2,3.3,1.9
		c0.6,0.4,1.2,1,1.5,1.7c2,3.8,3.8,7.7,5.7,11.6c1.2,1.9,2.3,3.8,3.5,5.7c2.3,3.5,4.6,7,6.8,10.5c1.7,2.7,3.2,5.5,4.8,8.2
		c0.1,0,0.3,0,0.4,0c0.1-0.6,0.1-1.1,0.1-1.7c-0.1-3-0.1-5.9-0.5-8.8c-0.5-3.6-1.6-7.1-2.6-10.7c-0.2-0.6-0.4-1.4-0.9-1.8
		c-4.7-3.6-5.2-9.5-8-14.2c-1.4-2.4-1.9-5.3-2.7-8c-0.4-1.4,0.1-2.2,1.6-2.6c2.1-0.5,3.8-0.3,5.4,1.2c4.5,4,6.6,9.3,8.6,14.6
		c1.5,2.2,3.3,5.6,4.8,10.8v0.1c-0.2-0.8-0.4-1.7-0.7-2.5c-0.4-1.3-0.8-2.5-0.9-3.9c0.5,1.2,0.9,2.4,1.5,3.6c0.1,0.2,0.7,0.3,1,0.4
		c0.5-3,1.1-6,1.6-8.9c0.4-2,0.9-3.9,1.3-5.9c0.3-1.9,0.6-3.8,1-5.7c0.5-2.4,0.9-4.8,1.5-7.2c0.3-1.2,1.1-2.3,1.6-3.5
		c0.2-0.5,0.4-0.9,0.4-1.4c0.1-6.9,1.4-13.5,3.5-20c0.4-1.3,1.5-2.4,2.3-3.6c1.2,1.2,2.3,2.4,3.5,3.7c0.1,0.1,0.2,0.4,0.1,0.6
		c-1,6.7,0.4,13.6-2.5,20.1c-0.3,0.7,0.2,1.7,0,2.5c-0.1,0.6-0.5,1.2-0.8,1.7c-0.6,1.5-1.2,2.9-1.8,4.4c-2.1,10.7-4.2,21.3-6.4,32.5
		c1.2-0.4,2.3-0.4,3.1-0.2C79.4,92.2,88.3,75.6,90,71.8c0-0.1,0.1-0.1,0.1-0.2s0.1-0.2,0.1-0.2l0,0c1.6-3.6,3-7.3,5-10.6
		c2.4-4,5.5-7.4,8.3-11.2c1.7-2.3,2.7-2.6,4.9-1.3c2.5,1.6,3,3.4,2,5.6c-1.8,3.8-3.4,7.7-5.2,11.5c-1.4,3-3.1,5.6-5.7,7.9
		c-2.4,2.2-4.2,5.3-5.5,8.3c-3.4,8-6.5,16.2-9.5,24.4c0,0.1-0.1,0.3-0.1,0.4c-0.1,0.5-0.1,1-0.1,1.6c8.8-13.1,17.8-21.1,23.4-25.2
		c-0.1-0.1-0.1-0.1-0.2-0.2c1.9-1.3,3.9-2.6,5.8-4c0.4-0.3,0.6-0.7,0.9-1c3.9-4.4,8.4-7.9,14.2-9.6c1.5-0.4,2.9-1.2,4.3-1.9
		c1.6-0.7,3.2-1.4,5.2-0.2c-1.7,0.3-3.2,0.6-4.5,0.8c1.6,0.3,3.3,0.4,4.9,0.8c1.6,0.4,1.7,1.4,0.4,2.4c-5.7,4.4-11,9.6-17.8,12.5
		c-1.3,0.5-2.7,0.9-2.8,2.8c0,0.5-1.1,1.3-1.8,1.5c-5.6,1.7-9.2,6-12.8,10c-2.5,2.8-4.8,5.8-7,8.8c-1.4,2.1-2.8,4.2-4.2,6.4
		c0.7-0.2,1.2-0.2,1.7-0.5c9.8-4.9,20-5.3,30.6-3.5c1.8,0.3,3.5,1.1,5.3,1.6c0.2,0.1,0.4,0.2,0.5,0.3c0,1,0.3,2.2,0,3
		c-1.6,4-4.5,4.7-8.4,3.5c-2.8-0.9-6-0.8-9-0.5c-5.1,0.5-10.2,1.2-15.2,2.3c-4.8,1-9.6,2.8-12.6,6.9c-0.4,0.6-0.8,1.1-1.1,1.8
		l66.6-1.7C153.8,115.9,155.5,106.2,155.2,96.3z"/>
	<path class="st1" d="M83.3,109.4c0.3-0.4,0.6-0.9,0.8-1.3c0-0.5,0.1-1,0.1-1.6C84,107.5,83.7,108.5,83.3,109.4z"/>
</g>
<g>
	<path class="st1" d="M82.4,129.6c-0.6,1.3-1.1,2.6-1.6,3.9c-1.8,4.1-3.6,8.2-5.4,12.3c-0.2,0.5-0.2,1.1-0.4,1.9
		c1.9-0.2,3.7-0.3,5.4-0.4c0,0.1,0,0.2,0,0.3c-3,1.3-6,2.7-8.9,4c-0.2,0.1-0.5,0.2-0.6,0.2c-2.5-1.2-4.1,0.5-5.8,1.9
		c-0.5,0.4-1.4,0.8-1.7,0.6c-3-1.8-5.8-1.4-8.7,0.3c-0.6,0.4-1.8-0.1-2.7-0.3c-0.9-0.1-1.8-0.5-2.6-0.5c-1.3,0.1-2.7,0.2-4,0.2v-0.1
		c0.2-0.4,0.1-0.7-0.2-0.9c0.8-0.1,1.7-0.3,2.5-0.3c1.7-0.1,1.8-1,1.3-2.1c-1.2-2.9-2.4-5.8-4-8.5c-2.1-3.8-4.3-7.5-6.6-11.2
		l-30.9,0.8c13.3,25.8,40.8,43.1,72,42.3c31.2-0.8,57.7-19.5,69.8-45.9L82.4,129.6z"/>
	<path class="st1" d="M76.4,141.1c0.7-0.7,1.2-1.8,1.4-2.9C77.3,139.4,76.8,140.3,76.4,141.1z"/>
	<path class="st1" d="M56.1,141.7c1-3.3,0.1-6.4-0.9-9.2c-0.3-0.7-0.5-1.4-0.8-2.2l-6.4,0.2C50.7,134.2,53.4,137.9,56.1,141.7z"/>
</g>
<g>
	<path class="st1" d="M256.3,134.3v28.4c-7.6,1.9-14.2,2.7-20.2,2.7c-20.6,0-37.3-5.9-50.2-17.7s-19.2-27.2-19.2-46.4
		c0-17.8,6.5-32.5,19.4-44.1c13-11.6,29.3-17.4,49-17.4c7.7,0,14.7,0.8,21.2,2.4v28.4C249.5,68.8,243,68,237,68
		c-9.2,0-16.9,3.2-23.1,9.6c-6.1,6.5-9.1,14.6-9.1,24.5c0,10.7,3,19.2,9.2,25.4s14.3,9.3,24.6,9.3
		C243.6,137,249.5,136.1,256.3,134.3z"/>
	<path class="st1" d="M272.3,43.1h36.2c21.1,0,36.2,3.1,45.5,9.4c9.3,6.4,13.9,14.3,13.9,24.1c0,10.5-6.8,18.9-20.2,25.3
		c15.3,4.6,23,13.4,23,26.2c0,10.3-4.7,18.7-14.2,24.9c-9.5,6.3-22,9.4-37.5,9.4h-46.5L272.3,43.1L272.3,43.1z M307.9,66v25.7
		c15.9-0.3,23.9-4.5,23.9-12.6c0-4.8-1.9-8.1-5.7-10.1C322.2,67.2,316.3,66.2,307.9,66z M307.9,113.4v25.8c9-0.1,15.8-1.2,20.3-3.1
		s6.8-5.3,6.8-9.9c0-8.5-8.1-12.8-24.2-12.8H307.9z"/>
	<path class="st0" d="M438,72.1"/>
	<polygon class="st1" points="523.4,157.8 522.6,159 523.2,157.1 	"/>
	<polygon class="st1" points="455.5,137.9 455.5,163.4 383.1,163.4 383.1,42.1 455.3,42.1 455.3,69.5 418.9,69.5 418.9,91.5 
		450.4,91.5 450.4,116.2 418.8,116.2 418.8,137.9 	"/>
	<polygon class="st1" points="523.4,157.8 522.6,159 523.2,157.1 	"/>
	<path class="st1" d="M503.6,165.8c0.2,0.3,0.4,0.5,1.4,0.7l0.2,0c0.4,0.1,0.8,0.3,1.3,0.7c0.5,0.4,0.9,0.9,1.2,1.3l0.1,0.2
		c0.1,0.2,0.3,0.3,0.6,0.4l0.2,0c1.1,0.3,1.5,1.1,1.8,1.6c0,0.1,0.1,0.1,0.1,0.2c0.4,0.7,0.8,1.4,1.3,2.1c0.2-0.3,0.3-0.7,0.5-1
		c0.2-0.3,0.3-0.6,0.5-1l1.5-3.1l0.7,2.1c0.4-0.9,0.8-1.8,1.4-2.8c0.3-0.5,1-1.2,1.9-1.3c0,0,0-0.1,0-0.1c0.1-0.1,0.1-0.3,0.2-0.4
		h-15.1C503.4,165.5,503.5,165.6,503.6,165.8z"/>
	<path class="st1" d="M547.5,126.3c0.1,0,0.2-0.1,0.3-0.1c0.1-0.7,0.5-1.6,1.9-1.8c0,0,0.1,0,0.1,0c0.5-0.3,1-0.3,1.5-0.1
		c0.1,0,0.2,0.1,0.3,0.1l1.6-1.6l0.5,1.6c0.4-0.1,0.8,0,1.2,0.1l0.5-2.1l1.7,1.5c0.5,0.5,0.8,0.6,1,0.6c0.6-0.1,1.2-0.1,1.8-0.2
		c0.3-1.8,1.7-2.7,2.7-3.2l0.2-0.1c0.6-0.3,0.9-0.4,1.3-0.5c0.3-0.1,0.5-0.2,0.5-0.3c0-0.1,0-0.3,0-0.6c-0.1-1-0.2-2.5,0.7-3.8
		c-0.1-1.5,1.1-2.3,1.7-2.6c0.9-0.6,1.1-1.1,1.1-1.8c0-0.6,0.3-1.3,1-2c0.2-0.3,0.5-0.5,0.8-0.8c-0.3-0.6-0.7-1.4-0.5-2.5v-0.5
		l0.1-0.3c0.1-0.3,0.3-0.6,0.4-0.9c0.5-1,0.9-2.1,1.6-3.1c0.6-0.8,0.8-1.1,0.7-1.5c-0.1-1.8,0.2-3.6,0.6-5.1c0-0.2,0.1-0.6,0.4-0.9
		c0.4-0.7,0.5-1.5,0.2-2.9c-0.2-0.9-0.3-2,0.2-3.3l-0.4-0.4l0.1-0.7c0-0.3,0.1-0.5,0.1-0.8c0.1-0.3,0.1-0.6,0.1-0.8l-0.1-0.4
		c-0.1-0.6-0.3-1.4-0.1-2.3l-26,44.3C547.4,126.3,547.4,126.3,547.5,126.3z"/>
	<path class="st1" d="M466.7,37.2h108.2c-0.5-0.4-1.1-0.8-1.6-1.2c-0.9-0.6-2-1.1-3-1.4c-0.1,0-0.4,0-0.6,0c-0.3,0-0.6,0-0.8,0
		c-0.6,0-1,0-1.4,0.1c-0.2,0-0.4,0.1-0.6,0.1c-0.5,0.1-1.1,0.2-1.7,0.2l-0.4,0c-0.7,0-1.7,0-2.6-0.5c-0.1-0.1-0.4-0.1-0.7-0.1
		c-0.3,0-0.5,0-0.8-0.1c-1.2-0.2-2.6-0.6-3.8-1.6c-0.1,0-0.2-0.1-0.2-0.1l-0.1,0.1l-0.2,0.1c0,0,0,0-0.1,0.1
		c-0.2,0.1-0.3,0.2-0.5,0.3l-1.5,0.7l-0.3-0.8c0,0-0.1,0-0.1,0.1l-0.4,0.2H553c-0.2,0-0.4,0-0.6-0.1c-0.2,0.3-0.4,0.6-0.6,0.9
		c-0.1,0.1-0.2,0.3-0.3,0.4l-0.2,0.2c-0.4,0.4-1,0.7-1.6,0.9l-2.6,0.6l0.9-2.5c0.1-0.3,0.2-0.5,0.3-0.8c0.1-0.3,0.2-0.6,0.3-0.9
		l-2.3-2.6c-0.4-0.5-1-1.2-1.2-2.1c-0.4-0.1-0.9-0.2-1.3-0.3c-0.2,0-0.4-0.1-0.7-0.2l-0.7-0.4l0-0.3c-0.2,0-0.5,0-0.7-0.1
		c-0.6-0.2-1.1-0.5-1.7-0.7c-0.4-0.2-0.8-0.3-1.2-0.5l-0.4,1.2l-1.5-1c-0.1,0-0.7-0.5-0.9-0.3l-0.1,0.1c-0.2,0.2-0.5,0.7-0.8,1.1
		c-0.1,0.2-0.3,0.5-0.4,0.7l-0.6,1l-0.8-0.3c-0.3,0.6-0.9,1.2-1.8,1.6c-0.2,0.1-0.6,0.5-0.8,0.8l-0.1,0.2c-0.2,0.2-0.4,0.5-0.6,0.9
		c-0.2,0.3-0.5,0.7-0.8,1.2l-2.6,3.4v-4.9c-0.3,0-0.6-0.1-0.7-0.1c-0.2,0-0.6,0-0.9-0.1c-0.4,0-0.8-0.1-1.2-0.1l-3.7-0.5l3.1-2.1
		c0.1-0.1,0.2-0.1,0.2-0.2c0.5-0.4,1.4-1.1,2.8-0.6c0.1,0,0.2-0.1,0.4-0.1c0.3-0.1,0.5-0.2,0.8-0.2c0.5-0.1,0.9-0.1,1-0.1
		c0.1,0,0.3-0.1,0.5-0.1c0,0,0.1,0,0.1,0c0.9-0.8,1.8-1.7,2.3-2.8c0.1-0.2,0.2-0.5,0.4-0.8c0,0,0-0.1,0.1-0.1
		c-0.6,0-1.2,0.1-1.8,0.2c-0.8,0.1-1.6,0.2-2.4,0.3c-1,0-2-0.4-2.8-0.7c-1.3-0.6-1.3-0.6-1.9,0.5c-0.2,0.3-0.4,0.7-0.5,1.1
		c-0.1,0.3-0.2,0.5-0.3,0.8l-0.1,0.3l-0.2,0.2c-0.1,0.1-0.4,0.4-0.8,0.6l-2.1,1v-1.5l-3.3,1.6l1.5-3.6c0.3-0.7,0.7-1.6,1.3-2.3
		c0.6-0.7,1.2-1.2,1.8-1.8c0.3-0.3,0.5-0.5,0.8-0.8c0.3-0.3,0.6-0.5,0.9-0.7c0.2-0.1,0.3-0.2,0.4-0.3c0.3-0.3,0.6-0.7,0.9-1
		c0.3-0.3,0.6-0.7,0.9-1l0.1-0.2l-1.1-1.1l0.3-0.2h-0.3l0.5-1.4c-0.1,0-0.3,0-0.5,0c-0.7-0.2-1.2-0.7-1.5-1.5
		c-0.2-0.5-0.3-1.1-0.5-1.6c-0.1-0.4-0.3-0.9-0.4-1.3c0,0,0,0-0.1-0.1c-0.1-0.1-0.2-0.3-0.3-0.4c-0.6-1-0.9-2.1-0.9-3.3
		c0-0.2,0-0.3,0-0.5c-0.2,0.2-0.4,0.5-0.6,0.7c-0.9,1.4-1.6,2.7-2.2,3.9l0,0.1c-0.1,0.2-0.2,0.4-0.2,0.5c-0.1,0.3-0.2,0.6-0.4,0.9
		c-0.5,0.9-1.2,1.6-2.1,1.8c-0.9,0.2-1.8,0.1-2.8-0.5c-0.3-0.2-1.2-0.2-1.6,0.2c-0.2,0.3-0.5,0.6-0.9,0.8c-0.5,0.2-1.1,0.2-1.5-0.1
		c-0.5-0.2-1-0.5-1.6-0.7c-0.5-0.2-1-0.5-1.5-0.7c-0.1,0-0.2-0.1-0.3-0.1c-0.6,0.2-1.2,0.4-1.8,0.4l0.1,0.1l-0.4,0.9
		c-0.7,1.3-1.7,1.9-3.2,1.8c-0.4,0-0.8,0-1.2,0c-0.3,0-0.5,0-0.8,0c-0.5,0-1.2,0-1.9-0.4c-0.5,0.6-1.2,1.2-2.4,1.1l-0.1,0.2
		c-0.5,0.8-1.4,1.1-2.3,0.7c-0.4,0.5-1.1,1-1.7,1.3l-0.2,0.1c-0.8,0.3-1.8,0-2.3-0.4l-0.3-0.2c-1-0.7-2-1.4-2.8-2.6
		c-0.7-0.9-0.9-1.8-1-2.5c0-0.3-0.2-0.6-0.4-0.9c-0.1-0.3-0.3-0.5-0.4-0.8c-0.6-1.3-0.6-2.6,0-3.7V6c-0.1-1.2,0.3-2.3,1.3-3.2
		c-0.3-0.8-0.5-1-0.8-1l-1.2-0.3l0.2-1.3c0,0,0-0.1,0-0.1c-0.3,0.3-0.6,0.5-1.1,0.6v1.2h-2.1l-0.2-0.1c-0.1,0-0.1,0-0.1,0
		c0,0-0.2,0.3-0.4,0.5l-0.2,0.2c-0.2,0.2-0.9,0.8-1.7,0.8l-0.3,0c0,0-0.3,0.1-0.4,0.2c-0.3,0.1-0.7,0.3-1.1,0.4
		c-0.2,0-0.4,0.1-0.7,0.1c-0.3,0.1-0.5,0.1-0.8,0.2v1.1l-1,0.3c-1.3,0.4-2.3-0.3-2.7-0.7c-0.1,0-0.1-0.1-0.1-0.1c0,0,0,0,0,0
		c-0.9,0.3-1.8,0.3-2.6,0.1c0,0.2,0,0.4,0,0.7c0,0.2,0.1,0.5,0.3,0.8c0.5,0.7,0.6,1.4,0.6,2.1h0.4c0.6,0,1.2,0.3,1.3,0.3l0.6,0.3
		l0.2,0.6c0.2,0.9,0.1,1.7-0.5,2.4c-0.5,0.6-1.2,1-2.1,1.1c-0.1,0.7-0.5,2-2.1,2.3c-0.5,0.1-0.9,0.2-1.2,0.3l-0.2,0.1
		c-0.1,0-0.3,0.1-0.5,0.3l-1,0.7c-0.5,1-1.3,1.6-2.3,2.1l-1.6,0.8l-0.4-1.7c-1.3,0.6-2.5,0-3.1-0.3l-0.2-0.1c-0.3-0.1-0.6-0.3-1-0.4
		c-0.5-0.2-1.1-0.4-1.6-0.7c-0.6-0.3-1-0.9-1.1-1.2l-0.1-0.2c-0.2-0.5-0.1-0.9-0.1-1.2c0,0,0-0.1,0-0.1l0-0.2c0-0.1,0-0.1,0-0.2
		c-0.1,0-0.2-0.1-0.3-0.2c0,0,0,0-0.1,0.1l-0.1,0.1c-0.5,0.5-1.3,0.8-2,0.8c-0.4,0-0.8-0.2-1.1-0.4c-0.7,0.3-1.4,0.4-1.9,0.4
		c-0.2,0-0.3,0-0.5,0c-1.3,0.1-2.5,0.2-3.8,0.4v0c0,0,0.1,0,0.1,0c2.5-0.1,2.8,1.7,3,2.7l0,0.2V18c0,0.8-0.7,1.5-1.5,1.5h-0.5
		l-0.4-0.3c-0.1-0.1-0.2-0.1-0.8,0.1c-0.1,0-0.2,0-0.2,0.1c-0.1,0.5-0.1,1-0.1,1.5c0,0.1,0.1,0.1,0.1,0.2c0.1,0.2,0.2,0.3,0.3,0.5
		l0.1,0.1c0.9,1.4,1.9,3,1.7,5.1c-0.2,2.1-0.4,4.6-0.9,7.1c-0.3,1.1-0.5,2.2-0.6,3.3h21.1v35.1h0.1l0.1,1.2c0.1,0.1,0.3,0.1,0.5,0.2
		c0.2,0,0.3,0.1,0.5,0.2l0.1,0c0.4,0.1,1.3,0.4,1.7,1.3h0.6c0.9,0,1.6,0.3,2.2,0.6c0.3,0.1,0.8,0.1,1.2,0.1c0.7,0,1.7,0.3,2,1.5
		c0,0,0,0.1,0.1,0.2c0.1,0.1,0.2,0.2,0.3,0.3c0.1,0,0.1,0.1,0.2,0.2h2.3l0.9,0.9v0.7c0.3,0.2,0.6,0.4,0.8,0.4c0.8,0.1,1.8,0.1,2.7,0
		h0.1c1.6,0,2.8,0.9,3.5,1.6h0.1l0.5,0.5c0.5,0.5,0.4,1.1,0.3,1.4c0,0.4,0,0.7-0.1,1c0,0.2,0,0.4,0,0.5c0,0.7,0.1,1.3,0.1,2
		c0,0.6,0,1.3,0.1,2l0.1,0.7c0.5,0.8,0.8,1.7,1,2.7h8.8l-0.8,1.9c-0.1,0.2-0.1,0.3-0.2,0.5c-0.1,0.3-0.2,0.6-0.4,0.9
		c-0.4,0.7-0.2,1.5,0.1,2c0.1,0.2,0.5,0.5,1,0.6c1.4,0,1.9,0.9,2.1,1.6c0.1,0.1,0.1,0.3,0.2,0.5c0.2,0.4,0.4,1,0.5,1.6
		c0.1,0.9,0,1.9-0.4,2.7c-0.3,0.7-0.5,1.3-0.4,2l0,0.1c0,0.4-0.2,1.2-0.7,1.8c-0.5,0.5-0.8,1.3-1,2.2l0,0.1c0,0,0,0.2,0.2,0.8
		c0.7,2.2,0.7,4.3,0.7,6.3c0,0.6,0,1.1-0.1,1.7c0,0.2,0,0.4,0,0.6c0.3,0,0.6,0,0.9,0c1.1,0,2.3-0.1,3.4,0.2c0.1,0,0.1-0.1,0.1-0.1
		l1.2-3.5l1.5,3.5c0.1,0.3,0.3,0.4,1.1,0.6l0.3,0.1c0.8,0.2,1.5,0.7,1.8,1.4c0.1,0.2,0.1,0.3,0.2,0.5l27.9-48.6h-63.5V37.2z"/>
	<polygon class="st1" points="579.5,42.1 579.5,62.1 539.3,130.5 530.7,145.2 523.4,157.8 523.2,157.1 522.6,159 521.7,160.5 
		486.3,160.5 504.4,129 538.7,69.3 471.7,69.3 471.7,42.1 	"/>
	<path class="st1" d="M590.4,45.7c-0.1-0.4-0.5-0.7-1-1.2c0,0,0,0,0,0c-0.9,0.2-1.8,0.5-2.8,0.5c-0.7,0.1-1.3-0.1-1.9-0.2
		c-0.1,0-0.3-0.1-0.4-0.1v18.8l-0.7,1.2l-6.7,11.3c0.1,0,0.2,0.1,0.2,0.1l0.4,0.1v0c0.1-0.2,0.3-0.3,0.4-0.5
		c0.1-0.2,0.3-0.3,0.4-0.5c0.2-0.2,0.4-0.5,0.6-0.7c0.8-0.9,1.3-2,1.8-3.2c0.2-0.5,0.4-1,0.7-1.4c0.5-1,1.4-2.3,2.9-3.1l-0.1-0.4
		l0.6-0.6c0.3-0.3,0.8-0.5,1.2-0.5h0.4c0.4-0.7,0.8-1.3,1.3-1.9c0.4-0.5,1-1.1,1.5-1.6c1.1-1.2,1.7-2.8,1.8-4.8
		c0.1-1.3,0.6-2.3,1-3.2c0.1-0.3,0.3-0.6,0.4-0.9C591.3,50.3,590.8,47.9,590.4,45.7z"/>
	<path class="st1" d="M548.8,29.7v2.1c0-0.1,0.1-0.2,0.2-0.3C549.2,30.8,549.2,30.4,548.8,29.7z"/>
</g>
</svg>
