<?xml version="1.0" encoding="utf-8"?>
<!-- Generator: Adobe Illustrator 22.0.0, SVG Export Plug-In . SVG Version: 6.00 Build 0)  -->
<svg version="1.1" id="Camada_1" xmlns="http://www.w3.org/2000/svg" xmlns:xlink="http://www.w3.org/1999/xlink" x="0px" y="0px"
	 viewBox="0 0 531.8 400.5" style="enable-background:new 0 0 531.8 400.5;" xml:space="preserve">
<style type="text/css">
	.st0{fill-rule:evenodd;clip-rule:evenodd;fill:#1B153D;stroke:#FFFFFF;stroke-width:8.6095;stroke-miterlimit:10;}
	.st1{fill-rule:evenodd;clip-rule:evenodd;fill:#0F0C2B;stroke:#FFFFFF;stroke-width:13.3024;stroke-miterlimit:10;}
	.st2{fill-rule:evenodd;clip-rule:evenodd;fill:#1B153D;}
	.st3{fill-rule:evenodd;clip-rule:evenodd;fill:#1B153D;stroke:#FFFFFF;stroke-width:13.3024;stroke-miterlimit:10;}
	.st4{fill-rule:evenodd;clip-rule:evenodd;fill:#861A21;}
	.st5{fill-rule:evenodd;clip-rule:evenodd;fill:#2E8A2C;stroke:#FFFFFF;stroke-width:13.3024;stroke-miterlimit:10;}
	.st6{fill-rule:evenodd;clip-rule:evenodd;fill:none;stroke:#FFFFFF;stroke-width:13.3024;stroke-miterlimit:10;}
	.st7{fill-rule:evenodd;clip-rule:evenodd;fill:#FFFFFF;}
	.st8{fill:#861A21;}
</style>
<g>
	<ellipse class="st0" cx="216.9" cy="199.7" rx="212.6" ry="195.4"/>
	<path class="st1" d="M245.4,200.4l25.3-16.1V29.9c-17.6-5.9-36.5-9.1-56.1-9.1c-21.3,0-41.8,3.8-60.7,10.6v334.1
		c18.9,6.9,39.4,10.6,60.7,10.6c19.6,0,38.5-3.2,56.1-9.1V217L245.4,200.4z"/>
	<path class="st2" d="M187.1,64.8v109l35.5-1.3L241,155V64.8C241,64.8,215.1,43.7,187.1,64.8z"/>
	<path class="st2" d="M189.2,333.2V211.7l33.5,1.5l17.4,19.4v100.6C240.2,333.2,215.7,356.6,189.2,333.2z"/>
	<path class="st3" d="M388.3,119.2c-20.3-39.5-54.9-70.5-97.1-85.9v333.8c42.1-15.4,76.8-46.4,97.1-85.9"/>
	<path class="st4" d="M139.2,364.7C72.3,339.2,23.1,274.4,23.1,198.5c0-75.9,49.2-140.6,116.2-166.1"/>
	<line class="st5" x1="396.3" y1="212.1" x2="291.4" y2="212.1"/>
	<path class="st6" d="M139.2,37c0,0-125,49.4-116.1,175.1c8,113.8,116.1,147.5,116.1,147.5"/>
	<g>
		<g>
			<path class="st7" d="M143.4,169.4c-8.3-7.8-14.3,1.4-14.3,1.4c5.5,15.1-2,40.7-11.9,64.2c0,0.1-0.1,0.2-0.1,0.3
				c-1.2,2.7-2.3,5.4-3.5,8.1c-0.2,0.5-0.4,1-0.7,1.5c-0.3,0.6-0.6,1.2-0.8,1.8c-0.2,0.7-0.5,1.3-0.9,1.9
				c-9.3,19.7-18.7,35.8-20.8,39.4c-4.8,8.5,20.2-3.4,20.2-3.4C154.8,218.9,143.4,169.4,143.4,169.4z"/>
			<path class="st7" d="M188.8,278.6c-8.2,1.2-16.4,2.5-24.6,3.6c-4.2,0.6-8.4,1-12.5,1.6c-7.6,1.1-14,3.7-18.6,9.2
				c-3,3.7-6.5,7.1-9.1,11.3c1.2-0.3,2.6-0.5,3.7-1c11.1-5.3,23.3-7.5,35.6-9.1c18.1-2.4,36.2-4.9,54.3-7.2c3.1-0.4,6.3-0.1,9.5,0
				c3.3,0.1,4.9-1,4.7-3.8c-0.2-3.5-0.4-7.1-0.6-10c-9.8,1.3-19.4,2.5-29,3.7C197.7,277.5,193.3,278,188.8,278.6z"/>
			<path class="st7" d="M228.2,302.5L115,314.4c0,0-29.5,9-7,14.7c0,0,81.3-11.6,118.6-12.3C226.7,316.9,235.8,309.1,228.2,302.5z"
				/>
			<path class="st7" d="M201.7,247.1c0,0-11-2.4-31.8,5.1c-20.8,7.6-76.2,40.2-76.9,58.5c0,0-1.3,28.3,37.8-15.1
				c0,0,31.6-36.2,66.9-35.8C233,260.3,201.7,247.1,201.7,247.1z"/>
			<path class="st7" d="M125.6,260.2c0,0,2.1-13,11.8-24.3c9.8-11.2,37.3-52.5,34.8-53.8c-2.4-1.3,15.5,3.9,12.3,8.9
				c-3.2,5-21.4,42.6-43.2,62"/>
			<path class="st7" d="M97.2,57.8"/>
			<g>
				<path class="st4" d="M239.5,274.4c-2.5-0.3-4.7-1.7-7.2-2.3c-1.4-0.4-3.1-0.4-4.6-0.2c-8.5,1.6-17,3.4-25.5,5.1
					c9.6-1.2,19.2-2.5,29-3.7c0.2,2.9,0.4,6.4,0.6,10c0.2,2.8-1.5,4-4.7,3.8c-3.2-0.1-6.4-0.4-9.5,0c-18.1,2.3-36.2,4.8-54.3,7.2
					c-12.4,1.6-24.5,3.9-35.6,9.1c-1.1,0.5-2.5,0.7-3.7,1c2.6-4.2,6.1-7.6,9.1-11.3c4.6-5.5,11-8.1,18.6-9.2c4.2-0.6,8.4-1,12.5-1.6
					c8.2-1.2,16.4-2.4,24.6-3.6c-8.4,0.8-16.8,1.5-25.2,2.5c-6.4,0.7-12.7,1.7-19.1,2.6c-0.2-0.3-0.5-0.6-0.7-0.9
					c5.7-3.6,11.2-7.6,17.3-10.7c6.3-3.2,13.3-5.6,20-8.2c1.2-0.5,2.8-0.9,4-0.7c11.6,2.2,21.6-3.5,32.4-4.9
					c5.5-0.7,10.8-3.3,16.1-5.2c2.7-1,3.4-2.5,2-4.9c-1.8-3.3-4.4-5.2-8.7-5.8c-12.1-1.6-23.4,1.4-34.5,4.7
					c-4.9,1.4-6.2,8.4-2.5,11.6c1.3,1.1,2.8,2.2,3.8,3.1c-4.6,0.3-9.6-0.1-14,1c-4.7,1.1-9.1,3.5-13.5,5.5
					c-14.8,6.8-27,16.1-37.7,26.9c-3.2,3.2-5.9,6.8-9.4,9.8c-4.2,3.7-8.6,7.4-13.6,10.1c-2.5,1.4-6.5,4.1-9.9,0.4
					c-0.5-0.6-0.6-1.5-1.1-2.9c1.9,0.5,2.9,0.8,3.9,1.1c0.3-0.3,0.6-0.5,0.6-0.7c0.1-2.7-1.2-5.9,3.7-6.7
					c3.3-8.8,14.1-11.7,20.2-18.3c6.1-6.7,12.7-13.2,19.9-19c9.3-7.5,19.4-14.4,31.7-18.4c2.5-0.8,5-1.6,7.3-3.1
					c-2.5,0.7-5,1.4-7.5,2c-0.5,0.1-1.3-0.6-2-0.9c-6.2,3.6-12.3,7.2-18.7,10.9c-2-4.3-1.9-7.4,1.2-10.4
					c6.9-6.6,13.8-13.2,20.3-20.1c6.5-6.9,12.6-14,18.9-21c-14.1,14.3-28.2,28.6-43,43.6c-2.4-5-6.3-6.2-11.4-5.5
					c-4.6,0.6-7.2,2.7-8.2,6.6c-0.7,2.7-0.9,5.8-5.8,7.7c1.5-4.5,2.7-8.2,3.9-11.9c-0.2-0.1-0.3-0.2-0.5-0.2c-2,3.8-3.8,7.7-6,11.4
					c-2.8,4.8-4.9,10.2-8.9,14.2c-4.7,4.7-10.9,8.3-16.6,12.3c-1.2,0.9-2.9,1.3-4.4,1.9c-2.7-2.7,1.4-9.4,5.2-10.2
					c1.9-3.9,3.2-7.2,4.9-10.4c5.1-9.2,10.4-18.4,15.7-27.6c0.1-0.1,0.3-0.2,0.3-0.3c-0.4-4.1,1.8-7,7.2-8.7
					c-4.5-2.1-3.1-4.5-2.5-7.1c2.3-9.6,4.1-19.4,6.5-29c1.9-7.2,1.7-14.2-1-21.2c-0.4-1-0.3-2.2-0.6-4c4.9,3.4,9.5,5.4,15.2,1.9
					c-0.2,3.3-0.4,6.2-0.7,9c0.6,0,1.1,0,1.7,0c-0.4-4-0.8-7.9-1-11.9c-0.1-0.7,0.3-1.5,0.5-2.2c2.1-9.9,1.7-19.6-2.9-29.1
					c-1.2-2.5-1.7-5.2-2.6-7.7c-0.9-2.8-1.7-5.7-6.3-7c1.7,2.6,3.1,4.8,4.4,6.8c-2.5-1.9-4.8-3.9-7.4-5.6c-2.7-1.6-4.4-0.7-4.3,2
					c0.3,12.4-1.2,24.8,2.9,37c0.8,2.3,2,4.5-0.9,6.7c-0.8,0.6-0.6,2.8-0.1,4c4.4,9.2,2.3,18.6,0.5,27.7c-2,10.1-5.3,19.9-8.1,29.9
					c-0.1,0.4-0.6,0.8-1.3,1.6c-0.2-0.4-0.4-0.7-0.6-1c-0.1,1.8-0.6,3.5-1.5,5.1c-0.4,2-1.4,3.8-2.6,5.8c-0.3,1.2-0.9,2.4-1.6,3.5
					c-0.4,1.5-1.1,2.8-2,4.1c-0.5,1.9-1.6,3.6-3,5c-0.1,0.4-0.2,0.7-0.3,1.1c-1.6,5.1-5.2,9.7-8.1,14.5c-4.1,6.9-8.3,13.7-12.5,20.5
					c-0.5,0.8-1.4,1.5-2.5,2.5c-2.2-2.7-4.2-5.1-6.2-7.5c-0.2,0.1-0.4,0.2-0.5,0.3c1.7,5.3,3.4,10.7,5.1,16c0.1,0.4,0.3,0.9,0.6,1
					c5,2.1,4.3,5.9,4.4,9.6c0,1,0.5,2.6,1.3,2.8c6.6,2,9.5,6.1,10.6,11.7c0.2,1.2,2.5,2.2,3.8,3.2c1.4,1,3.1,1.7,4.1,2.9
					c1.6,1.8,3.2,3.7,4.8,5.5l0.1-0.1c0.3-0.7,1-0.9,1.7-0.8c-0.8-1.2-1.7-2.5-2.6-3.6c-2-2.4-0.6-3.4,1.5-4
					c6.1-1.5,12.2-3.1,18.4-4c11.3-1.7,22.7-3.1,34.1-4.4c5.5-0.6,11.2-0.6,16.8-1c1.9-0.1,3.9-0.6,5.8-0.7c6-0.4,12-0.7,18-1
					c2.7-0.1,5.4-0.2,8.1-0.3c2.8-0.1,5.7,0,8.5-0.2c2.2-0.2,4.3-0.9,6.3-2.1c-7.3,0.4-14.7,1-22,1.1c-20.2,0.3-40.2,2.1-60.1,5.3
					c-9.1,1.5-18.2,2.7-27.3,4c-1.9,0.3-3.8,1.2-5.7,1.2c-2.2,0-5.3,0-6.2-1.1c-1.4-1.7-5-3.5-2-6.7c0.8,0.9,1.4,1.8,2.5,3.1
					c1.1-2.8,2-5.1,2.9-7.3c0.3,0,0.7,0.1,1,0.2c0.1,1.3,0.2,2.6,0.3,3.8c0.2,0,0.3,0,0.5,0c0.5-1.5,1-2.9,1.4-4.4
					c0.3,0,0.5,0,0.8,0c0.5,2.3,1.1,4.7,1.6,7c0.5,0,1-0.1,1.5-0.1c0-1.2,0.1-2.5-0.2-3.7c-0.8-3.1,0.2-4.9,4.2-5.2
					c8.9-0.8,17.8-1.7,26.6-2.5c2.5-0.2,5-0.4,7.5-0.5c0-0.4-0.1-0.8-0.1-1.2c-12.8,0.7-25.6,1.4-38.8,2.2c3.9-4.8,9.9-7.1,15.7-8.8
					c9.7-2.9,19.6-5.5,29.6-7.2c17.7-2.9,35.6-5.1,53.5-7.5c0.2,0,0.3-0.1,0.4-0.1c10.5,1.6,19.5-3.5,29.4-4.6
					c3.8-0.4,6.9-4.3,7-8.5C248.4,274.8,243.9,274.9,239.5,274.4z M220.5,247.8c2.6,0.2,5.2,0.4,8.6,0.6c-1.8-1.6-3-2.7-4.7-4.1
					c2.5,0.2,4.8-0.1,6.1,0.7c1.9,1.2,3.3,3.1,4.3,4.9c0.2,0.4-3,2.9-4,2.7c-3.8-0.8-7.4-2.4-11-3.7
					C220,248.4,220.2,248.1,220.5,247.8z M133.9,134.9c0.7,0.4,1.5,0.7,2.4,1.1c0.3-0.5,0.5-0.9,0.7-1.2c0.2-0.3,0.5-0.6,0.7-0.9
					c3.9,9.8,5.5,19.4,4.2,29.4c-2.3-10.2-1.8-21-10.3-29.7C132.6,134,133.2,134.5,133.9,134.9z M87.4,303.9
					c-0.8-0.6-1.7-2.2-1.3-2.8c3.2-4.7,5.1-10.1,11.8-12.7c3.9-1.5,7.7-3.7,10.8-6.3c6.4-5.4,12.7-11,18.3-17
					c2.9-3.2,4.5-7.4,5.8-11.3c1.1-3.4,2.7-5.9,6.8-6.9c4.2-1,7.3,0.8,9.2,3.5c2.2,3,2.8,6.6,0.2,9.5c-5.9,6.4-12.2,12.7-18.7,18.7
					c-5.1,4.7-10.9,8.8-16.1,13.4c-6.3,5.5-7.5,5.8-14.6,1.7c1.4,2,4.3,4.2,3.8,5.6c-0.7,2-3.7,3.6-6.2,4.8
					C94.1,305.6,90.5,306,87.4,303.9z"/>
				<path class="st4" d="M137.4,235.9c9-12.9,18-25.8,26.3-39c3.1-4.9,5.7-10.6,6.1-16.1c0.4-5.9,2.2-11,5.2-16.1
					c3.8-6.4,7.9-12.7,11.5-19.2c2.1-3.8,5.7-5,11.3-3.4c4.9,1.4,5.7,3.1,4.2,7.7c-2.4,7.7-3.9,15.6-7.1,23c-3,7-7.7,13.5-11.6,20.3
					c-0.8-2.3-0.8-4.5-2-5.1c-3.3-1.7-7-2.8-10.6-4.1c-6,17.5-30,53-38.4,55.9C134,238.5,136.3,237.5,137.4,235.9z M184,175.2
					c4.3-6.9,9.2-14.8,14.1-22.7c-0.1-0.1-0.1-0.2-0.2-0.3c-1,1-2,2.1-3.1,3.1c-1.1,1.1-2.1,2.1-3.7,3.7c-0.9-3.2-1.6-6-2.2-8.3
					C187.2,159.2,185.5,167.8,184,175.2z M200.5,147.8c1.3-2.7-0.8-4-3.4-5c-3.8-1.4-6.2,0.2-8.1,2.2
					C193.1,146,196.7,146.9,200.5,147.8z"/>
				<path class="st7" d="M194.1,207.9c-6.3,7-12.4,14.1-18.9,21c-6.5,6.9-13.4,13.5-20.3,20.1c-3.1,3-3.2,6.1-1.2,10.4
					c6.4-3.7,12.5-7.3,18.7-10.9l0,0.1c4-4,8.1-7.9,12.1-11.9c2.5-2.7,5.1-5.4,7.6-8.1c6.5-7.4,12.9-14.7,19.6-22.3
					c-3.2-2.1-6.2-4.2-9.4-6.1c-0.7-0.4-2.3,0.4-3.5,0.6C197.1,203.2,195.6,205.5,194.1,207.9z"/>
				<path class="st7" d="M113.8,242.3c1.2-1.9,2.2-3.7,2.6-5.8c-0.2,0.3-0.4,0.6-0.6,0.9c-0.3,1.5-1,3-1.9,4.3
					C113.9,241.9,113.9,242.1,113.8,242.3z"/>
				<path class="st4" d="M198.7,200.8c1.2-0.2,2.8-1,3.5-0.6c3.2,1.8,6.2,4,9.4,6.1c-6.7,7.6-13.2,15-19.6,22.3
					c2.6-2.5,5.2-4.9,7.7-7.5c3.2-3.2,6.5-6.4,9.5-9.8c1.5-1.7,2.3-3.9,3.5-5.9c0.5-0.8,0.9-1.6,1.7-2.1
					c10.7-7.5,19.5-16.5,27.1-26.3c1.5-2,1.9-4.6,2.7-6.9c-3.4-0.2-6.8-0.5-10.2-0.6c-0.4,0-0.9,0.3-1.2,0.5
					c-9.2,8.6-21.9,14.3-28.5,25c-0.7,1.2-2.8,1.6-3.9,2.6C199.5,198.6,199.2,199.8,198.7,200.8z"/>
				<path class="st4" d="M226.7,316.9c0.5-4,0.9-7,1.1-10c0-0.5-0.6-1.3-1.1-1.5c-0.5-0.2-1.5,0.2-1.9,0.6
					C222.8,308,223.3,313.6,226.7,316.9z"/>
				<path class="st4" d="M221.2,304.3c2.3-0.7,3.9-1.1,6.6-1.9c0.9,3.4,1.7,6.6,2.4,9.3c1.9-3.2,1.3-7-2-9.1
					C226,301.1,226,301.1,221.2,304.3z"/>
				<path class="st4" d="M184.4,236.7c-4,4-8.1,7.9-12.1,11.9C176.3,244.6,180.4,240.7,184.4,236.7z"/>
				<path class="st7" d="M103.4,299.2c-0.7,2-3.7,3.6-6.2,4.8c-3.1,1.6-6.7,2-9.8-0.2c-0.8-0.6-1.7-2.2-1.3-2.8
					c3.2-4.7,5.1-10.1,11.8-12.7c3.9-1.5,7.7-3.7,10.8-6.3c6.4-5.4,12.7-11,18.3-17c2.9-3.2,4.5-7.4,5.8-11.3
					c1.1-3.4,2.7-5.9,6.8-6.9c4.2-1,7.3,0.8,9.2,3.5c2.2,3,2.8,6.6,0.2,9.5c-5.9,6.4-12.2,12.7-18.7,18.7
					c-5.1,4.7-10.9,8.8-16.1,13.4c-6.3,5.5-7.5,5.8-14.6,1.7C101,295.6,103.9,297.8,103.4,299.2z M146.9,259.2
					c0.7-0.5,1.1-1.5,1.1-2.3c0.3-2.2-7.2-7.5-9.7-7.1c-3,0.6-4.2,5.6-1.9,8.3C138.5,260.8,144.2,261.4,146.9,259.2z"/>
				<path class="st7" d="M141.9,163.3c1.3-9.9-0.4-19.6-4.2-29.4c-0.3,0.3-0.5,0.6-0.7,0.9c-0.2,0.3-0.4,0.6-0.7,1.2
					c-0.9-0.4-1.7-0.7-2.4-1.1c-0.7-0.4-1.3-0.9-2.2-1.3C140.2,142.3,139.6,153.1,141.9,163.3z"/>
				<path class="st7" d="M219.7,248.8c3.7,1.3,7.2,2.9,11,3.7c1.1,0.2,4.2-2.3,4-2.7c-1-1.8-2.4-3.7-4.3-4.9
					c-1.3-0.8-3.6-0.5-6.1-0.7c1.7,1.5,2.9,2.5,4.7,4.1c-3.4-0.3-6-0.4-8.6-0.6C220.2,248.1,220,248.4,219.7,248.8z"/>
				<path class="st7" d="M188.9,150.8c-1.7,8.5-3.4,17.1-4.9,24.5c4.3-6.9,9.2-14.8,14.1-22.7c-0.1-0.1-0.1-0.2-0.2-0.3
					c-1,1-2,2.1-3.1,3.1c-1.1,1.1-2.1,2.1-3.7,3.7C190.3,155.8,189.6,153.1,188.9,150.8z"/>
				<path class="st7" d="M189,145c4,1,7.7,1.9,11.5,2.8c1.3-2.7-0.8-4-3.4-5C193.4,141.4,190.9,143,189,145z"/>
				<path class="st4" d="M136.4,258.2c2.1,2.6,7.8,3.2,10.5,1c0.7-0.5,1.1-1.5,1.1-2.3c0.3-2.2-7.2-7.5-9.7-7.1
					C135.3,250.4,134.2,255.5,136.4,258.2z"/>
			</g>
		</g>
		<path class="st7" d="M78.1,289.2l6,7.8c0,0,29.3-48.8,32.4-62.7c0.1-0.3,0.1-0.6,0.2-0.9c0,0,3,3.4,11.5-46.6
			c0,0,0.5-9.2-2.6-13.1c-3.1-3.9,1.3-5.5,1.3-5.5s1.2,0.4-0.4-5.6c-1.5-5.9-6.8-29.6-1.4-40.9l9.7,6.6l-4.3-7c0,0,4.5,1.6,6.1,7.2
			c1.6,5.6,2-11.5-13.1-8.6c0,0-7.9-1.5,0.2,39.1l0.9,6.2c0,0-4.2,3.3-1.8,10c2.5,6.7,9.3,41.3-38.4,117.8
			C84.5,293.2,83.2,292.1,78.1,289.2z"/>
	</g>
</g>
<g>
	<path class="st8" d="M438.2,147.6h5.1c4.6,0,8.3,1.1,11,3.3c2.7,2.2,4.1,5.3,4.1,9.2c0,4.1-1.8,7.4-5.3,9.8
		c1.9,1.1,3.4,2.2,4.3,3.6c1.3,1.9,2,4.1,2,6.7c0,2.6-0.6,4.9-1.9,7c-1,1.5-2.6,2.9-4.9,4c-2.3,1.2-5,1.7-8.2,1.7h-6.1V147.6z
		 M446.2,154.1v12.7c2.7-0.9,4-3,4-6.3c0-2-0.5-3.6-1.5-4.8C448,154.8,447.2,154.3,446.2,154.1z M446.2,173.4v13
		c1.3-0.3,2.5-1,3.4-2.1c0.9-1.1,1.4-2.5,1.4-4.2c0-1.5-0.4-2.8-1.3-4C448.8,174.8,447.7,174,446.2,173.4z"/>
	<path class="st8" d="M469.2,162.7c0.3-0.3,0.5-0.8,0.8-1.4c0.8-1.6,1.6-2.6,2.6-3.1c0.7-0.4,1.7-0.5,3-0.5v6.6
		c-1.8,0.4-3.2,1-4.2,2.1c-1.5,1.5-2.2,2.7-2.2,3.7v22.9h-7v-28.6c0-1.1-0.5-2-1.6-2.7l4.2-3.9c1.4,0.4,2.4,0.9,3,1.6
		C468.5,159.9,468.9,161,469.2,162.7z"/>
	<path class="st8" d="M485.5,190.2c-1.5,2-3.1,3-4.7,3c-1.6,0-3-0.7-4-2.1c-1.7-2.2-2.5-6.7-2.5-13.4v-4.2c0-5.5,1.5-9.6,4.6-12.6
		c2.3-2.2,5.5-3.3,9.4-3.3h3.2v26.1c0,1.6,0.2,2.7,0.5,3.4s0.7,1.2,1.3,1.6l-4,4.5c-0.8-0.2-1.5-0.5-2.1-0.9
		C486.6,191.9,486.1,191.2,485.5,190.2z M484.5,164.3c-1.1,0.5-1.9,1.2-2.5,2.3s-0.8,3.3-0.8,6.5v6.4c0,4.1,0.4,6.7,1.1,7.9
		c0.3,0.5,0.7,0.7,1.1,0.7c0.5,0,0.8-0.1,1.1-0.4V164.3z"/>
	<path class="st8" d="M495.1,158h13l-5.7,30.8h5.7v4.1h-13.2l5.8-30.8h-5.5V158z"/>
	<path class="st8" d="M514,147.2c1.1,0,2.1,0.3,2.9,0.9c0.8,0.6,1.2,1.3,1.2,2.2c0,0.9-0.4,1.6-1.2,2.2c-0.8,0.6-1.8,0.9-2.9,0.9
		c-1.1,0-2.1-0.3-2.9-0.9c-0.8-0.6-1.2-1.3-1.2-2.2c0-0.9,0.4-1.6,1.2-2.2C511.9,147.5,512.9,147.2,514,147.2z M510.5,158h7v34.8h-7
		V158z"/>
	<path class="st8" d="M520.9,147.6h7v38.1c0,1.1,0.2,1.9,0.5,2.4c0.3,0.5,0.9,0.9,1.7,1.2l-5.3,3.9c-1.3-0.3-2.2-0.9-2.9-1.6
		c-0.6-0.7-1-1.8-1-3.1V147.6z"/>
</g>
<g>
	<path class="st8" d="M445.5,395.1l46.3-173.4h-66.7v-23.2h106.7l-54.6,202L445.5,395.1z"/>
</g>
</svg>
