<?xml version="1.0" encoding="utf-8"?>
<!-- Generator: Adobe Illustrator 22.0.0, SVG Export Plug-In . SVG Version: 6.00 Build 0)  -->
<svg version="1.1" id="Layer_1" xmlns="http://www.w3.org/2000/svg" xmlns:xlink="http://www.w3.org/1999/xlink" x="0px" y="0px"
	 viewBox="0 0 162.8 157.4" style="enable-background:new 0 0 162.8 157.4;" xml:space="preserve">
<style type="text/css">
	.st0{fill:#17153F;stroke:#FFFFFF;stroke-width:2.8943;stroke-miterlimit:10;}
	.st1{fill:#861A21;}
	.st2{fill:#FFFFFF;}
</style>
<g>
	<path class="st0" d="M156.1,108.8c3.7-9.4,5.5-19.6,5.3-30.3c-1.1-43.7-37.8-78.1-82-77C35.3,2.6,0.4,38.9,1.5,82.6
		c0.3,10.7,2.7,20.8,6.8,30L156.1,108.8z"/>
	<path class="st1" d="M10.1,114.4c13.6,26.2,41.5,43.8,73.2,43c31.8-0.8,58.7-19.8,71-46.7L10.1,114.4z"/>
	<g>
		<path class="st2" d="M117.4,61.1c0,0-26.7,14.2-43.1,56c0,0,2.5,14.2,4.9,9.1c2.4-5.1,23.8-51.8,42.1-59.1
			C121.3,67.2,123.7,61.4,117.4,61.1z"/>
		<path class="st2" d="M52.1,84.5c2.1,3.6,4.1,7.3,6.2,10.9c1.1,1.8,2.2,3.6,3.3,5.4c1.9,3.3,2.8,6.8,1.7,10.6
			c-0.7,2.6-1.2,5.2-2.4,7.8c-0.2-0.6-0.6-1.2-0.7-1.8c-1.1-6.3-4-11.8-7.2-17.2c-4.7-7.9-9.3-15.9-14.1-23.8
			c-0.8-1.4-2-2.5-3.1-3.7s-1.1-2.3,0.3-3.3c1.7-1.3,3.4-2.5,4.8-3.5c2.6,4.3,5.1,8.5,7.6,12.7C49.7,80.6,50.9,82.6,52.1,84.5z"/>
		<path class="st2" d="M28.3,78.2L59,126.6c0,0,5.2,14.8-4.6,8.2c0,0-20.6-35.9-32.3-50.6C22.1,84.2,22.8,77.7,28.3,78.2z"/>
		<path class="st2" d="M62.6,67.7c0,0,4.7,3.4,7.8,14.3c3.1,10.9,5.7,44.6-2.6,51.8c0,0-12.8,11.1-5.1-20.3c0,0,6.7-25.8-4.8-39.4
			S62.6,67.7,62.6,67.7z"/>
		<path class="st2" d="M80.9,102.1c0,0,5.4-5.7,7.5-13.7s12.5-34.2,13.9-33.7s-6.8-4.6-8.1-1.4c-1.3,3.1-12.9,24.3-15,40"/>
		<g>
			<path class="st1" d="M134.9,95.4c0.4-0.9,0-2.1,0.1-3.1c-0.1,0.7-0.2,1.5-0.3,2.3c-2.3-1.7-4.5-0.2-6.6,4.2
				c-4.5-3.1-9.5-1.7-14.3-1.2c-0.5,0.1-1.1,0-1.6,0c-2.4,0.1-4.8-0.1-7.3,0.8c-3.2,1.1-6.6,1.6-9.7,3.1c-0.5,0.3-1.5-0.3-2.5-0.6
				c1.1-2.2,1.7-4.3,4-5.4c9.4-4.6,19.3-6,29.6-4.7c2.7,0.4,5.5,0.8,8.2,1.3c-1.8-0.6-3.5-1.3-5.4-1.7C118.4,88.6,107.9,89,98,94
				c-0.5,0.2-1.1,0.3-1.9,0.5c0.1-0.6,0.1-0.9,0.3-1.1c3.7-4.8,7.2-9.8,11.3-14.4c3.7-4.1,7.4-8.4,13.1-10.2c0.7-0.2,1.8-1,1.9-1.5
				c0.1-1.9,1.5-2.3,2.8-2.9c7-2.9,12.3-8.2,18.2-12.7c1.3-1,1.2-2-0.4-2.4c-1.6-0.4-3.3-0.5-5-0.8c1.4-0.3,2.8-0.5,4.6-0.9
				c-2-1.3-3.6-0.5-5.3,0.2c-1.5,0.6-2.9,1.5-4.4,1.9c-5.9,1.8-10.5,5.3-14.5,9.8c-0.3,0.3-0.5,0.8-0.9,1c-1.9,1.4-3.9,2.7-5.9,4.1
				c0.2,0.2,0.3,0.4,0.5,0.7c1.3-1.1,2.5-2.3,4-3.6c0.2,3.5,2.6,4.5,5.8,5.2c-0.9,0.6-1.4,1-2.1,1.3c-4.1,1.6-7.4,4.1-10.2,7.6
				c-3.7,4.6-7.7,8.9-11.4,13.4c-1,1.2-1.7,2.7-4.1,1.7c1,2.7,0.3,4.7-1.7,6.1v0.2c-2.6,5.5-5.2,11-7.8,16.4c-0.9,1.9-2,3.6-3.3,5.8
				c0.9,1.8-0.9,5.9-3.1,5.9c-0.2-0.8-0.5-1.6-0.5-2.4c0-3.7-0.3-7.5,0.4-11c0.6-3.1,2.4-5.9,3.7-8.8c1.1-2.2,2.3-4.4,3.4-6.6
				c-0.1,0-0.2-0.1-0.3-0.1c-1.3,1.9-2.7,3.7-4.3,6c-0.7-2.6,0.7-3.9,1.7-5.1c1.5-1.9,1.6-3.6,0.4-5.7c-1.3-2.3-3.1-3.3-6.2-2.4
				c2.2-11.3,4.4-22.2,6.5-33c-1.2,5.1-2.6,10.1-3.7,15.2s-2,10.3-2.8,15.4c-0.4,2.3-1.8,3.5-4.4,4.4c-0.3-3.9-0.6-7.6-0.9-11.4
				c-0.4-0.1-0.9-0.2-1.1-0.4c-0.6-1.2-1-2.4-1.5-3.7c0,1.4,0.4,2.7,0.9,4c2.1,6.3,2.1,12.8,1.6,19.2c-0.4,5-1.3,10-2.4,14.9
				c-1.2,4.9,0.9,10.1-2.1,14.7c1.2,2.2-0.7,2.9-1.9,4c-0.1,0.1-0.1,0.3-0.1,0.5c0.5,0.3,0.9,0.6,1.8,1.1c-0.8,0.3-1.3,0.7-1.7,0.7
				c-2.8,0.1-2.8-2.5-3-4c-0.3-3,0-6.1,0.4-9.1c0.3-2.5,1.1-4.9,1.6-7.3c1.6-8.2,2-16.5,0.4-24.7c-0.5-2.5-0.8-5-1.8-7.3
				c-0.9-2.1-2.7-3.9-4-5.8c0.7,0.1,1.7,0.2,2.7,0.3c2.6,0.3,5.5-2.9,4.6-5.3c-2.1-5.5-4.2-11-8.9-15.2c-1.7-1.5-3.4-1.7-5.5-1.2
				c-1.6,0.4-2.1,1.2-1.6,2.6c0.8,2.8,1.3,5.8,2.7,8.2c2.8,4.7,3.4,10.7,8.1,14.4c0.5,0.4,0.8,1.2,0.9,1.8c0.9,3.6,2.1,7.2,2.6,10.9
				c0.5,3.5,0.4,7.1,0.6,10.7c-0.2,0-0.4,0-0.6,0.1c-1.6-2.8-3.2-5.6-4.9-8.4c-2.2-3.6-4.6-7.2-6.9-10.7c2.1,3.6,4.1,7.3,6.2,10.9
				c1.1,1.8,2.2,3.6,3.3,5.4c1.9,3.3,2.8,6.8,1.7,10.6c-0.7,2.6-1.2,5.2-2.4,7.8c-0.2-0.6-0.6-1.2-0.7-1.8c-1.1-6.3-4-11.8-7.2-17.2
				c-4.7-7.9-9.3-15.9-14.1-23.8c-0.8-1.4-2-2.5-3.1-3.7s-1.1-2.3,0.3-3.3c1.7-1.3,3.4-2.5,4.8-3.5c2.6,4.3,5.1,8.5,7.6,12.7
				C46.9,75,45,71,43,67.1c-0.3-0.7-0.9-1.3-1.5-1.7c-1.1-0.7-2.5-1.1-3.4-1.9c-1.7-1.5-3.1-3.3-4.6-5c-1.9,1.6-2.7,4.3-1.7,5.9
				c2.6,4.3,3.1,9.7,7.3,13.1c0.1,0,0.1,0.1,0.1,0.2c4.6,7.8,9.3,15.6,13.6,23.6c2.4,4.5,4.4,9.4,6.1,14.2c1,2.9,1.9,6,0.9,9.4
				c-3.9-5.4-7.6-10.6-11.4-15.9c-0.2,0.1-0.4,0.3-0.6,0.4c0.7,1,1.5,2.1,2.2,3.1c2.5,3.7,4.9,7.5,7.4,11.3c1.1,1.7,0.6,2.8-1.1,3.6
				c-0.7,0.3-1.2,0.9-1.8,1.3c0.1,0.2,0.3,0.4,0.4,0.6c1.3-0.7,2.5-1.3,3.8-2c0.1,0.1,0.2,0.2,0.3,0.3c-0.5,0.7-1.1,1.5-1.6,2.2
				c0.1,0.1,0.1,0.1,0.2,0.2c0.6-0.4,1.3-0.9,1.9-1.3c0.1,0.1,0.3,0.2,0.4,0.3c-0.8,1.2-1.5,2.4-2.5,3.9c0.9-0.1,1.6-0.1,2.2-0.2
				c-0.5,2.4-2.5,1.7-3.8,1.8c-0.8,0.1-1.8-1.1-2.5-2c-0.6-0.7-0.8-1.8-1.3-2.7c-2.3-4-4.6-8-6.9-12.1c-4.9-8.9-10.5-17.3-16.8-25.3
				c-2.3-2.9-4.4-6-6.5-8.9c0.1,1.2,0.4,2.3,1,3.2c0.8,1.2,1.7,2.3,2.6,3.4c0.8,1.1,1.7,2.2,2.5,3.3c1.8,2.4,3.6,4.9,5.3,7.4
				c0.6,0.8,1,1.7,1.5,2.5c1.6,2.3,3.4,4.5,4.9,6.9c3.1,4.9,6,9.9,8.9,14.9c1.6,2.8,2.8,5.7,4,8.7c0.4,1,0.4,2-1.4,2.1
				c-0.8,0.1-1.7,0.2-2.5,0.3c0.3,0.2,0.4,0.6,0.2,0.9v0.1c1.4-0.1,2.7-0.2,4.1-0.2c0.9,0,1.8,0.4,2.7,0.5c0.9,0.2,2.1,0.7,2.7,0.3
				c2.9-1.7,5.8-2.1,8.8-0.3c0.3,0.2,1.3-0.2,1.7-0.6c1.7-1.3,3.3-3.1,5.9-1.9c0.2,0.1,0.4-0.1,0.7-0.2c3-1.3,6.1-2.7,9.1-4
				c0-0.1,0-0.2,0-0.3c-1.8,0.1-3.5,0.3-5.5,0.4c0.1-0.8,0.2-1.4,0.4-1.9c1.8-4.2,3.6-8.4,5.5-12.6c1.3-2.9,2.3-6,4.2-8.6
				c3.1-4.2,7.9-6,12.9-7c5.1-1.1,10.3-1.8,15.5-2.3c3-0.3,6.3-0.3,9.1,0.5C130.3,100.2,133.2,99.4,134.9,95.4z M120.7,59.4
				c4.2-4.2,9.2-7.2,15-9.4c-0.1,0.2-0.1,0.4-0.2,0.6c-0.1,0.2-0.2,0.4-0.3,0.7c0.5,0.2,0.9,0.4,1.3,0.5c0.4,0.1,0.9,0.2,1.3,0.4
				C131.1,52.2,126.2,56.5,120.7,59.4z M50.8,58.4c-0.4-0.3-0.3-2.5-0.1-2.6c1.2-0.3,2.5-0.5,3.7-0.2c0.8,0.2,1.4,1.2,2.3,2.1
				c-1.2-0.1-2.1-0.2-3.4-0.3c1.2,1.2,2.1,2.2,3,3.1c-0.1,0.2-0.2,0.4-0.2,0.6C54.3,60.4,52.4,59.6,50.8,58.4z M72.8,133.3
				c-2-0.4-2.9-2-3.2-3.8c-0.2-1.4-0.4-3.2,0.3-4.2c0.5-0.7,2.5-0.5,3.8-0.6c-4.2-1.2-4.5-1.8-3.9-6.3c0.5-3.7,0.5-7.6,1.1-11.3
				c0.7-4.8,1.6-9.6,2.7-14.3c0.5-2.1,2.4-3.2,4.5-3.5c1.9-0.3,3.7,0.2,4.6,2.3c0.9,2,0.2,3.5-1,5.2c-1.4,2-2.9,4.2-3.4,6.5
				c-1,4.4-1.6,9-2.1,13.5c-0.2,2.2,0,4.5,0.5,6.6c0.9,3.6-1,6.3-2.1,9.4C74.4,133.1,73.3,133.4,72.8,133.3z"/>
			<path class="st1" d="M88.2,91.8c-1.4-4.4,7.5-27,13.7-35.9c-1.8-0.9-3.5-2-5.3-2.6c-0.7-0.2-1.7,0.6-3,1.2
				c1.9-4.1,3.4-8.3,5.7-12.1c2.4-4,5.6-7.6,8.4-11.4c1.7-2.3,2.8-2.7,4.9-1.3c2.6,1.6,3.1,3.4,2,5.7c-1.8,3.8-3.5,7.8-5.2,11.7
				c-1.4,3-3.2,5.7-5.8,8c-2.4,2.2-4.2,5.3-5.6,8.4c-3.5,8.2-6.6,16.5-9.7,24.8C88,89.4,88.3,90.7,88.2,91.8z M111.5,36.5
				c-1.3,0.6-2.8,1.4-4.6,2.3c0.2-1.2,0.4-2,0.5-2.9c0.2-0.8,0.3-1.6,0.5-2.4c-0.1,0-0.1,0-0.2,0.1c-2.1,4.9-4.2,9.8-6.1,14
				C104.7,44.2,108.1,40.3,111.5,36.5z M114.1,34.3c0.3-1.5,0.3-3-1.6-4c-1.3-0.6-2.6-1-3.4,0.6C110.8,32,112.4,33.1,114.1,34.3z"/>
			<path class="st2" d="M83.3,55.9C82.1,61,80.7,66,79.6,71.1s-2,10.3-2.8,15.4c-0.4,2.3-1.8,3.5-4.4,4.4c-0.3-3.9-0.6-7.6-0.9-11.4
				v0.1c0.5-3.1,1.1-6.1,1.6-9.2c0.5-2,0.9-4,1.4-6c1.4-5.3,2.7-10.5,4.1-16c2,0.5,4,0.8,5.8,1.4c0.4,0.1,0.6,1,0.8,1.6
				C84.5,52.9,83.9,54.4,83.3,55.9z"/>
			<path class="st2" d="M134.9,92.3c-0.1,0.7-0.2,1.5-0.3,2.3c-2.3-1.7-4.5-0.2-6.6,4.2c-4.5-3.1-9.5-1.7-14.3-1.2
				c-0.5,0.1-1.1,0-1.6,0c-2.4,0.1-4.8-0.1-7.3,0.8c-3.2,1.1-6.6,1.6-9.7,3.1c-0.5,0.3-1.5-0.3-2.5-0.6c1.1-2.2,1.7-4.3,4-5.4
				c9.4-4.6,19.3-6,29.6-4.7c2.7,0.4,5.5,0.8,8.2,1.3C134.6,92.1,134.7,92.2,134.9,92.3z"/>
			<path class="st1" d="M85.1,51.5c-0.3-0.6-0.4-1.5-0.8-1.6c-1.9-0.6-3.8-0.9-5.8-1.4c-1.4,5.5-2.8,10.7-4.1,16
				c0.3-1.9,0.6-3.9,1-5.8c0.5-2.5,0.9-4.9,1.5-7.3c0.3-1.2,1.1-2.4,1.6-3.6c0.2-0.5,0.4-1,0.4-1.5c0.1-7,1.4-13.7,3.6-20.4
				c0.4-1.3,1.5-2.4,2.3-3.6c1.2,1.2,2.4,2.5,3.6,3.7c0.1,0.1,0.2,0.4,0.1,0.7c-1,6.8,0.4,13.9-2.5,20.5c-0.3,0.7,0.2,1.7,0,2.5
				C85.9,50.3,85.4,50.9,85.1,51.5z"/>
			<path class="st1" d="M22.1,84.2c1.7-1.7,3-3,4.3-4.2c0.2-0.2,0.8-0.2,1-0.1s0.4,0.6,0.3,0.9C27.5,82.3,24.7,84.3,22.1,84.2z"/>
			<path class="st1" d="M29.7,81.6c-0.4-1.2-0.7-1.9-1.2-3.3c-1.9,0.9-3.6,1.8-5.1,2.6c0.9-2,2.8-3.1,4.9-2.6
				C29.7,78.5,29.7,78.5,29.7,81.6z"/>
			<path class="st1" d="M73,70.5c-0.5,3.1-1.1,6.1-1.6,9.2C71.9,76.6,72.4,73.5,73,70.5z"/>
			<path class="st2" d="M73.7,124.7c-4.2-1.2-4.5-1.8-3.9-6.3c0.5-3.7,0.5-7.6,1.1-11.3c0.7-4.8,1.6-9.6,2.7-14.3
				c0.5-2.1,2.4-3.2,4.5-3.5c1.9-0.3,3.7,0.2,4.6,2.3c0.9,2,0.2,3.5-1,5.2c-1.4,2-2.9,4.2-3.4,6.5c-1,4.4-1.6,9-2.1,13.5
				c-0.2,2.2,0,4.5,0.5,6.6c0.9,3.6-1,6.3-2.1,9.4c-0.1,0.4-1.2,0.7-1.7,0.5c-2-0.4-2.9-2-3.2-3.8c-0.2-1.4-0.4-3.2,0.3-4.2
				C70.3,124.6,72.3,124.9,73.7,124.7z M78.3,97.2c2-0.1,4-2.5,3.3-3.9c-0.6-1.1-5.5-2-6.4-1.1c-0.3,0.3-0.7,0.9-0.7,1.3
				C74.4,95.4,76.5,97.3,78.3,97.2z"/>
			<path class="st2" d="M120.7,59.4c4.2-4.2,9.2-7.2,15-9.4c-0.1,0.2-0.1,0.4-0.2,0.6c-0.1,0.2-0.2,0.4-0.3,0.7
				c0.5,0.2,0.9,0.4,1.3,0.5c0.4,0.1,0.9,0.2,1.3,0.4C131.1,52.2,126.2,56.5,120.7,59.4z"/>
			<path class="st2" d="M56,61.3c-1.8-0.9-3.7-1.7-5.3-2.9c-0.4-0.3-0.3-2.5-0.1-2.6c1.2-0.3,2.5-0.5,3.7-0.2
				c0.8,0.2,1.4,1.2,2.3,2.1c-1.2-0.1-2.1-0.2-3.4-0.3c1.2,1.2,2.1,2.2,3,3.1C56.2,60.9,56.1,61.1,56,61.3z"/>
			<path class="st2" d="M111.5,36.5c-3.4,3.8-6.8,7.7-9.8,11.1c1.8-4.2,3.9-9.1,6.1-14c0.1,0,0.1,0,0.2-0.1
				c-0.2,0.8-0.3,1.6-0.5,2.4c-0.2,0.8-0.3,1.6-0.5,2.9C108.7,37.8,110.2,37.1,111.5,36.5z"/>
			<path class="st2" d="M114.1,34.3c-1.7-1.2-3.3-2.3-5-3.4c0.8-1.5,2.1-1.2,3.4-0.6C114.4,31.2,114.5,32.8,114.1,34.3z"/>
			<path class="st1" d="M78.3,97.2c-1.9,0.1-4-1.8-3.9-3.7c0-0.5,0.4-1,0.7-1.3c0.9-0.9,5.8,0,6.4,1.1C82.3,94.7,80.3,97,78.3,97.2z
				"/>
		</g>
	</g>
</g>
</svg>
