<?xml version="1.0" encoding="utf-8"?>
<!-- Generator: Adobe Illustrator 22.0.0, SVG Export Plug-In . SVG Version: 6.00 Build 0)  -->
<svg version="1.1" id="Layer_1" xmlns="http://www.w3.org/2000/svg" xmlns:xlink="http://www.w3.org/1999/xlink" x="0px" y="0px"
	 viewBox="0 0 608.6 188.9" style="enable-background:new 0 0 608.6 188.9;" xml:space="preserve">
<style type="text/css">
	.st0{fill:#861A21;}
	.st1{fill-rule:evenodd;clip-rule:evenodd;fill:#17153F;stroke:#FFFFFF;stroke-width:2.8943;stroke-miterlimit:10;}
	.st2{fill-rule:evenodd;clip-rule:evenodd;fill:#861A21;}
	.st3{fill-rule:evenodd;clip-rule:evenodd;fill:#FFFFFF;}
	.st4{fill:#17153F;stroke:#FFFFFF;stroke-width:1.4472;stroke-miterlimit:10;}
	.st5{fill:#17153F;}
	.st6{fill:#FFFFFF;}
</style>
<g>
	<path class="st0" d="M263.3,140.8v28.9c-7.7,1.9-14.5,2.8-20.6,2.8c-21,0-38-6-51.1-18c-13.1-12-19.6-27.7-19.6-47.3
		c0-18.1,6.6-33.1,19.8-44.9c13.2-11.8,29.8-17.7,49.9-17.7c7.8,0,15,0.8,21.6,2.4v28.9c-6.9-1.8-13.5-2.6-19.6-2.6
		c-9.4,0-17.2,3.3-23.5,9.8c-6.2,6.6-9.3,14.9-9.3,25c0,10.9,3.1,19.6,9.4,25.9c6.3,6.3,14.6,9.5,25.1,9.5
		C250.4,143.5,256.4,142.6,263.3,140.8z"/>
	<path class="st0" d="M279.6,47.9h36.9c21.5,0,36.9,3.2,46.3,9.6C372.3,64,377,72.1,377,82c0,10.7-6.9,19.3-20.6,25.8
		c15.6,4.7,23.4,13.6,23.4,26.7c0,10.5-4.8,19-14.5,25.4c-9.7,6.4-22.4,9.6-38.2,9.6h-47.4V47.9z M315.9,71.2v26.2
		c16.2-0.3,24.3-4.6,24.3-12.8c0-4.9-1.9-8.3-5.8-10.3C330.5,72.4,324.4,71.4,315.9,71.2z M315.9,119.5v26.3
		c9.2-0.1,16.1-1.2,20.7-3.2c4.6-2,6.9-5.4,6.9-10.1c0-8.7-8.2-13-24.6-13H315.9z"/>
	<g>
		<path class="st1" d="M156.1,132.5c3.7-9.4,5.5-19.6,5.3-30.3c-1.1-43.7-37.8-78.1-82-77c-44.1,1.1-79,37.4-77.9,81.1
			c0.3,10.7,2.7,20.8,6.8,30L156.1,132.5z"/>
		<path class="st2" d="M10.1,138.1c13.6,26.2,41.5,43.8,73.2,43c31.8-0.8,58.7-19.8,71-46.7L10.1,138.1z"/>
		<g>
			<path class="st3" d="M117.4,84.8c0,0-26.7,14.2-43.1,56c0,0,2.5,14.2,4.9,9.1c2.4-5.1,23.8-51.8,42.1-59.1
				C121.3,90.9,123.7,85.1,117.4,84.8z"/>
			<path class="st3" d="M52.1,108.2c2.1,3.6,4.1,7.3,6.2,10.9c1.1,1.8,2.2,3.6,3.3,5.4c1.9,3.3,2.8,6.8,1.7,10.6
				c-0.7,2.6-1.2,5.2-2.4,7.8c-0.2-0.6-0.6-1.2-0.7-1.8c-1.1-6.3-4-11.8-7.2-17.2c-4.7-7.9-9.3-15.9-14.1-23.8
				c-0.8-1.4-2-2.5-3.1-3.7c-1.1-1.2-1.1-2.3,0.3-3.3c1.7-1.3,3.4-2.5,4.8-3.5c2.6,4.3,5.1,8.5,7.6,12.7
				C49.7,104.3,50.9,106.3,52.1,108.2z"/>
			<path class="st3" d="M28.3,101.9L59,150.3c0,0,5.2,14.8-4.6,8.2c0,0-20.6-35.9-32.3-50.6C22.1,107.9,22.8,101.4,28.3,101.9z"/>
			<path class="st3" d="M62.6,91.4c0,0,4.7,3.4,7.8,14.3c3.1,10.9,5.7,44.6-2.6,51.8c0,0-12.8,11.1-5.1-20.3c0,0,6.7-25.8-4.8-39.4
				C46.4,84.2,62.6,91.4,62.6,91.4z"/>
			<path class="st3" d="M80.9,125.8c0,0,5.4-5.7,7.5-13.7c2.1-8,12.5-34.2,13.9-33.7c1.4,0.5-6.8-4.6-8.1-1.4
				c-1.3,3.1-12.9,24.3-15,40"/>
			<path class="st3" d="M184.1,60.9"/>
			<g>
				<path class="st2" d="M134.9,119.1c0.4-0.9,0-2.1,0.1-3.1c-0.1,0.7-0.2,1.5-0.3,2.3c-2.3-1.7-4.5-0.2-6.6,4.2
					c-4.5-3.1-9.5-1.7-14.3-1.2c-0.5,0.1-1.1,0-1.6,0c-2.4,0.1-4.8-0.1-7.3,0.8c-3.2,1.1-6.6,1.6-9.7,3.1c-0.5,0.3-1.5-0.3-2.5-0.6
					c1.1-2.2,1.7-4.3,4-5.4c9.4-4.6,19.3-6,29.6-4.7c2.7,0.4,5.5,0.8,8.2,1.3c-1.8-0.6-3.5-1.3-5.4-1.7c-10.7-1.8-21.2-1.4-31.1,3.6
					c-0.5,0.2-1.1,0.3-1.9,0.5c0.1-0.6,0.1-0.9,0.3-1.1c3.7-4.8,7.2-9.8,11.3-14.4c3.7-4.1,7.4-8.4,13.1-10.2c0.7-0.2,1.8-1,1.9-1.5
					c0.1-1.9,1.5-2.3,2.8-2.9c7-2.9,12.3-8.2,18.2-12.7c1.3-1,1.2-2-0.4-2.4c-1.6-0.4-3.3-0.5-5-0.8c1.4-0.3,2.8-0.5,4.6-0.9
					c-2-1.3-3.6-0.5-5.3,0.2c-1.5,0.6-2.9,1.5-4.4,1.9c-5.9,1.8-10.5,5.3-14.5,9.8c-0.3,0.3-0.5,0.8-0.9,1c-1.9,1.4-3.9,2.7-5.9,4.1
					c0.2,0.2,0.3,0.4,0.5,0.7c1.3-1.1,2.5-2.3,4-3.6c0.2,3.5,2.6,4.5,5.8,5.2c-0.9,0.6-1.4,1-2.1,1.3c-4.1,1.6-7.4,4.1-10.2,7.6
					c-3.7,4.6-7.7,8.9-11.4,13.4c-1,1.2-1.7,2.7-4.1,1.7c1,2.7,0.3,4.7-1.7,6.1c0,0,0,0.2,0,0.2c-2.6,5.5-5.2,11-7.8,16.4
					c-0.9,1.9-2,3.6-3.3,5.8c0.9,1.8-0.9,5.9-3.1,5.9c-0.2-0.8-0.5-1.6-0.5-2.4c0-3.7-0.3-7.5,0.4-11c0.6-3.1,2.4-5.9,3.7-8.8
					c1.1-2.2,2.3-4.4,3.4-6.6c-0.1,0-0.2-0.1-0.3-0.1c-1.3,1.9-2.7,3.7-4.3,6c-0.7-2.6,0.7-3.9,1.7-5.1c1.5-1.9,1.6-3.6,0.4-5.7
					c-1.3-2.3-3.1-3.3-6.2-2.4c2.2-11.3,4.4-22.2,6.5-33c-1.2,5.1-2.6,10.1-3.7,15.2c-1.1,5.1-2,10.3-2.8,15.4
					c-0.4,2.3-1.8,3.5-4.4,4.4c-0.3-3.9-0.6-7.6-0.9-11.4c-0.4-0.1-0.9-0.2-1.1-0.4c-0.6-1.2-1-2.4-1.5-3.7c0,1.4,0.4,2.7,0.9,4
					c2.1,6.3,2.1,12.8,1.6,19.2c-0.4,5-1.3,10-2.4,14.9c-1.2,4.9,0.9,10.1-2.1,14.7c1.2,2.2-0.7,2.9-1.9,4c-0.1,0.1-0.1,0.3-0.1,0.5
					c0.5,0.3,0.9,0.6,1.8,1.1c-0.8,0.3-1.3,0.7-1.7,0.7c-2.8,0.1-2.8-2.5-3-4c-0.3-3,0-6.1,0.4-9.1c0.3-2.5,1.1-4.9,1.6-7.3
					c1.6-8.2,2-16.5,0.4-24.7c-0.5-2.5-0.8-5-1.8-7.3c-0.9-2.1-2.7-3.9-4-5.8c0.7,0.1,1.7,0.2,2.7,0.3c2.6,0.3,5.5-2.9,4.6-5.3
					c-2.1-5.5-4.2-11-8.9-15.2c-1.7-1.5-3.4-1.7-5.5-1.2c-1.6,0.4-2.1,1.2-1.6,2.6c0.8,2.8,1.3,5.8,2.7,8.2
					c2.8,4.7,3.4,10.7,8.1,14.4c0.5,0.4,0.8,1.2,0.9,1.8c0.9,3.6,2.1,7.2,2.6,10.9c0.5,3.5,0.4,7.1,0.6,10.7c-0.2,0-0.4,0-0.6,0.1
					c-1.6-2.8-3.2-5.6-4.9-8.4c-2.2-3.6-4.6-7.2-6.9-10.7c2.1,3.6,4.1,7.3,6.2,10.9c1.1,1.8,2.2,3.6,3.3,5.4
					c1.9,3.3,2.8,6.8,1.7,10.6c-0.7,2.6-1.2,5.2-2.4,7.8c-0.2-0.6-0.6-1.2-0.7-1.8c-1.1-6.3-4-11.8-7.2-17.2
					c-4.7-7.9-9.3-15.9-14.1-23.8c-0.8-1.4-2-2.5-3.1-3.7c-1.1-1.2-1.1-2.3,0.3-3.3c1.7-1.3,3.4-2.5,4.8-3.5
					c2.6,4.3,5.1,8.5,7.6,12.7c-1.9-3.9-3.8-7.9-5.8-11.8c-0.3-0.7-0.9-1.3-1.5-1.7c-1.1-0.7-2.5-1.1-3.4-1.9
					c-1.7-1.5-3.1-3.3-4.6-5c-1.9,1.6-2.7,4.3-1.7,5.9c2.6,4.3,3.1,9.7,7.3,13.1c0.1,0,0.1,0.1,0.1,0.2c4.6,7.8,9.3,15.6,13.6,23.6
					c2.4,4.5,4.4,9.4,6.1,14.2c1,2.9,1.9,6,0.9,9.4c-3.9-5.4-7.6-10.6-11.4-15.9c-0.2,0.1-0.4,0.3-0.6,0.4c0.7,1,1.5,2.1,2.2,3.1
					c2.5,3.7,4.9,7.5,7.4,11.3c1.1,1.7,0.6,2.8-1.1,3.6c-0.7,0.3-1.2,0.9-1.8,1.3c0.1,0.2,0.3,0.4,0.4,0.6c1.3-0.7,2.5-1.3,3.8-2
					c0.1,0.1,0.2,0.2,0.3,0.3c-0.5,0.7-1.1,1.5-1.6,2.2c0.1,0.1,0.1,0.1,0.2,0.2c0.6-0.4,1.3-0.9,1.9-1.3c0.1,0.1,0.3,0.2,0.4,0.3
					c-0.8,1.2-1.5,2.4-2.5,3.9c0.9-0.1,1.6-0.1,2.2-0.2c-0.5,2.4-2.5,1.7-3.8,1.8c-0.8,0.1-1.8-1.1-2.5-2c-0.6-0.7-0.8-1.8-1.3-2.7
					c-2.3-4-4.6-8-6.9-12.1c-4.9-8.9-10.5-17.3-16.8-25.3c-2.3-2.9-4.4-6-6.5-8.9c0.1,1.2,0.4,2.3,1,3.2c0.8,1.2,1.7,2.3,2.6,3.4
					c0.8,1.1,1.7,2.2,2.5,3.3c1.8,2.4,3.6,4.9,5.3,7.4c0.6,0.8,1,1.7,1.5,2.5c1.6,2.3,3.4,4.5,4.9,6.9c3.1,4.9,6,9.9,8.9,14.9
					c1.6,2.8,2.8,5.7,4,8.7c0.4,1,0.4,2-1.4,2.1c-0.8,0.1-1.7,0.2-2.5,0.3c0.3,0.2,0.4,0.6,0.2,0.9l0,0.1c1.4-0.1,2.7-0.2,4.1-0.2
					c0.9,0,1.8,0.4,2.7,0.5c0.9,0.2,2.1,0.7,2.7,0.3c2.9-1.7,5.8-2.1,8.8-0.3c0.3,0.2,1.3-0.2,1.7-0.6c1.7-1.3,3.3-3.1,5.9-1.9
					c0.2,0.1,0.4-0.1,0.7-0.2c3-1.3,6.1-2.7,9.1-4c0-0.1,0-0.2,0-0.3c-1.8,0.1-3.5,0.3-5.5,0.4c0.1-0.8,0.2-1.4,0.4-1.9
					c1.8-4.2,3.6-8.4,5.5-12.6c1.3-2.9,2.3-6,4.2-8.6c3.1-4.2,7.9-6,12.9-7c5.1-1.1,10.3-1.8,15.5-2.3c3-0.3,6.3-0.3,9.1,0.5
					C130.3,123.9,133.2,123.1,134.9,119.1z M120.7,83.1c4.2-4.2,9.2-7.2,15-9.4c-0.1,0.2-0.1,0.4-0.2,0.6c-0.1,0.2-0.2,0.4-0.3,0.7
					c0.5,0.2,0.9,0.4,1.3,0.5c0.4,0.1,0.9,0.2,1.3,0.4C131.1,75.9,126.2,80.2,120.7,83.1z M50.8,82.1c-0.4-0.3-0.3-2.5-0.1-2.6
					c1.2-0.3,2.5-0.5,3.7-0.2c0.8,0.2,1.4,1.2,2.3,2.1c-1.2-0.1-2.1-0.2-3.4-0.3c1.2,1.2,2.1,2.2,3,3.1c-0.1,0.2-0.2,0.4-0.2,0.6
					C54.3,84.1,52.4,83.3,50.8,82.1z M72.8,157c-2-0.4-2.9-2-3.2-3.8c-0.2-1.4-0.4-3.2,0.3-4.2c0.5-0.7,2.5-0.5,3.8-0.6
					c-4.2-1.2-4.5-1.8-3.9-6.3c0.5-3.7,0.5-7.6,1.1-11.3c0.7-4.8,1.6-9.6,2.7-14.3c0.5-2.1,2.4-3.2,4.5-3.5c1.9-0.3,3.7,0.2,4.6,2.3
					c0.9,2,0.2,3.5-1,5.2c-1.4,2-2.9,4.2-3.4,6.5c-1,4.4-1.6,9-2.1,13.5c-0.2,2.2,0,4.5,0.5,6.6c0.9,3.6-1,6.3-2.1,9.4
					C74.4,156.8,73.3,157.1,72.8,157z"/>
				<path class="st2" d="M88.2,115.5c-1.4-4.4,7.5-27,13.7-35.9c-1.8-0.9-3.5-2-5.3-2.6c-0.7-0.2-1.7,0.6-3,1.2
					c1.9-4.1,3.4-8.3,5.7-12.1c2.4-4,5.6-7.6,8.4-11.4c1.7-2.3,2.8-2.7,4.9-1.3c2.6,1.6,3.1,3.4,2,5.7c-1.8,3.8-3.5,7.8-5.2,11.7
					c-1.4,3-3.2,5.7-5.8,8c-2.4,2.2-4.2,5.3-5.6,8.4c-3.5,8.2-6.6,16.5-9.7,24.8C88,113.1,88.3,114.4,88.2,115.5z M111.5,60.2
					c-1.3,0.6-2.8,1.4-4.6,2.3c0.2-1.2,0.4-2,0.5-2.9c0.2-0.8,0.3-1.6,0.5-2.4c-0.1,0-0.1,0-0.2,0.1c-2.1,4.9-4.2,9.8-6.1,14
					C104.7,67.9,108.1,64,111.5,60.2z M114.1,58c0.3-1.5,0.3-3-1.6-4c-1.3-0.6-2.6-1-3.4,0.6C110.8,55.7,112.4,56.8,114.1,58z"/>
				<path class="st3" d="M83.3,79.6c-1.2,5.1-2.6,10.1-3.7,15.2c-1.1,5.1-2,10.3-2.8,15.4c-0.4,2.3-1.8,3.5-4.4,4.4
					c-0.3-3.9-0.6-7.6-0.9-11.4l0,0.1c0.5-3.1,1.1-6.1,1.6-9.2c0.5-2,0.9-4,1.4-6c1.4-5.3,2.7-10.5,4.1-16c2,0.5,4,0.8,5.8,1.4
					c0.4,0.1,0.6,1,0.8,1.6C84.5,76.6,83.9,78.1,83.3,79.6z"/>
				<path class="st3" d="M134.9,116c-0.1,0.7-0.2,1.5-0.3,2.3c-2.3-1.7-4.5-0.2-6.6,4.2c-4.5-3.1-9.5-1.7-14.3-1.2
					c-0.5,0.1-1.1,0-1.6,0c-2.4,0.1-4.8-0.1-7.3,0.8c-3.2,1.1-6.6,1.6-9.7,3.1c-0.5,0.3-1.5-0.3-2.5-0.6c1.1-2.2,1.7-4.3,4-5.4
					c9.4-4.6,19.3-6,29.6-4.7c2.7,0.4,5.5,0.8,8.2,1.3C134.6,115.8,134.7,115.9,134.9,116z"/>
				<path class="st2" d="M85.1,75.2c-0.3-0.6-0.4-1.5-0.8-1.6c-1.9-0.6-3.8-0.9-5.8-1.4c-1.4,5.5-2.8,10.7-4.1,16
					c0.3-1.9,0.6-3.9,1-5.8c0.5-2.5,0.9-4.9,1.5-7.3c0.3-1.2,1.1-2.4,1.6-3.6c0.2-0.5,0.4-1,0.4-1.5c0.1-7,1.4-13.7,3.6-20.4
					c0.4-1.3,1.5-2.4,2.3-3.6c1.2,1.2,2.4,2.5,3.6,3.7c0.1,0.1,0.2,0.4,0.1,0.7c-1,6.8,0.4,13.9-2.5,20.5c-0.3,0.7,0.2,1.7,0,2.5
					C85.9,74,85.4,74.6,85.1,75.2z"/>
				<path class="st2" d="M22.1,107.9c1.7-1.7,3-3,4.3-4.2c0.2-0.2,0.8-0.2,1-0.1c0.2,0.1,0.4,0.6,0.3,0.9
					C27.5,106,24.7,108,22.1,107.9z"/>
				<path class="st2" d="M29.7,105.3c-0.4-1.2-0.7-1.9-1.2-3.3c-1.9,0.9-3.6,1.8-5.1,2.6c0.9-2,2.8-3.1,4.9-2.6
					C29.7,102.2,29.7,102.2,29.7,105.3z"/>
				<path class="st2" d="M73,94.2c-0.5,3.1-1.1,6.1-1.6,9.2C71.9,100.3,72.4,97.2,73,94.2z"/>
				<path class="st3" d="M73.7,148.4c-4.2-1.2-4.5-1.8-3.9-6.3c0.5-3.7,0.5-7.6,1.1-11.3c0.7-4.8,1.6-9.6,2.7-14.3
					c0.5-2.1,2.4-3.2,4.5-3.5c1.9-0.3,3.7,0.2,4.6,2.3c0.9,2,0.2,3.5-1,5.2c-1.4,2-2.9,4.2-3.4,6.5c-1,4.4-1.6,9-2.1,13.5
					c-0.2,2.2,0,4.5,0.5,6.6c0.9,3.6-1,6.3-2.1,9.4c-0.1,0.4-1.2,0.7-1.7,0.5c-2-0.4-2.9-2-3.2-3.8c-0.2-1.4-0.4-3.2,0.3-4.2
					C70.3,148.3,72.3,148.6,73.7,148.4z M78.3,120.9c2-0.1,4-2.5,3.3-3.9c-0.6-1.1-5.5-2-6.4-1.1c-0.3,0.3-0.7,0.9-0.7,1.3
					C74.4,119.1,76.5,121,78.3,120.9z"/>
				<path class="st3" d="M120.7,83.1c4.2-4.2,9.2-7.2,15-9.4c-0.1,0.2-0.1,0.4-0.2,0.6c-0.1,0.2-0.2,0.4-0.3,0.7
					c0.5,0.2,0.9,0.4,1.3,0.5c0.4,0.1,0.9,0.2,1.3,0.4C131.1,75.9,126.2,80.2,120.7,83.1z"/>
				<path class="st3" d="M56,85c-1.8-0.9-3.7-1.7-5.3-2.9c-0.4-0.3-0.3-2.5-0.1-2.6c1.2-0.3,2.5-0.5,3.7-0.2
					c0.8,0.2,1.4,1.2,2.3,2.1c-1.2-0.1-2.1-0.2-3.4-0.3c1.2,1.2,2.1,2.2,3,3.1C56.2,84.6,56.1,84.8,56,85z"/>
				<path class="st3" d="M111.5,60.2c-3.4,3.8-6.8,7.7-9.8,11.1c1.8-4.2,3.9-9.1,6.1-14c0.1,0,0.1,0,0.2-0.1
					c-0.2,0.8-0.3,1.6-0.5,2.4c-0.2,0.8-0.3,1.6-0.5,2.9C108.7,61.5,110.2,60.8,111.5,60.2z"/>
				<path class="st3" d="M114.1,58c-1.7-1.2-3.3-2.3-5-3.4c0.8-1.5,2.1-1.2,3.4-0.6C114.4,54.9,114.5,56.5,114.1,58z"/>
				<path class="st2" d="M78.3,120.9c-1.9,0.1-4-1.8-3.9-3.7c0-0.5,0.4-1,0.7-1.3c0.9-0.9,5.8,0,6.4,1.1
					C82.3,118.4,80.3,120.7,78.3,120.9z"/>
			</g>
		</g>
	</g>
	<path class="st4" d="M448.4,77.4"/>
	<path class="st4" d="M466.2,45.1"/>
	<g>
		<path class="st1" d="M429.4,60.3c0-0.4,0-0.9,0-1.3c0.6-0.3,1.5-0.4,0.9-1.4c-0.1-0.1,0-0.4,0-0.6c0.1-1,0.8-1.3,1.6-1.6
			c0.4-0.1,0.6-0.3,0.5-0.8c0-0.8,0-1.5,0-2.2c1.3-0.6,2-1.4,1.9-2.9c0-0.2,0-0.4,0.1-0.5c0.7-0.6,1.3-1.2,2-1.7
			c0.4-0.3,1.1-0.3,1.3-0.7c0.7-0.9,1.6-0.8,2.5-0.8c0.8,0,1.7,0,2.5,0c0.6,0,0.9-0.2,1-0.7c0.1-0.6,0.5-0.9,1.2-0.9
			c0.4,0,0.8,0,1.3,0c0,0.6,0,1.1,0,1.6c0.3,0,0.6,0,0.8,0c0.4,0,0.7-0.1,0.5-0.6c0-0.1,0-0.3,0-0.4c0.4-2.2,0.7-4.4,1.2-6.6
			c0.5-2.4,0.7-4.7,0.9-7.1c0.2-1.7-0.7-3-1.6-4.4c-0.2-0.4-0.6-0.8-0.6-1.2c0-0.9,0.1-1.7,0.2-2.6c0-0.1,0.2-0.3,0.3-0.4
			c1-0.1,1.9-0.8,2.9-0.1c0,0,0.1,0,0.1-0.1c0-0.2,0-0.3,0-0.5c-0.2-1.2-0.4-1.6-1.6-1.5c-0.5,0-1-0.3-1.5-0.5
			c-0.1,0-0.1-0.2-0.1-0.3c0-0.7,0-1.3,0-2c1.8-0.2,3.5-0.4,5.2-0.5c1-0.1,2,0.1,2.7-1c0.2,0.2,0.3,0.4,0.4,0.5
			c0.4,0.6,1.1,0.6,1.6,0.1c0.5-0.6,1-1.1,1.5-1.7c0,0.6-0.1,1.1,0.6,1.4c0.8,0.3,0.9,1,0.8,1.7c0,0.3-0.1,0.6,0,0.9
			c0.1,0.2,0.3,0.5,0.5,0.6c0.8,0.4,1.7,0.7,2.6,1.1c0.8,0.4,1.6,0.9,2.5,0.1c0.2-0.2,0.5-0.3,0.8-0.4c0.2,0,0.5,0.1,0.5,0.2
			c0.1,0.5,0.2,1,0.3,1.4c0.8-0.4,1.3-0.9,1.7-1.6c0.1-0.3,0.4-0.5,0.6-0.6c0.3-0.2,0.6-0.4,0.9-0.6c0.3-0.2,0.6-0.4,1-0.5
			c0.5-0.2,1-0.3,1.5-0.4c0.9-0.2,0.9-1,1.1-1.7c0.1-0.5,0.3-0.7,0.9-0.7c0.9,0,1.9-0.6,1.6-1.8c-0.2-0.1-0.5-0.2-0.7-0.2
			c-0.3,0-0.5,0-0.8,0c-0.8,0-1-0.2-1-1c0-0.6,0-1.2-0.4-1.8c-0.3-0.5-0.5-1.1-0.5-1.6c0.1-1-0.4-1.5-1.2-1.9
			c-0.4-0.2-0.8-0.6-1.1-1c-0.1-0.1,0-0.3,0-0.3c0.1-0.1,0.3-0.1,0.3-0.1c0.6,0.4,1.3,0.5,2.1,0.4c0.2,0,0.3,0.2,0.5,0.3
			c0.9,0.7,2.1,0.8,3.1,0.5c0.7-0.2,1,0,1.4,0.3c0.4,0.3,0.9,0.7,1.5,0.5c0-0.1,0-0.2,0-0.4c-0.1-0.6,0.2-0.9,0.8-1
			c0.7-0.1,1.3-0.3,1.9-0.4c0.7-0.1,1.3-0.7,2.1-0.5c0.2,0,0.5-0.2,0.7-0.4c0.6-0.7,1.1-1.4,2.2-1c0.1,0,0.3,0,0.4,0
			c0-0.6,0.4-0.9,0.9-1.1c0.8-0.2,1-0.6,0.7-1.4c-0.2-0.5,0-0.7,0.4-0.7c0.5-0.1,1.1-0.1,1.5,0c0.3,0.1,0.7,0.6,0.7,1
			c0.1,0.7-0.1,1.4-0.2,2.1c1.2,0.3,1.6,1.2,1.9,2.2c0.2,0.5,0.1,0.9-0.3,1.2c-0.7,0.6-1.1,1.3-1,2.3c0,0.2,0,0.5-0.1,0.7
			c-0.5,0.9-0.4,1.8,0,2.7c0.3,0.7,0.8,1.3,0.9,2.1c0.1,0.7,0.3,1.3,0.8,1.9c0.7,1.1,1.8,1.8,2.8,2.5c0.3,0.2,0.8,0.3,1.1,0.2
			c0.6-0.3,1.2-0.8,1.5-1.3c0.4-0.8,0.8-0.6,1.3-0.2c0.3,0.2,0.5,0.2,0.7-0.1c0.2-0.7,0.9-0.9,1.4-0.8c0.7,0.1,1-0.3,1.4-0.8
			c0.4-0.5,1.1-0.7,1.5-0.3c0.4,0.4,0.9,0.4,1.4,0.4c0.7,0,1.5-0.1,2.2,0c0.9,0.1,1.4-0.2,1.8-1c-0.8-0.9-0.9-1.1-0.2-1.6
			c0.2-0.1,0.5-0.2,0.7-0.2c1.2,0.1,2.2,0,3.2-0.7c0.1,0,0.1,0,0.2,0c0.1,0.2,0.1,0.5,0.3,0.5c1.1,0.5,2.3,1,3.4,1.5
			c0.1,0.1,0.5,0,0.5-0.2c0.8-1.1,2.6-1.3,3.6-0.7c1.3,0.8,2.3,0.5,3-0.8c0.3-0.5,0.4-1,0.7-1.5c0.7-1.4,1.5-2.8,2.3-4.1
			c0.3-0.5,0.7-0.9,1.1-1.3c0.2-0.2,0.6-0.5,0.6-0.7c0-0.5,0.2-0.8,0.6-0.8c0.3,0,0.7,0.4,0.7,0.7c0.2,0.9,0.3,1.7,0.3,2.6
			c0,1,0.2,1.8,0.7,2.6c0.2,0.3,0.4,0.5,0.5,0.7c0.3,1,0.6,2.1,0.9,3.1c0.2,0.6,0.6,0.8,1,0.4c0.3-0.3,0.5-0.2,0.7,0
			c0.3,0.2,0.5,0.4,0.8,0.6c-0.1,0.3-0.2,0.7-0.3,1c0.5,0,0.9,0.1,1.4,0.1c0,0.5,0,1,0,1.4c-0.3,0.2-0.6,0.3-1,0.5
			c0.3,0.3,0.5,0.4,0.7,0.6c-0.4,0.4-0.7,0.9-1.1,1.2c-0.6,0.7-1.3,1.4-1.9,2.1c-0.4,0.4-0.9,0.6-1.3,1c-0.8,0.8-1.7,1.6-2.5,2.5
			c-0.5,0.6-0.8,1.3-1.1,2c0.6-0.3,1-0.8,1.5-1.1c0.4-0.2,0.5,0,0.5,0.4c-0.1,0.4-0.1,0.8-0.1,1.3c0.2-0.1,0.3-0.2,0.4-0.3
			c0.3-0.7,0.5-1.5,0.9-2.1c1-1.7,1.7-2,3.8-1.1c0.7,0.3,1.5,0.6,2.2,0.6c1.6-0.1,3.2-0.4,4.8-0.5c0.9-0.1,1.5,0.6,1.2,1.4
			c-0.2,0.5-0.5,1.1-0.7,1.6c-0.6,1.4-1.7,2.5-2.9,3.5c-0.2,0.2-0.7,0.2-1,0.3c-0.4,0.1-0.7,0-1.1,0.1c-0.6,0.1-1.3,0.5-1.8,0.3
			c-0.9-0.4-1.3,0.2-1.9,0.6c0.7,0.1,1.5,0.1,2.2,0.2c0.5,0.1,0.9,0.1,1.3-0.3c0.1-0.1,0.3-0.2,0.4-0.1c0.1,0.1,0.2,0.3,0.2,0.4
			c0,0.7,0,1.3,0,2.2c0.6-0.8,0.9-1.5,1.4-2.1c0.4-0.5,0.9-1.2,1.5-1.4c1-0.4,1.4-1,1.3-2c0,0,0.1-0.1,0.1-0.1
			c0.4,0.2,0.9,0.3,1.2,0.4c0.5-0.8,0.9-1.8,1.6-2.3c0.8-0.7,1.8-0.4,2.7,0.2c0.1-0.3,0.2-0.5,0.4-0.8c0.3,0.1,0.7,0.3,1,0.4
			c1.1,0.4,2.1,0.9,3.2,1.3c0.6,0.2,1.6-0.3,1.7,0.9c0,0,0.2,0.1,0.3,0.1c0.8,0.2,1.6,0.3,2.5,0.5c-0.3,0.9,0.2,1.6,0.9,2.4
			c0-0.5,0-0.8-0.1-1.2c1-0.1,1.8-0.1,2.5,0.9c0.9,1.2,1.1,2.2,0.5,3.6c-0.4,0.8-0.6,1.7-0.9,2.5c0.4-0.1,0.8-0.3,1-0.5
			c0.4-0.6,0.9-1.2,1.2-1.9c0.2-0.5,0.7-0.7,1.1-0.3c0.1,0.1,0.3,0.3,0.4,0.3c0.6-0.4,1.1-0.8,1.7-1.2c0,0.3,0,0.4,0,0.4
			c0.1,0.2,0.2,0.4,0.3,0.7c0.2-0.1,0.4-0.3,0.6-0.4c0.2-0.2,0.5-0.6,0.7-0.5c0.5,0.1,1,0.3,1.4,0.6c0.9,0.8,2,1.1,3.2,1.3
			c0.7,0.1,1.4,0,2,0.3c0.8,0.4,1.6,0.3,2.4,0.3c0.7,0,1.5-0.2,2.2-0.3c0.6-0.1,1.1-0.1,1.7-0.1c0.7,0,1.4-0.2,2,0
			c1.1,0.4,2.3,1,3.3,1.6c1.1,0.7,2.2,1.6,3.2,2.4c1.9,1.5,3.5,3.5,5.4,4.9c0.6,0.4,1,1,1.8,1.2c0.7,0.1,1.5,0.5,2.2,0.4
			c1.1-0.1,2.1-0.4,3.2-0.7c0,0,0.2,0.1,0.4,0.2c0.7,0.7,1.5,1.3,1.8,2.3c0.5,2.5,1.1,5,2.3,7.3c0.1,0.1,0,0.3-0.1,0.5
			c-0.5,1.3-1.3,2.5-1.4,3.9c-0.1,2.2-0.7,4.2-2.3,5.9c-0.5,0.5-1,1-1.4,1.5c-0.5,0.6-0.9,1.3-1.3,2c-0.3,0.8-0.8,0.9-1.5,0.5
			c0,0-0.1,0-0.2,0.1c0.1,0.3,0.3,0.6,0.4,0.8c0,0-0.1,0.1-0.1,0.1c-0.1,0-0.2,0.1-0.3,0.1c-1.6,0.4-2.5,1.5-3.2,2.8
			c-0.9,1.8-1.5,3.6-2.8,5.1c-0.4,0.4-0.7,0.9-1.1,1.3c-0.6,0.6-1.1,1.5-2.2,1.5c0-0.3-0.1-0.5-0.1-0.8c-0.3-0.1-0.6-0.2-0.9-0.2
			c-0.2,0-0.4,0.2-0.5,0.3c0.1,0.1,0.2,0.3,0.3,0.4c0.2,0.1,0.5,0.2,0.9,0.3c-0.7,0.9-1.3,1.7-1.9,2.4c0.1,0.5,0.4,1,0.3,1.3
			c-0.5,0.9-0.2,1.7,0,2.6c0.2,0.7-0.1,1.4-0.2,2.2c0.5,0.5,0.6,0.6,0.3,1.3c-0.4,0.9-0.4,1.7-0.2,2.7c0.3,1.4,0.4,2.8-0.4,4.1
			c-0.1,0.1-0.1,0.2-0.1,0.3c-0.4,1.6-0.7,3.2-0.6,4.8c0.1,1-0.4,1.7-1,2.5c-0.8,1.2-1.3,2.5-1.9,3.8c0,0.1,0,0.2,0,0.3
			c-0.2,1.1,0.5,1.8,0.9,2.7c-0.5,0.5-1.1,1-1.6,1.5c-0.3,0.3-0.6,0.7-0.6,1c0,1.4-0.7,2.3-1.8,3c-0.6,0.4-1.2,0.8-1,1.7
			c0,0.1-0.1,0.3-0.1,0.4c-0.9,0.9-0.8,2.1-0.7,3.2c0.1,1.5-0.1,1.8-1.5,2.4c-0.4,0.1-0.7,0.2-1.1,0.4c-1.2,0.7-2.5,1.3-2.3,3.1
			c0,0.1-0.2,0.3-0.3,0.4c-0.9,0.1-1.8,0.2-2.8,0.3c-0.9,0.1-1.5-0.4-2.1-0.9c-0.1,0.4,0,0.8-0.2,1c-0.2,0.2-0.8,0.4-1,0.2
			c-0.9-0.5-1.6-0.3-2.4,0.2c-0.1-0.3-0.1-0.5-0.2-0.8c-0.3,0.3-0.5,0.4-0.7,0.7c-0.3,0.4-0.7,0.2-0.8-0.1c-0.1-0.4-0.3-0.6-0.6-0.4
			c-0.4,0.3-1.3,0-1.3,0.9c0,0.5-0.2,0.7-0.6,0.9c-1.1,0.6-2.4,1-2.2,2.7c-0.3-0.2-0.5-0.4-0.8-0.5c-0.6-0.3-1.1-0.5-1.7-0.1
			c-0.7,0.4-1.3,0.9-2,1.3c-0.9,0.5-1.9,0.8-2.5,1.7c-0.5,0.7-1.2,1-1.9,1.5c-0.8,0.5-1.6,1-2.2,1.7c-0.7,0.9-1.4,1.5-2.3,1.6
			c-0.3,0.8-0.5,1.5-0.8,2.2c-0.2,0.7-0.6,1.4-0.1,2.2c0.1,0.1,0,0.4,0,0.6c0,0.7-0.1,1.4-0.2,2.1c0,1.3,0,2.5,0,3.8
			c0.3,0,0.6,0,0.8,0c-0.3,0.8-0.8,1.6-0.9,2.4c-0.1,0.7-0.2,1.2-0.8,1.6c-0.4,0.4-0.9,0.8-0.7,1.5c0,0.2-0.2,0.5-0.3,0.6
			c-0.9,1-2.1,1.8-2.8,2.9c-1.3,2-2.3,4.3-2.9,6.6c-0.1,0.4-0.2,0.8-0.4,1.2c-0.8,1.7-2.1,3.1-3.6,4.3c-0.7,0.6-1.3,1.1-2.1,1.6
			c-1.7,1.1-2.9,2.6-3.5,4.6c-0.4,1.3-1,2.6-2.1,3.6c-0.6,0.5-1,1.3-1.5,1.9c-0.4,0-0.8,0-1.2,0c0.1-0.5,0.3-1.1,0.1-1.5
			c-0.3-0.7,0.1-1.2,0.5-1.7c0.5-0.7,1.1-1.3,2.1-1.1c0.1,0,0.4-0.2,0.5-0.3c0.3-1.2,0.7-2.4,0.2-3.9c-0.5,1-1,1.9-1.4,2.8
			c-0.2,0.5-1.1,0.8-1.4,0.3c-0.8-1-1.5-2-2.1-3.1c-0.3-0.5-0.4-1-1.1-1.2c-0.6-0.1-1.2-0.4-1.6-1.1c-0.3-0.4-0.6-0.8-1-1.1
			c-0.2-0.2-0.5-0.3-0.8-0.4c-1-0.2-1.9-0.5-2.4-1.5c-0.1-0.2-0.5-0.4-0.7-0.5c-0.4-0.2-0.9-0.3-1.4-0.5c-0.3,0.4-0.3,1.2-1.1,0.8
			c-0.1-0.5-0.1-1-0.3-1.5c-0.6-1.4-1.7-2.3-3-3.1c-0.8-0.5-1.4-0.5-2.2,0c-0.4,0.2-0.9,0.2-1.4,0.3c0-0.1-0.1-0.1-0.1-0.2
			c0.4-0.7,0.7-1.5,1.2-2c1.4-1.5,2.9-2.9,4.1-4.7c0.7-1,1.6-1.8,2.2-2.9c0.6-0.9,1.2-1.7,2.2-2.2c0.9-0.6,1.9-1.1,2.8-1.7
			c0.6-0.4,1.2-0.8,2.1-0.7c0.2,0,0.5-0.2,0.6-0.4c0.4-0.8,1-1.3,1.8-1.6c0.6-0.3,0.7-0.8,0.5-1.2c-0.3-0.6-0.3-1,0.2-1.4
			c0.1-0.1,0.1-0.3,0.1-0.4c-0.3-1-0.3-2-0.8-3c-0.5-0.9-1.1-1.2-2-1.2c-0.2,0-0.7,0-0.7-0.1c-0.3-0.8-0.6-1.6-0.6-2.4
			c0-0.5,0.4-1.1,0.7-1.6c0.6-0.7,0.6-1.5,0.6-2.4c0-1.4-0.7-1.9-2-2c-1,0-1.9-0.2-2.9-0.3c-0.1,0-0.3-0.3-0.3-0.5
			c-0.1-0.5-0.1-1-0.2-1.5c-0.3-1.2-0.3-2.4-1.1-3.4c-0.1-0.1,0-0.6,0.1-0.8c0.4-0.8,0.1-1.6-0.8-1.8c-0.9-0.2-1.9-0.3-2.4-1.5
			c-0.1,0.3-0.2,0.4-0.3,0.5c-0.3,0.3-0.8,0.8-1.1,0.7c-1.9-0.6-3.9-0.1-5.9-0.3c0-0.1-0.1-0.2-0.1-0.4c0-1.1,0.1-2.3,0.1-3.4
			c0-2,0-4-0.6-6c-0.2-0.6-0.4-1.3-0.2-1.8c0.3-1,0.6-2,1.4-2.8c0.2-0.2,0.3-0.6,0.3-0.8c-0.1-1,0.2-1.9,0.6-2.8
			c0.3-0.6,0.4-1.3,0.3-1.9c-0.1-0.7-0.5-1.3-0.7-1.9c-0.1-0.5-0.3-0.6-0.8-0.6c-1-0.1-1.8-0.7-2.2-1.4c-0.5-1-0.7-2.2-0.1-3.3
			c0.2-0.4,0.3-0.8,0.5-1.3c-2.8,0-5.5,0-8.3,0c0.3-1.9-0.5-3.4-1.7-4.8c0.2,0,0.4-0.1,0.7-0.1c-0.1-1.4-0.1-2.7-0.2-4.1
			c0-0.5,0.1-1,0.1-1.6c0-0.2,0.1-0.5,0-0.5c-0.8-0.8-1.7-1.6-3-1.6c-1,0.1-2.1,0.1-3.1,0c-0.7-0.1-1.4-0.6-2.1-1
			c-0.1-0.1,0-0.6,0-0.9c0,0-0.1-0.1-0.1-0.1c-0.5,0-1.1,0-1.7,0c-0.8,0.1-1.2-0.7-1.8-1c-0.1-0.1-0.1-0.4-0.2-0.6
			c-0.1-0.4-0.2-0.6-0.7-0.6c-0.6,0-1.3,0-1.8-0.2c-0.6-0.3-1.1-0.5-1.7-0.5c-0.4,0-0.9,0-1.3,0c-0.2,0-0.5-0.2-0.5-0.3
			c0-0.8-0.6-0.9-1.2-1.1c-0.7-0.3-1.8-0.4-1.9-1.5c-0.2,0-0.4,0-0.8-0.1c-0.2-0.7-0.5-1.3-0.6-2c-0.1-1-0.1-2.1-0.2-3.2
			c0-0.3-0.2-0.5-0.1-0.8c0.1-0.9,0.3-1.8,0.5-2.7c0.1-0.6-0.2-0.8-0.6-0.9c-1.4-0.4-2.7-0.1-4.1,0.1c-1.1,0.2-2.3,0.6-3,1.5
			c-0.9,1.3-2.2,1.8-3.5,2.4c-0.8,0.3-1.5,0.6-1.9,1.5c-0.1,0.3-0.4,0.8-0.7,0.8c-0.7,0.1-1.5,0.2-2.1,0c-2.2-0.9-4.4-0.5-6.6-0.3
			c-0.5,0.1-1-0.1-1.4-0.2c-0.5-0.1-0.5-0.6-0.5-1c0-0.6,0-1.2-0.1-1.8c-0.2-1.4-0.4-2.8,0.4-4.1c0,0,0-0.1-0.1-0.4
			c-1,1-1.8,1.9-2.7,2.8c-0.1,0.1-0.3,0.1-0.5,0.1c-1,0-2,0-3.1,0c-0.2,0-0.5-0.2-0.6-0.4c-0.3-0.8-0.6-1.5-0.9-2.3
			c-1.2,0-2.4,0-3.5,0c0.3-0.7,0.5-1.5,0.8-2.3c-0.4,0-0.6-0.1-0.7-0.1c-0.3-0.6-0.5-1.2-0.8-1.7c-0.7-1.1-1.7-2.1-2.1-3.4
			C430.4,60.6,429.8,60.5,429.4,60.3z M528,177.8c0.1,0.1,0.1,0.1,0.2,0.2c0.3-0.1,0.6-0.1,0.8-0.3c0.8-0.6,1.4-1.4,2.3-1.9
			c0.8-0.5,1.4-1.2,1.8-2c0.3-0.5,0.7-1.1,1.1-1.4c1.1-0.9,1.3-1.6,0.9-3.1c-0.3,1-1,0.7-1.6,0.9c-0.3,0.1-0.5,0.5-0.8,0.8
			c-0.1,0.2-0.1,0.4-0.2,0.6c-0.3,0.5-0.5,1-0.8,1.4c-0.4,0.6-0.4,1.5-1.5,1.5c-0.3,0-0.7,0.4-0.8,0.6
			C528.8,176,528.4,176.9,528,177.8z"/>
	</g>
	<g>
		<polygon class="st5" points="493.2,170 546.6,77.1 480.1,77.1 480.1,44.4 595,44.4 595,68 535.1,170 		"/>
		<path class="st6" d="M592.5,46.9v20.4l-58.8,100.2h-36.1L551,74.6h-68.3V46.9H592.5 M597.5,41.9h-5H482.6h-5v5v27.7v5h5h59.7
			L493.2,165l-4.3,7.5h8.6h36.1h2.9l1.4-2.5l58.8-100.2l0.7-1.2v-1.4V46.9V41.9L597.5,41.9z"/>
	</g>
	<g>
		<polygon class="st0" points="390,173 390,44.4 468.5,44.4 468.5,77.3 431.3,77.3 431.3,94.7 463.5,94.7 463.5,124.9 431.3,124.9 
			431.3,142 468.7,142 468.7,173 		"/>
		<path class="st6" d="M466,46.9v27.9h-37.1v22.4H461v25.2h-32.2v22.1h37.4v25.9h-73.7V46.9H466 M471,41.9h-5h-73.4h-5v5v123.6v5h5
			h73.7h5v-5v-25.9v-5h-5h-32.4v-12.1H461h5v-5V97.2v-5h-5h-27.2V79.8H466h5v-5V46.9V41.9L471,41.9z"/>
	</g>
</g>
</svg>
