<?xml version="1.0" encoding="utf-8"?>
<!-- Generator: Adobe Illustrator 22.0.0, SVG Export Plug-In . SVG Version: 6.00 Build 0)  -->
<svg version="1.1" id="Layer_1" xmlns="http://www.w3.org/2000/svg" xmlns:xlink="http://www.w3.org/1999/xlink" x="0px" y="0px"
	 viewBox="0 0 262.5 115.7" style="enable-background:new 0 0 262.5 115.7;" xml:space="preserve">
<style type="text/css">
	.st0{fill:#851C22;}
	.st1{fill:#1B1740;}
	.st2{fill:#1A7292;}
</style>
<g>
	<g>
		<path class="st0" d="M179.7,31.1h82.8l-66.7,84.7l-18.6-9.2L224.8,46h-45V31.1z"/>
	</g>
	<g>
		<path class="st1" d="M58.1,5v18.2C50,18.4,43,16,36.9,16c-6.1,0-10.9,2.1-14.6,6.3c-3.6,4.2-5.5,9.8-5.5,16.9c0,6.7,1.9,12,5.8,16
			c3.8,4,9,6,15.4,6c5.6,0,12.3-2.3,20.2-6.8v18.1c-8.8,2.9-16.1,4.4-21.9,4.4c-10.1,0-18.6-3.7-25.6-11.1C3.5,58.4,0,49.4,0,38.8
			c0-10.8,3.6-20,10.7-27.5C17.9,3.8,26.6,0,36.9,0C43.5,0,50.6,1.7,58.1,5z"/>
		<path class="st1" d="M70.1,1h21.8c9.1,0,15.3,1.9,18.7,5.7c3.3,3.8,5,8.2,5,13.3c0,3.2-0.6,6-1.8,8.2c-1.2,2.2-3.2,4.5-5.9,6.7
			c5.2,1.8,8.8,4.4,11,7.9c2.1,3.5,3.2,7.2,3.2,11.2c0,6.9-2.4,12.2-7.1,16.1c-4.7,3.8-11.3,5.8-19.9,5.8H70.1V1z M86.2,13.6V30h3.7
			c2.7,0,5-0.9,6.9-2.6c1.9-1.7,2.8-3.9,2.8-6.4c0-2.1-0.9-3.8-2.7-5.2c-1.8-1.4-4.1-2.1-6.8-2.1H86.2z M86.2,42.7v20.6H92
			c8.8,0,13.3-3.2,13.3-9.7c0-3.5-1.1-6.2-3.2-8.1c-2.2-1.9-5.2-2.8-9.2-2.8H86.2z"/>
		<path class="st1" d="M132.2,1h42.1v14.8h-26V31h26v14.6h-26V61h26v14.8h-42.1V1z"/>
	</g>
	<g>
		<path class="st2" d="M182.6,5.9h3.6c2.4,0,4.3,0.5,5.8,1.5c1.5,1,2.2,2.2,2.2,3.8c0,1.8-1.1,3.4-3.3,4.6c3.4,1.1,5.1,3,5.1,5.7
			c0,1.9-0.9,3.4-2.6,4.6s-4.1,1.7-7.1,1.7h-3.7V5.9z M185.6,8.6v6.5c1.7,0,3-0.3,3.9-0.9c0.9-0.6,1.4-1.4,1.4-2.5
			c0-0.9-0.4-1.7-1.2-2.2s-1.9-0.8-3.3-0.8C186.1,8.5,185.9,8.5,185.6,8.6z M185.6,17.7v7.5h0.2c2.7,0,4.5-0.4,5.5-1.2
			c1-0.8,1.5-1.7,1.5-2.5c0-1.1-0.5-2-1.6-2.7c-1.1-0.7-2.6-1-4.5-1H185.6z"/>
		<path class="st2" d="M203.5,13.6v2.9c0.7-1.2,1.4-2,2-2.5c0.7-0.5,1.5-0.8,2.6-0.8c0.3,0,0.7,0.1,1.3,0.2l-0.9,3
			c-0.6-0.1-1-0.2-1.2-0.2c-1,0-1.9,0.4-2.6,1.1c-0.7,0.7-1.1,1.6-1.1,2.6v7.9h-3.1V13.6H203.5z"/>
		<path class="st2" d="M224.2,13.6h3.1v14.2h-3.1V25c-1.5,2.1-3.4,3.2-5.6,3.2c-1.9,0-3.6-0.7-5-2.2c-1.4-1.5-2.1-3.3-2.1-5.4
			c0-2,0.7-3.7,2.1-5.2s3-2.2,4.9-2.2c1.1,0,2.2,0.3,3.3,0.9c1,0.6,1.8,1.4,2.4,2.4V13.6z M224.7,20.8c0-1.3-0.5-2.4-1.4-3.3
			c-1-0.9-2.1-1.4-3.5-1.4c-1.3,0-2.4,0.5-3.4,1.4c-1,0.9-1.5,2-1.5,3.2c0,1.3,0.5,2.5,1.4,3.4c1,0.9,2.1,1.4,3.5,1.4
			c1.3,0,2.5-0.5,3.5-1.4C224.2,23.2,224.7,22.1,224.7,20.8z"/>
		<path class="st2" d="M230.8,13.6h13.9l-8.8,11.6h8.8v2.6h-14l8.9-11.6h-8.8V13.6z"/>
		<path class="st2" d="M247.4,9c0-0.6,0.2-1.2,0.7-1.6c0.5-0.5,1-0.7,1.7-0.7c0.6,0,1.2,0.2,1.7,0.7c0.5,0.5,0.7,1,0.7,1.6
			c0,0.6-0.2,1.2-0.7,1.6c-0.5,0.4-1,0.7-1.7,0.7c-0.7,0-1.2-0.2-1.7-0.7C247.6,10.1,247.4,9.6,247.4,9z M248.2,13.6h3.1v14.2h-3.1
			V13.6z"/>
		<path class="st2" d="M256.3,5.5h3.1v22.4h-3.1V5.5z"/>
	</g>
</g>
</svg>
