<?xml version="1.0" encoding="utf-8"?>
<!-- Generator: Adobe Illustrator 22.0.0, SVG Export Plug-In . SVG Version: 6.00 Build 0)  -->
<svg version="1.1" id="Capa_1" xmlns="http://www.w3.org/2000/svg" xmlns:xlink="http://www.w3.org/1999/xlink" x="0px" y="0px"
	 viewBox="0 0 512 512" style="enable-background:new 0 0 512 512;" xml:space="preserve">
<style type="text/css">
	.st0{display:none;fill:#BA2525;}
	.st1{fill:#FFFFFF;stroke:#FFFFFF;stroke-width:15;stroke-miterlimit:10;}
</style>
<rect x="-35" y="-85" class="st0" width="650" height="676"/>
<g>
	<g>
		<g>
			<path class="st1" d="M301.3,231c-5.5,0-10,4.5-10,10s4.5,10,10,10s10-4.5,10-10S306.8,231,301.3,231z"/>
		</g>
	</g>
	<g>
		<g>
			<path class="st1" d="M416,416h-11.9l-32.6-182.5c-6.1-33.3-35-57.5-68.9-57.5h-93.2c-33.9,0-62.8,24.2-68.9,57.5L107.9,416H96
				c-16.5,0-30,13.5-30,30v40c0,5.5,4.5,10,10,10h360c5.5,0,10-4.5,10-10v-40C446,429.5,432.5,416,416,416z M160.2,237.1
				c4.3-23.8,25-41.1,49.2-41.1h93.2c24.2,0,44.9,17.3,49.2,41l31.9,179H128.3L160.2,237.1z M426,476H86v-30c0-5.5,4.5-10,10-10
				c22.5,0,306.4,0,320,0c5.5,0,10,4.5,10,10V476z"/>
		</g>
	</g>
	<g>
		<g>
			<path class="st1" d="M333.5,369.2l-14.7-80.8c-1-5.4-6.2-9-11.6-8.1c-5.4,1-9,6.2-8.1,11.6l14.7,80.8c1,5.5,6.2,9,11.6,8.1
				C330.9,379.9,334.5,374.6,333.5,369.2z"/>
		</g>
	</g>
	<g>
		<g>
			<path class="st1" d="M502,256h-86c-5.5,0-10,4.5-10,10s4.5,10,10,10h86c5.5,0,10-4.5,10-10S507.5,256,502,256z"/>
		</g>
	</g>
	<g>
		<g>
			<path class="st1" d="M96,256H10c-5.5,0-10,4.5-10,10s4.5,10,10,10h86c5.5,0,10-4.5,10-10S101.5,256,96,256z"/>
		</g>
	</g>
	<g>
		<g>
			<path class="st1" d="M432.8,89.2c-3.9-3.9-10.2-3.9-14.1,0l-56.6,56.6c-3.9,3.9-3.9,10.2,0,14.1c3.9,3.9,10.2,3.9,14.1,0
				l56.6-56.6C436.7,99.5,436.7,93.1,432.8,89.2z"/>
		</g>
	</g>
	<g>
		<g>
			<path class="st1" d="M149.9,145.8L93.4,89.2c-3.9-3.9-10.2-3.9-14.1,0s-3.9,10.2,0,14.1l56.6,56.6c3.9,3.9,10.2,3.9,14.1,0
				C153.8,156,153.8,149.7,149.9,145.8z"/>
		</g>
	</g>
	<g>
		<g>
			<path class="st1" d="M256,16c-5.5,0-10,4.5-10,10v80c0,5.5,4.5,10,10,10s10-4.5,10-10V26C266,20.5,261.5,16,256,16z"/>
		</g>
	</g>
</g>
</svg>
