<svg id="_024-alarm-clock-1" data-name="024-alarm-clock-1" xmlns="http://www.w3.org/2000/svg" width="50.25" height="50.39" viewBox="0 0 50.25 50.39">
  <g id="Grupo_35" data-name="Grupo 35" transform="translate(0 0)">
    <path id="Caminho_7771" data-name="Caminho 7771" d="M272.984,249.471h-6.932a.866.866,0,1,1,0-1.733h6.932a.866.866,0,0,1,0,1.733Z" transform="translate(-238.327 -222.582)" fill="#fff"/>
    <path id="Caminho_7772" data-name="Caminho 7772" d="M240.452,140.569a.866.866,0,0,1-.867-.867V130.17a.866.866,0,1,1,1.733,0V139.7a.866.866,0,0,1-.866.867Z" transform="translate(-215.326 -116.174)" fill="#fff"/>
    <path id="Caminho_7773" data-name="Caminho 7773" d="M103.92,450.756a.866.866,0,0,1-.613-1.479l3.408-3.408a.866.866,0,0,1,1.225,1.225l-3.408,3.408a.864.864,0,0,1-.613.254Z" transform="translate(-92.659 -400.365)" fill="#fff"/>
    <path id="Caminho_7774" data-name="Caminho 7774" d="M346.6,450.522a.863.863,0,0,1-.613-.254l-3.434-3.434a.866.866,0,1,1,1.225-1.225l3.434,3.434a.867.867,0,0,1-.613,1.479Z" transform="translate(-307.614 -400.132)" fill="#fff"/>
    <path id="Caminho_7775" data-name="Caminho 7775" d="M384.374,12.265a.867.867,0,0,1-.613-.254l-8.727-8.727a.866.866,0,0,1,0-1.225,7.045,7.045,0,0,1,9.952,0h0a7.045,7.045,0,0,1,0,9.952.867.867,0,0,1-.613.254Zm-7.451-9.543,7.4,7.4a5.3,5.3,0,0,0-7.4-7.4Z" transform="translate(-336.794 -0.001)" fill="#fff"/>
    <path id="Caminho_7776" data-name="Caminho 7776" d="M394.85,67.182a.866.866,0,0,1-.613-1.479l2.6-2.6a.866.866,0,1,1,1.225,1.225l-2.6,2.6a.864.864,0,0,1-.613.254Z" transform="translate(-354.046 -56.465)" fill="#fff"/>
    <path id="Caminho_7777" data-name="Caminho 7777" d="M3.357,12.264a.867.867,0,0,1-.613-.254,7.045,7.045,0,0,1,0-9.952h0a7.045,7.045,0,0,1,9.952,0,.866.866,0,0,1,0,1.225L3.969,12.01A.866.866,0,0,1,3.357,12.264Zm.613-8.981a5.314,5.314,0,0,0-.563,6.839l7.4-7.4a5.313,5.313,0,0,0-6.838.563Z" transform="translate(-0.686 0)" fill="#fff"/>
    <path id="Caminho_7778" data-name="Caminho 7778" d="M63.091,67.239a.863.863,0,0,1-.613-.254l-2.6-2.6A.866.866,0,0,1,61.1,63.16l2.6,2.6a.867.867,0,0,1-.613,1.479Z" transform="translate(-53.644 -56.522)" fill="#fff"/>
    <path id="Caminho_7779" data-name="Caminho 7779" d="M41.115,73.7a23.4,23.4,0,1,1,23.4-23.4A23.4,23.4,0,0,1,41.115,73.7Zm0-45.059A21.663,21.663,0,1,0,62.777,50.3,21.663,21.663,0,0,0,41.115,28.637Z" transform="translate(-15.989 -24.172)" fill="#fff"/>
    <path id="Caminho_7780" data-name="Caminho 7780" d="M217.452,230.1a3.466,3.466,0,1,1,3.466-3.466,3.466,3.466,0,0,1-3.466,3.466Zm0-5.2a1.733,1.733,0,1,0,1.733,1.733,1.733,1.733,0,0,0-1.733-1.733Z" transform="translate(-192.327 -200.51)" fill="#fff"/>
    <path id="Caminho_7781" data-name="Caminho 7781" d="M240.452,62.6a.866.866,0,0,1-.867-.867V60.87a.866.866,0,1,1,1.733,0v.866a.866.866,0,0,1-.866.867Z" transform="translate(-215.326 -53.911)" fill="#fff"/>
    <path id="Caminho_7782" data-name="Caminho 7782" d="M240.452,429.538a.866.866,0,0,1-.867-.867V427.8a.866.866,0,1,1,1.733,0v.866a.866.866,0,0,1-.866.867Z" transform="translate(-215.326 -383.585)" fill="#fff"/>
    <path id="Caminho_7783" data-name="Caminho 7783" d="M420.519,249.471h-.867a.866.866,0,1,1,0-1.733h.867a.866.866,0,0,1,0,1.733Z" transform="translate(-376.33 -222.582)" fill="#fff"/>
    <path id="Caminho_7784" data-name="Caminho 7784" d="M53.586,249.471h-.866a.866.866,0,0,1,0-1.733h.866a.866.866,0,0,1,0,1.733Z" transform="translate(-46.657 -222.582)" fill="#fff"/>
    <path id="Caminho_7785" data-name="Caminho 7785" d="M367.166,117.335a.867.867,0,0,1-.613-1.479l.613-.613a.866.866,0,0,1,1.225,1.225l-.613.613A.864.864,0,0,1,367.166,117.335Z" transform="translate(-329.174 -103.313)" fill="#fff"/>
    <path id="Caminho_7786" data-name="Caminho 7786" d="M107.708,376.8a.866.866,0,0,1-.613-1.479l.613-.613a.866.866,0,0,1,1.225,1.225l-.613.613A.864.864,0,0,1,107.708,376.8Z" transform="translate(-96.062 -336.432)" fill="#fff"/>
    <path id="Caminho_7787" data-name="Caminho 7787" d="M367.779,376.8a.864.864,0,0,1-.613-.254l-.613-.613a.866.866,0,0,1,1.225-1.225l.613.613a.867.867,0,0,1-.613,1.479Z" transform="translate(-329.174 -336.431)" fill="#fff"/>
    <path id="Caminho_7788" data-name="Caminho 7788" d="M108.32,117.335a.863.863,0,0,1-.613-.254l-.613-.613a.866.866,0,0,1,1.225-1.225l.613.613a.867.867,0,0,1-.613,1.479Z" transform="translate(-96.062 -103.313)" fill="#fff"/>
  </g>
</svg>
