<svg xmlns="http://www.w3.org/2000/svg" width="47.032" height="50.39" viewBox="0 0 47.032 50.39">
  <g id="_124-calendar-2" data-name="124-calendar-2" transform="translate(0 0.001)">
    <g id="Grupo_32" data-name="Grupo 32">
      <path id="Uni達o_5" data-name="Uni達o 5" d="M-5889.361-625.61a.849.849,0,0,1-.594-.245.843.843,0,0,1-.245-.594V-671.8a.837.837,0,0,1,.245-.591.841.841,0,0,1,.6-.248h5.877v-2.519a.837.837,0,0,1,.246-.594.839.839,0,0,1,.594-.245h5.877a.839.839,0,0,1,.594.245.837.837,0,0,1,.246.594v2.519h18.477v-2.517a.836.836,0,0,1,.247-.594.837.837,0,0,1,.594-.247h5.877a.838.838,0,0,1,.594.247.835.835,0,0,1,.246.594v2.517h5.88a.835.835,0,0,1,.594.248.837.837,0,0,1,.246.591v45.353a.839.839,0,0,1-.246.594.844.844,0,0,1-.594.245Zm.84-1.679h43.673v-34.434h-43.673Zm0-36.114h43.67v-7.557h-5.041v2.54a.831.831,0,0,1-.246.573.837.837,0,0,1-.594.245h-5.877a.84.84,0,0,1-.346-.075.834.834,0,0,1-.248-.171c-.02-.02-.038-.041-.055-.062a.835.835,0,0,1-.191-.532v-2.519h-18.477v2.519a.832.832,0,0,1-.246.594.839.839,0,0,1-.594.245h-5.877a.839.839,0,0,1-.594-.245.837.837,0,0,1-.246-.594v-2.519h-5.038Zm6.717-8.4v2.522h4.2v-5.041h-4.2Zm26.035,2.52h4.2v-5.038h-4.2Z" transform="translate(5890.2 676)" fill="#fff"/>
      <path id="Uni達o_1" data-name="Uni達o 1" d="M-5889.958-654.566a1,1,0,0,1-1-1v-19.75a1,1,0,0,1,1-1h26.711a1,1,0,0,1,1,1v19.75a1,1,0,0,1-1,1Z" transform="translate(5899.903 696.941)" fill="none" stroke="#fff" stroke-width="1.5"/>
      <line id="Linha_16" data-name="Linha 16" y2="22" transform="translate(28.3 20.5)" fill="none" stroke="#fff" stroke-width="1.5"/>
      <line id="Linha_18" data-name="Linha 18" y2="22" transform="translate(18.3 20.5)" fill="none" stroke="#fff" stroke-width="1.5"/>
      <line id="Linha_17" data-name="Linha 17" x1="28" transform="translate(9.3 31.5)" fill="none" stroke="#fff" stroke-width="1.5"/>
    </g>
  </g>
</svg>
