<svg width="24" height="24" viewBox="0 0 24 24" fill="currentColor" xmlns="http://www.w3.org/2000/svg">
<path d="M22 15.75C21.6686 15.7505 21.351 15.8824 21.1167 16.1167C20.8824 16.351 20.7505 16.6686 20.75 17V20C20.7495 20.1988 20.6703 20.3892 20.5297 20.5297C20.3892 20.6703 20.1988 20.7495 20 20.75H4C3.80125 20.7495 3.61079 20.6703 3.47025 20.5297C3.32971 20.3892 3.25053 20.1988 3.25 20V17C3.25 16.6685 3.1183 16.3505 2.88388 16.1161C2.64946 15.8817 2.33152 15.75 2 15.75C1.66848 15.75 1.35054 15.8817 1.11612 16.1161C0.881696 16.3505 0.75 16.6685 0.75 17V20C0.751059 20.8616 1.09381 21.6877 1.70307 22.2969C2.31234 22.9062 3.13837 23.2489 4 23.25H20C20.8616 23.2489 21.6877 22.9062 22.2969 22.2969C22.9062 21.6877 23.2489 20.8616 23.25 20V17C23.2495 16.6686 23.1176 16.351 22.8833 16.1167C22.649 15.8824 22.3314 15.7505 22 15.75Z" />
<path d="M12.0001 0.75C11.6687 0.750529 11.3511 0.882395 11.1168 1.1167C10.8825 1.35101 10.7506 1.66864 10.7501 2V13.331L6.80007 10.04C6.54531 9.82817 6.21693 9.72606 5.88698 9.75605C5.55703 9.78605 5.25244 9.94571 5.04007 10.2C4.82824 10.4548 4.72612 10.7831 4.75612 11.1131C4.78611 11.443 4.94577 11.7476 5.20007 11.96L11.2001 16.96C11.2631 17.0047 11.33 17.0435 11.4001 17.076C11.4458 17.1066 11.4935 17.134 11.5431 17.158C11.6873 17.2187 11.8421 17.25 11.9986 17.25C12.155 17.25 12.3099 17.2187 12.4541 17.158C12.5024 17.1339 12.5491 17.1069 12.5941 17.077C12.6641 17.0445 12.731 17.0056 12.7941 16.961L18.7941 11.961C18.9913 11.797 19.1333 11.5762 19.2007 11.3287C19.2682 11.0812 19.2579 10.8189 19.1712 10.5775C19.0845 10.3361 18.9256 10.1272 18.7161 9.97913C18.5066 9.83109 18.2566 9.7511 18.0001 9.75C17.7078 9.75055 17.4248 9.85312 17.2001 10.04L13.2501 13.331V2C13.2495 1.66864 13.1177 1.35101 12.8834 1.1167C12.6491 0.882395 12.3314 0.750529 12.0001 0.75Z"/>
</svg>
