<svg xmlns="http://www.w3.org/2000/svg" xmlns:xlink="http://www.w3.org/1999/xlink" width="18" height="18" viewBox="0 0 18 18">
  <defs>
    <clipPath id="clip-path">
      <path id="Caminho_7816" data-name="Caminho 7816" d="M0,0H18V18H0Z" transform="translate(1003 170)" fill="none" stroke="#707070" stroke-width="1"/>
    </clipPath>
  </defs>
  <g id="Grupo_de_máscara_3" data-name="Grupo de máscara 3" transform="translate(-1003 -170)" clip-path="url(#clip-path)">
    <g id="email_1_" data-name="email(1)" transform="translate(1003 170)">
      <g id="Grupo_70" data-name="Grupo 70">
        <g id="Grupo_69" data-name="Grupo 69">
          <path id="Caminho_7817" data-name="Caminho 7817" d="M16.418,2.145H1.582A1.564,1.564,0,0,0,.9,2.3l8.061,8.061,1.807-1.736h0L17.1,2.3A1.564,1.564,0,0,0,16.418,2.145Z" fill="#fff"/>
        </g>
      </g>
      <g id="Grupo_72" data-name="Grupo 72">
        <g id="Grupo_71" data-name="Grupo 71">
          <path id="Caminho_7818" data-name="Caminho 7818" d="M17.842,3.049,11.89,9l5.951,5.951A1.564,1.564,0,0,0,18,14.273V3.727A1.564,1.564,0,0,0,17.842,3.049Z" fill="#fff"/>
        </g>
      </g>
      <g id="Grupo_74" data-name="Grupo 74">
        <g id="Grupo_73" data-name="Grupo 73">
          <path id="Caminho_7819" data-name="Caminho 7819" d="M.159,3.049A1.564,1.564,0,0,0,0,3.727V14.273a1.564,1.564,0,0,0,.158.678L6.11,9Z" fill="#fff"/>
        </g>
      </g>
      <g id="Grupo_76" data-name="Grupo 76">
        <g id="Grupo_75" data-name="Grupo 75">
          <path id="Caminho_7820" data-name="Caminho 7820" d="M11.145,9.746,9.338,11.482a.527.527,0,0,1-.746,0L6.855,9.746.9,15.7a1.564,1.564,0,0,0,.678.159H16.418A1.564,1.564,0,0,0,17.1,15.7Z" fill="#fff"/>
        </g>
      </g>
    </g>
  </g>
</svg>
