<?xml version="1.0" encoding="utf-8"?>
<!-- Generator: Adobe Illustrator 22.0.0, SVG Export Plug-In . SVG Version: 6.00 Build 0)  -->
<svg version="1.1" id="Layer_1" xmlns="http://www.w3.org/2000/svg" xmlns:xlink="http://www.w3.org/1999/xlink" x="0px" y="0px"
	 viewBox="0 0 402.2 280" style="enable-background:new 0 0 402.2 280;" xml:space="preserve">
<style type="text/css">
	.st0{opacity:0.43;}
	.st1{fill:#FFFFFF;}
	.st2{display:none;fill:#EDEDED;}
	.st3{opacity:0.12;fill:#8C99DE;enable-background:new    ;}
	.st4{fill:none;stroke:#1B1740;stroke-width:7;stroke-linecap:round;stroke-miterlimit:10;}
	.st5{fill:none;stroke:#1B1740;stroke-width:3;stroke-miterlimit:10;}
	.st6{opacity:0.5;fill:#FFFFFF;}
	.st7{opacity:0.12;fill:none;stroke:#8C99DE;stroke-width:0.9687;stroke-miterlimit:10;enable-background:new    ;}
	.st8{opacity:0.12;fill:none;stroke:#8C99DE;stroke-width:0.7913;stroke-miterlimit:10;enable-background:new    ;}
	
		.st9{opacity:0.12;fill:none;stroke:#8C99DE;stroke-width:4.8436;stroke-linecap:round;stroke-miterlimit:10;enable-background:new    ;}
	.st10{fill:#851C22;}
	.st11{opacity:0.62;}
	.st12{fill:none;stroke:#8C99DE;stroke-width:1.9374;stroke-linecap:round;stroke-miterlimit:10;}
	.st13{fill:#1B1740;}
	.st14{fill:none;stroke:#1B1740;stroke-width:8;stroke-linecap:round;stroke-linejoin:round;stroke-miterlimit:10;}
</style>
<g class="st0">
	<path class="st1" d="M285.8,47.6c-16.6,0-30.1,13.5-30.1,30.1c0,6.8,2.2,13.2,6.4,18.5c1,1.2,2.1,2.5,3.2,3.8l0.1,0.1
		c4.1,4.8,9.2,10.7,11.3,18.3c0.3,1.1,0.6,2.8,0.7,6h16.5c0.1-3.1,0.4-4.6,0.7-5.7c2.1-7.5,7.2-13.5,11.7-18.8l0.2-0.2
		c1-1.2,2-2.4,2.9-3.5c4.2-5.3,6.4-11.7,6.4-18.5C315.8,61.1,302.4,47.6,285.8,47.6z"/>
</g>
<rect x="-38.9" y="-119" class="st2" width="500" height="500"/>
<path class="st3" d="M40.1,167.9c2.3,5.4,4.3,11.2,3.6,16.9C42.2,195.5,33,201.6,26.8,210c-6.1,8.2-9.1,18.2-8.3,28.1
	c1.5,19.1,17,33.7,35.4,42h304.3c17.2-9.9,29.4-27.4,26.4-41.1c-5-22.6-25.4-31.3-27-51c-1.2-16.2,9.8-26.2,6.4-43.7
	c-2.8-14.7-12.7-23.2-23.4-23.7c-25.8-1.3-31.6,17.5-59.9,11.8c-19.1-3.8-33.8-33.4-43.7-46.6c-10.3-13.5-20.6-26.9-36.5-35.5
	c-42.8-23-103.4-20-144.9,4c-21.9,12.7-38.3,34.7-37.1,58C19.4,132.1,32.1,149.5,40.1,167.9z"/>
<path class="st4" d="M309,56.4"/>
<path class="st4" d="M285.8,80.1"/>
<path class="st5" d="M374.1,90.9"/>
<g id="DESIGNED_BY_FREEPIK">
</g>
<rect x="249.9" y="244.5" class="st6" width="150.7" height="30.2"/>
<line class="st7" x1="400.7" y1="250.2" x2="249.9" y2="250.2"/>
<line class="st7" x1="400.7" y1="256.5" x2="249.9" y2="256.5"/>
<line class="st7" x1="400.7" y1="262.7" x2="249.9" y2="262.7"/>
<line class="st7" x1="400.7" y1="268.9" x2="249.9" y2="268.9"/>
<rect x="244.3" y="210.5" class="st6" width="123.1" height="24.7"/>
<line class="st8" x1="367.4" y1="215.2" x2="244.3" y2="215.2"/>
<line class="st8" x1="367.4" y1="220.3" x2="244.3" y2="220.3"/>
<line class="st8" x1="367.4" y1="225.4" x2="244.3" y2="225.4"/>
<line class="st8" x1="367.4" y1="230.5" x2="244.3" y2="230.5"/>
<rect x="267.1" y="182.5" class="st6" width="123.1" height="19.7"/>
<line class="st8" x1="390.3" y1="187.4" x2="267.1" y2="187.4"/>
<line class="st8" x1="390.3" y1="192.5" x2="267.1" y2="192.5"/>
<line class="st8" x1="390.3" y1="197.5" x2="267.1" y2="197.5"/>
<polygon class="st6" points="208.8,257.7 57.1,257.7 15.2,127.4 167,127.4 "/>
<line class="st9" x1="27.8" y1="138.1" x2="140.5" y2="138.1"/>
<g>
	<path class="st10" d="M87.4,159.9H35.2c-1.3,0-2.4-1.1-2.4-2.4s1.1-2.4,2.4-2.4h52.2c1.3,0,2.4,1.1,2.4,2.4S88.7,159.9,87.4,159.9z
		"/>
</g>
<g class="st11">
	<line class="st12" x1="39.4" y1="178.9" x2="109.1" y2="178.9"/>
	<line class="st12" x1="42.2" y1="186.9" x2="121.6" y2="186.9"/>
	<line class="st12" x1="44.8" y1="195" x2="119.2" y2="195"/>
	<line class="st12" x1="47.6" y1="203" x2="132.6" y2="203"/>
	<line class="st12" x1="50.4" y1="211.1" x2="119.2" y2="211.1"/>
	<line class="st12" x1="53.2" y1="219.1" x2="128.7" y2="219.1"/>
	<line class="st12" x1="55.8" y1="227.2" x2="110.2" y2="227.2"/>
	<line class="st12" x1="58.6" y1="235.2" x2="125.4" y2="235.2"/>
</g>
<polygon class="st3" points="192.6,235.2 152.8,235.2 129.3,163.1 169.1,163.1 "/>
<g>
	<g>
		<g>
			<path class="st13" d="M285.8,37.4c-22.2,0-40.2,18.1-40.2,40.2c0,9.1,3,17.7,8.6,24.8c1.1,1.4,2.3,2.8,3.5,4.2l0.1,0.1
				c3.8,4.4,7.7,8.9,9.2,14.3c0.3,1.2,0.4,3.6,0.4,5.4v3.1c0,2.8,2.3,5.1,5.1,5.1H299c2.8,0,5.1-2.3,5.1-5.1v-3.1
				c0-2.4,0.1-4.1,0.4-5c1.5-5.3,5.8-10.4,9.7-14.9l0.2-0.2c1.1-1.3,2.2-2.5,3.1-3.8c5.6-7.2,8.6-15.7,8.6-24.8
				C326,55.5,308,37.4,285.8,37.4z M309.4,96.2c-0.8,1.1-1.8,2.2-2.9,3.5l-0.2,0.2c-4.5,5.3-9.6,11.3-11.7,18.8
				c-0.3,1.1-0.6,2.7-0.7,5.7h-16.5c-0.1-3.2-0.4-4.9-0.7-6c-2.1-7.6-7.2-13.5-11.3-18.3l-0.1-0.1c-1.2-1.3-2.3-2.6-3.2-3.8
				c-4.2-5.3-6.4-11.7-6.4-18.5c0-16.6,13.5-30.1,30.1-30.1c16.6,0,30.1,13.5,30.1,30.1C315.8,84.5,313.6,90.9,309.4,96.2z"/>
			<path class="st13" d="M299,136h-26.7c-2.8,0-5.1,2.3-5.1,5.1s2.3,5.1,5.1,5.1H299c2.8,0,5.1-2.3,5.1-5.1S301.8,136,299,136z"/>
			<path class="st13" d="M292.3,147.7H279c-2.8,0-5.1,2.3-5.1,5.1c0,2.8,2.3,5.1,5.1,5.1h13.3c2.8,0,5.1-2.3,5.1-5.1
				C297.4,149.9,295.2,147.7,292.3,147.7z"/>
			<path class="st13" d="M356.1,72.6h-17.6c-2.8,0-5.1,2.3-5.1,5.1s2.3,5.1,5.1,5.1h17.6c2.8,0,5.1-2.3,5.1-5.1
				S358.9,72.6,356.1,72.6z"/>
			<path class="st13" d="M238.2,77.7c0-2.8-2.3-5.1-5.1-5.1h-17.6c-2.8,0-5.1,2.3-5.1,5.1s2.3,5.1,5.1,5.1h17.6
				C235.9,82.8,238.2,80.5,238.2,77.7z"/>
			<path class="st13" d="M285.8,30.1c2.8,0,5.1-2.3,5.1-5.1V7.4c0-2.8-2.3-5.1-5.1-5.1c-2.8,0-5.1,2.3-5.1,5.1V25
				C280.7,27.8,283,30.1,285.8,30.1z"/>
			<path class="st13" d="M326.7,111.4c-2-2-5.2-2-7.2,0c-2,2-2,5.2,0,7.2l12.4,12.4c1,1,2.3,1.5,3.6,1.5c1.3,0,2.6-0.5,3.6-1.5
				c2-2,2-5.2,0-7.2L326.7,111.4z"/>
			<path class="st13" d="M244.9,44c1,1,2.3,1.5,3.6,1.5c1.3,0,2.6-0.5,3.6-1.5c2-2,2-5.2,0-7.2l-12.4-12.4c-2-2-5.2-2-7.2,0
				c-2,2-2,5.2,0,7.2L244.9,44z"/>
			<path class="st13" d="M244.9,111.4l-12.4,12.4c-2,2-2,5.2,0,7.2c1,1,2.3,1.5,3.6,1.5c1.3,0,2.6-0.5,3.6-1.5l12.4-12.4
				c2-2,2-5.2,0-7.2C250.1,109.4,246.9,109.4,244.9,111.4z"/>
			<path class="st13" d="M323.1,45.5c1.3,0,2.6-0.5,3.6-1.5l12.4-12.4c2-2,2-5.2,0-7.2c-2-2-5.2-2-7.2,0l-12.4,12.4
				c-2,2-2,5.2,0,7.2C320.5,45,321.8,45.5,323.1,45.5z"/>
		</g>
	</g>
	<path class="st14" d="M304.1,77.5c0.1-6.2-4.3-14.6-11.5-16.2"/>
</g>
<path class="st13" d="M249.9,268.9h-24.5l-48.2-150.1c-0.5-1.5-1.9-2.5-3.5-2.5H3.6c-2.5,0-4.2,2.4-3.5,4.8l47.5,147.8h1.1
	c-3.1,0-5.6,2.5-5.6,5.6c0,3.1,2.5,5.6,5.6,5.6h89.8h172.9c3.1,0,5.6,0.6,5.6-2.5c0.1-2.5-49.5-0.3-67.1-1
	C245.8,276.5,250.5,268.9,249.9,268.9z M57.1,257.7L15.2,127.4H167l41.8,130.3H57.1z"/>
<path class="st10" d="M267.1,202.2v-19.7h123.1v-4.3H267.1c-3.7,0-6.7,3-6.7,6.7v15c0,3.7,3,6.7,6.7,6.7h123.1v-4.4H267.1z"/>
<path class="st13" d="M367.4,210.5v-4.3H244.3c-3.7,0-6.7,3-6.7,6.7v20c0,3.7,3,6.7,6.7,6.7h123.1v-4.4H244.3v-24.7H367.4z"/>
<path class="st10" d="M249.9,274.7v-30.2h150.7v-5.4H249.9c-4.5,0-8.2,3.7-8.2,8.2v24.5c0,4.5,3.7,8.2,8.2,8.2h150.7v-5.3H249.9z"/>
</svg>
