<?xml version="1.0" encoding="utf-8"?>
<!-- Generator: Adobe Illustrator 22.0.0, SVG Export Plug-In . SVG Version: 6.00 Build 0)  -->
<svg version="1.1" id="Layer_1" xmlns="http://www.w3.org/2000/svg" xmlns:xlink="http://www.w3.org/1999/xlink" x="0px" y="0px"
	 viewBox="0 0 150.8 155.6" style="enable-background:new 0 0 150.8 155.6;" xml:space="preserve">
<style type="text/css">
	.st0{display:none;fill:#EDEDED;}
	.st1{fill:#FFFFFF;}
</style>
<rect x="-164.6" y="-181.2" class="st0" width="500" height="500"/>
<g id="DESIGNED_BY_FREEPIK">
</g>
<g>
	<g>
		<g>
			<path class="st1" d="M75.4,35.1c-22.2,0-40.2,18.1-40.2,40.2c0,9.1,3,17.7,8.6,24.8c1.1,1.4,2.3,2.8,3.5,4.2l0.1,0.1
				c3.8,4.4,7.7,8.9,9.2,14.3c0.3,1.2,0.4,3.6,0.4,5.4v3.1c0,2.8,2.3,5.1,5.1,5.1h26.5c2.8,0,5.1-2.3,5.1-5.1v-3.1
				c0-2.4,0.1-4.1,0.4-5c1.5-5.3,5.8-10.4,9.7-14.9l0.2-0.2c1.1-1.3,2.2-2.5,3.1-3.8c5.6-7.2,8.6-15.7,8.6-24.8
				C115.6,53.2,97.6,35.1,75.4,35.1z M99,93.9c-0.8,1.1-1.8,2.2-2.9,3.5l-0.2,0.2c-4.5,5.3-9.6,11.3-11.7,18.8
				c-0.3,1.1-0.6,2.7-0.7,5.7H67c-0.1-3.2-0.4-4.9-0.7-6c-2.1-7.6-7.2-13.5-11.3-18.3l-0.1-0.1c-1.2-1.3-2.3-2.6-3.2-3.8
				c-4.2-5.3-6.4-11.7-6.4-18.5c0-16.6,13.5-30.1,30.1-30.1s30.1,13.5,30.1,30.1C105.4,82.2,103.2,88.6,99,93.9z"/>
			<path class="st1" d="M88.6,133.7H61.9c-2.8,0-5.1,2.3-5.1,5.1s2.3,5.1,5.1,5.1h26.7c2.8,0,5.1-2.3,5.1-5.1S91.4,133.7,88.6,133.7
				z"/>
			<path class="st1" d="M81.9,145.4H68.6c-2.8,0-5.1,2.3-5.1,5.1s2.3,5.1,5.1,5.1h13.3c2.8,0,5.1-2.3,5.1-5.1
				C87,147.6,84.8,145.4,81.9,145.4z"/>
			<path class="st1" d="M145.7,70.3h-17.6c-2.8,0-5.1,2.3-5.1,5.1s2.3,5.1,5.1,5.1h17.6c2.8,0,5.1-2.3,5.1-5.1
				S148.5,70.3,145.7,70.3z"/>
			<path class="st1" d="M27.8,75.4c0-2.8-2.3-5.1-5.1-5.1H5.1c-2.8,0-5.1,2.3-5.1,5.1s2.3,5.1,5.1,5.1h17.6
				C25.5,80.5,27.8,78.2,27.8,75.4z"/>
			<path class="st1" d="M75.4,27.8c2.8,0,5.1-2.3,5.1-5.1V5.1c0-2.8-2.3-5.1-5.1-5.1c-2.8,0-5.1,2.3-5.1,5.1v17.6
				C70.3,25.5,72.6,27.8,75.4,27.8z"/>
			<path class="st1" d="M116.3,109.1c-2-2-5.2-2-7.2,0s-2,5.2,0,7.2l12.4,12.4c1,1,2.3,1.5,3.6,1.5c1.3,0,2.6-0.5,3.6-1.5
				c2-2,2-5.2,0-7.2L116.3,109.1z"/>
			<path class="st1" d="M34.5,41.7c1,1,2.3,1.5,3.6,1.5s2.6-0.5,3.6-1.5c2-2,2-5.2,0-7.2L29.3,22.1c-2-2-5.2-2-7.2,0s-2,5.2,0,7.2
				L34.5,41.7z"/>
			<path class="st1" d="M34.5,109.1l-12.4,12.4c-2,2-2,5.2,0,7.2c1,1,2.3,1.5,3.6,1.5s2.6-0.5,3.6-1.5l12.4-12.4c2-2,2-5.2,0-7.2
				S36.5,107.1,34.5,109.1z"/>
			<path class="st1" d="M112.7,43.2c1.3,0,2.6-0.5,3.6-1.5l12.4-12.4c2-2,2-5.2,0-7.2s-5.2-2-7.2,0l-12.4,12.4c-2,2-2,5.2,0,7.2
				C110.1,42.7,111.4,43.2,112.7,43.2z"/>
		</g>
	</g>
	<g>
		<path class="st1" d="M93.7,75.2C93.8,69,89.4,60.6,82.2,59"/>
		<path class="st1" d="M93.7,79.2C93.7,79.2,93.7,79.2,93.7,79.2c-2.3,0-4-1.9-4-4.1c0.1-4.3-3.1-11.1-8.4-12.2
			c-2.2-0.5-3.5-2.6-3-4.8c0.5-2.2,2.6-3.5,4.8-3c9.2,2,14.8,12.1,14.6,20.2C97.7,77.5,95.9,79.2,93.7,79.2z"/>
	</g>
</g>
</svg>
