<?xml version="1.0" encoding="utf-8"?>
<!-- Generator: Adobe Illustrator 22.0.0, SVG Export Plug-In . SVG Version: 6.00 Build 0)  -->
<svg version="1.1" xmlns="http://www.w3.org/2000/svg" xmlns:xlink="http://www.w3.org/1999/xlink" x="0px" y="0px"
	 viewBox="0 0 420.2 294.7" style="enable-background:new 0 0 420.2 294.7;" xml:space="preserve">
<style type="text/css">
	.st0{display:none;fill:#EDEDED;}
	.st1{opacity:0.12;fill:#8C99DE;}
	.st2{fill:#851C22;}
	.st3{fill:#FFFFFF;}
	.st4{opacity:0.12;fill:none;stroke:#8C99DE;stroke-width:0.9687;stroke-miterlimit:10;}
	.st5{fill:#1B1740;}
	.st6{opacity:0.12;fill:none;stroke:#8C99DE;stroke-width:0.7913;stroke-miterlimit:10;}
	.st7{opacity:0.12;fill:none;stroke:#8C99DE;stroke-width:4.8436;stroke-linecap:round;stroke-miterlimit:10;}
	.st8{opacity:0.62;}
	.st9{fill:none;stroke:#8C99DE;stroke-width:1.9374;stroke-linecap:round;stroke-miterlimit:10;}
	.st10{opacity:0.34;fill:#FFFFFF;}
	.st11{fill:none;stroke:#1B1740;stroke-width:8;stroke-linecap:round;stroke-linejoin:round;stroke-miterlimit:10;}
	.st12{fill:none;stroke:#1B1740;stroke-width:7;stroke-linecap:round;stroke-miterlimit:10;}
	.st13{fill:none;stroke:#1B1740;stroke-width:3;stroke-miterlimit:10;}
</style>
<g id="BACKGROUND">
	<rect x="-38.9" y="-104.3" class="st0" width="500" height="500"/>
	<path class="st1" d="M41.6,160c2.5,6.5,4.6,13.4,3.8,20.3c-1.5,12.8-11.4,20.2-18,30.3c-6.5,9.9-9.7,21.9-8.9,33.7
		c1.6,23,18.2,40.5,37.9,50.5h325.6c18.4-11.9,31.5-32.9,28.2-49.4c-5.4-27.1-27.2-37.6-28.9-61.2c-1.3-19.4,8.8-38.7-0.5-57.4
		c-6.6-13.4-19.2-22.4-33.5-26.4c-17-4.7-34.1,1.2-51.3-0.9c-20.7-2.5-33.1-22.2-43.7-38c-11-16.2-22-32.3-39.1-42.6
		c-45.8-27.6-110.6-24-155,4.8C34.8,38.9,17.2,65.4,18.5,93.4C19.5,117,33.1,137.9,41.6,160z"/>
</g>
<g id="OBJECTS">
	<g>
		<g>
			<path class="st2" d="M400.7,294.7H249.9c-4.5,0-8.2-3.7-8.2-8.2V262c0-4.5,3.7-8.2,8.2-8.2h150.7V294.7z"/>
			<rect x="249.9" y="259.2" class="st3" width="150.7" height="30.2"/>
			<line class="st4" x1="400.7" y1="264.9" x2="249.9" y2="264.9"/>
			<line class="st4" x1="400.7" y1="271.2" x2="249.9" y2="271.2"/>
			<line class="st4" x1="400.7" y1="277.4" x2="249.9" y2="277.4"/>
			<line class="st4" x1="400.7" y1="283.6" x2="249.9" y2="283.6"/>
		</g>
		<g>
			<path class="st5" d="M367.4,254.3H244.3c-3.7,0-6.7-3-6.7-6.7v-20c0-3.7,3-6.7,6.7-6.7h123.1V254.3z"/>
			<rect x="244.3" y="225.2" class="st3" width="123.1" height="24.7"/>
			<line class="st6" x1="367.4" y1="229.9" x2="244.3" y2="229.9"/>
			<line class="st6" x1="367.4" y1="235" x2="244.3" y2="235"/>
			<line class="st6" x1="367.4" y1="240.1" x2="244.3" y2="240.1"/>
			<line class="st6" x1="367.4" y1="245.2" x2="244.3" y2="245.2"/>
		</g>
		<g>
			<path class="st2" d="M390.3,221.3H267.1c-3.7,0-6.7-3-6.7-6.7v-15c0-3.7,3-6.7,6.7-6.7h123.1V221.3z"/>
			<rect x="267.1" y="197.2" class="st3" width="123.1" height="19.7"/>
			<line class="st6" x1="390.3" y1="202.1" x2="267.1" y2="202.1"/>
			<line class="st6" x1="390.3" y1="207.2" x2="267.1" y2="207.2"/>
			<line class="st6" x1="390.3" y1="212.2" x2="267.1" y2="212.2"/>
		</g>
	</g>
	<g>
		<path class="st5" d="M311.5,283.6h-86.1l-48.2-150.1c-0.5-1.5-1.9-2.5-3.5-2.5H3.6c-2.5,0-4.2,2.4-3.5,4.8l47.5,147.8h1.1
			c-3.1,0-5.6,2.5-5.6,5.6c0,3.1,2.5,5.6,5.6,5.6h89.8h172.9c3.1,0,5.6-2.5,5.6-5.6C317.1,286.1,314.6,283.6,311.5,283.6z"/>
		<polygon class="st3" points="208.8,272.4 57.1,272.4 15.2,142.1 167,142.1 		"/>
		<line class="st7" x1="27.8" y1="152.8" x2="140.5" y2="152.8"/>
		<g>
			<path class="st2" d="M87.4,174.6H35.2c-1.3,0-2.4-1.1-2.4-2.4s1.1-2.4,2.4-2.4h52.2c1.3,0,2.4,1.1,2.4,2.4S88.7,174.6,87.4,174.6
				z"/>
		</g>
		<g class="st8">
			<line class="st9" x1="39.4" y1="193.6" x2="109.1" y2="193.6"/>
			<line class="st9" x1="42.2" y1="201.6" x2="121.6" y2="201.6"/>
			<line class="st9" x1="44.8" y1="209.7" x2="119.2" y2="209.7"/>
			<line class="st9" x1="47.6" y1="217.7" x2="132.6" y2="217.7"/>
			<line class="st9" x1="50.4" y1="225.8" x2="119.2" y2="225.8"/>
			<line class="st9" x1="53.2" y1="233.8" x2="128.7" y2="233.8"/>
			<line class="st9" x1="55.8" y1="241.9" x2="110.2" y2="241.9"/>
			<line class="st9" x1="58.6" y1="249.9" x2="125.4" y2="249.9"/>
		</g>
		<polygon class="st1" points="192.6,249.9 152.8,249.9 129.3,177.8 169.1,177.8 		"/>
	</g>
	<g>
		<path class="st5" d="M165.1,210.4L165.1,210.4c-3.6-3.6-3.6-9.4,0-13.1l56.1-56.1l13.1,13.1l-56.1,56.1
			C174.6,214,168.7,214,165.1,210.4z"/>
		<path class="st5" d="M270.4,33C231,33,199,65,199,104.5c0,39.5,32,71.5,71.5,71.5c39.5,0,71.5-32,71.5-71.5
			C341.9,65,309.9,33,270.4,33z M270.4,159.6c-30.4,0-55.1-24.7-55.1-55.1c0-30.4,24.7-55.1,55.1-55.1c30.4,0,55.1,24.7,55.1,55.1
			C325.6,134.9,300.9,159.6,270.4,159.6z"/>
		
			<ellipse transform="matrix(0.7071 -0.7071 0.7071 0.7071 5.1638 222.2561)" class="st10" cx="270.9" cy="104.9" rx="55.1" ry="55.1"/>
		<path class="st11" d="M284.3,66c-0.4-0.1-0.7-0.3-1.1-0.4"/>
		<path class="st11" d="M268.8,63.7c-21.8,0.9-39.2,18.8-39.2,40.8"/>
	</g>
	<path class="st12" d="M313.4,45.2"/>
	<path class="st12" d="M287.2,71.9"/>
	<path class="st13" d="M386.9,84.1"/>
</g>
<g id="DESIGNED_BY_FREEPIK">
</g>
</svg>
