<svg xmlns="http://www.w3.org/2000/svg" width="50.28" height="50.39" viewBox="0 0 50.28 50.39">
  <g id="placeholder" transform="translate(-0.563)">
    <g id="Grupo_29" data-name="Grupo 29" transform="translate(0.564)">
      <path id="Caminho_7730" data-name="Caminho 7730" d="M205.163,114.159a5.879,5.879,0,1,1,5.879-5.879,5.879,5.879,0,0,1-5.879,5.879Zm0-10.078a4.2,4.2,0,1,0,4.2,4.2,4.2,4.2,0,0,0-4.2-4.2Z" transform="translate(-179.726 -92.323)" fill="#fff"/>
      <path id="Caminho_7731" data-name="Caminho 7731" d="M109.97,45.351a.84.84,0,0,1-.691-.362L97.067,27.353c-4.814-6.417-4.115-17.007,1.515-22.635a16.1,16.1,0,0,1,22.776,0c5.63,5.629,6.329,16.219,1.5,22.661L110.66,44.989A.84.84,0,0,1,109.97,45.351Zm0-43.671a14.332,14.332,0,0,0-10.2,4.225c-5.081,5.08-5.707,14.644-1.34,20.466L109.97,43.036,121.491,26.4c4.385-5.848,3.76-15.411-1.321-20.491A14.332,14.332,0,0,0,109.97,1.68Z" transform="translate(-84.681 0)" fill="#fff"/>
      <path id="Caminho_7732" data-name="Caminho 7732" d="M49.909,335.049H1.5a.935.935,0,0,1-.842-1.34l8.332-17.5a.84.84,0,0,1,.759-.479h7.382a.84.84,0,0,1,.691.362l8.033,11.6,8.033-11.6a.84.84,0,0,1,.691-.362h7.085a.84.84,0,0,1,.759.479l8.334,17.5a.935.935,0,0,1-.844,1.337Zm-.674-.617,0,0Zm-47.062,0,0,0Zm.505-1.06H48.729l-7.6-15.957H35.015l-8.472,12.236a.872.872,0,0,1-1.381,0l-8.472-12.236H10.277Z" transform="translate(-0.564 -284.659)" fill="#fff"/>
    </g>
  </g>
</svg>
