<svg xmlns="http://www.w3.org/2000/svg" xmlns:xlink="http://www.w3.org/1999/xlink" width="20" height="20" viewBox="0 0 20 20">
  <defs>
    <clipPath id="clip-path">
      <path id="Caminho_7815" data-name="Caminho 7815" d="M0,0H20V20H0Z" transform="translate(1002 45)" fill="none" stroke="#707070" stroke-width="1"/>
    </clipPath>
  </defs>
  <g id="Grupo_de_máscara_4" data-name="Grupo de máscara 4" transform="translate(-1002 -45)" clip-path="url(#clip-path)">
    <g id="placeholder_1_" data-name="placeholder(1)" transform="translate(1000.893 43.73)">
      <g id="Grupo_78" data-name="Grupo 78">
        <path id="Caminho_7821" data-name="Caminho 7821" d="M15.426,3.013a6.047,6.047,0,0,0-8.494,0,6.929,6.929,0,0,0-.544,8.53L7.731,13.5l3.448,4.973,4.791-6.933A6.932,6.932,0,0,0,15.426,3.013ZM11.216,9.655a2.432,2.432,0,1,1,2.432-2.432A2.432,2.432,0,0,1,11.216,9.655Z" fill="#fff"/>
      </g>
      <path id="Caminho_7822" data-name="Caminho 7822" d="M4.428,14.374H7.187l3.993,5.7,3.956-5.7h2.65l3.267,6.9H1.162Z" fill="#fff"/>
    </g>
  </g>
</svg>
