<?xml version="1.0" encoding="utf-8"?>
<!-- Generator: Adobe Illustrator 22.0.0, SVG Export Plug-In . SVG Version: 6.00 Build 0)  -->
<svg version="1.1" id="Layer_1" xmlns="http://www.w3.org/2000/svg" xmlns:xlink="http://www.w3.org/1999/xlink" x="0px" y="0px"
	 viewBox="0 0 74.3 78.2" style="enable-background:new 0 0 74.3 78.2;" xml:space="preserve">
<style type="text/css">
	.st0{fill:#FFFFFF;}
</style>
<g>
	<g>
		<path class="st0" d="M60.5,76.7c-0.1,0-0.3,0-0.4,0c0,0-0.1,0-0.1,0l-0.3,0H12.8v-0.1C6.4,76.2,1.5,70.9,1.5,64.5v-6.7
			c0-1.1,0.9-1.9,2-1.9h10.1L14,3.6c0-1.1,0.9-2.1,2-2.1h54c1.3,0,2.8,1.2,2.8,2.7v60.2C72.8,71.2,67.3,76.7,60.5,76.7L60.5,76.7z
			 M50.2,55.8c0.5,0,1,0.2,1.3,0.6c0.4,0.4,0.6,0.9,0.6,1.4l0,6.6c0,4.6,3.8,8.3,8.4,8.3c4.6,0,8.3-3.7,8.3-8.3V5.5H18l-0.3,50.3
			L50.2,55.8z M5.5,64.4c0,4.6,3.8,8.3,8.3,8.3h37.5c-2.1-2.3-3.3-5.3-3.3-8.3v-4.6H5.5V64.4z"/>
		<path class="st0" d="M70,2c1.1,0,2.3,1,2.3,2.2c0,6.1,0,26.4,0,26.4v33.8c0,6.5-5.3,11.8-11.8,11.8h0c-0.2,0-0.4,0-0.8,0v0H13.3v0
			C7,75.9,2,70.8,2,64.4v-6.7c0-0.8,0.7-1.4,1.5-1.4h10.6l0.4-52.8C14.5,2.7,15.2,2,16,2c0,0,19.1,0,35.1,0C59.2,2,66.4,2,70,2
			C70,2,70,2,70,2 M17.2,56.3h33c0,0,0,0,0,0c0.4,0,0.7,0.1,1,0.4c0.3,0.3,0.4,0.6,0.4,1v6.7c0,4.9,4,8.8,8.9,8.8h0
			c4.9,0,8.8-3.9,8.8-8.8V30.2V5H17.5L17.2,56.3 M13.8,73.2L13.8,73.2h38.8c-0.2-0.2-0.4-0.3-0.5-0.5c-2.2-2.2-3.5-5.2-3.5-8.4v-5.1
			H5v5.1C5,69.3,9,73.2,13.8,73.2 M70,1L70,1L51.2,1L16,1c-1.3,0-2.5,1.2-2.5,2.6l-0.3,51.8H3.5c-1.4,0-2.5,1.1-2.5,2.4v6.7
			C1,71,5.9,76.4,12.3,77.1v0.1l1,0h46.4h1v0c7-0.1,12.6-5.8,12.6-12.8V30.6V4.2C73.3,2.4,71.6,1,70,1L70,1z M18.5,6h49.8v24.2v34.2
			c0,4.3-3.5,7.8-7.8,7.8c-4.3,0-7.9-3.5-7.9-7.8l0-6.7c0-0.6-0.2-1.3-0.7-1.7c-0.5-0.4-1-0.7-1.7-0.7h0l-0.1,0l-32,0L18.5,6L18.5,6
			z M6,60.3h41.6v4.1c0,2.8,1,5.6,2.7,7.8H13.8l0,1l0-1c-4.3,0-7.8-3.5-7.8-7.8L6,60.3L6,60.3z"/>
	</g>
	<g>
		<path class="st0" d="M29,37.6c-2.9,0-5.3-2.3-5.3-5.2s2.4-5.2,5.3-5.2s5.3,2.3,5.3,5.2S31.9,37.6,29,37.6z M29,31.3
			c-0.7,0-1.3,0.5-1.3,1.2c0,0.6,0.6,1.2,1.3,1.2c0.7,0,1.3-0.5,1.3-1.2C30.3,31.8,29.7,31.3,29,31.3z"/>
		<path class="st0" d="M29,27.8c2.7,0,4.8,2.1,4.8,4.7s-2.2,4.7-4.8,4.7s-4.8-2.1-4.8-4.7S26.3,27.8,29,27.8 M29,34.1
			c1,0,1.8-0.7,1.8-1.7c0-0.9-0.8-1.7-1.8-1.7c-1,0-1.8,0.7-1.8,1.7C27.2,33.4,28,34.1,29,34.1 M29,26.8c-3.2,0-5.8,2.5-5.8,5.7
			c0,3.1,2.6,5.7,5.8,5.7c3.2,0,5.8-2.5,5.8-5.7C34.8,29.3,32.2,26.8,29,26.8L29,26.8z M29,33.1c-0.4,0-0.8-0.3-0.8-0.7
			s0.4-0.7,0.8-0.7c0.4,0,0.8,0.3,0.8,0.7S29.4,33.1,29,33.1L29,33.1z"/>
	</g>
	<g>
		<path class="st0" d="M41.1,34.5c-1.1,0-1.9-0.9-1.9-2c0-1.1,0.9-2,1.9-2h19.1c1.1,0,1.9,0.9,1.9,2c0,1.1-0.9,2-1.9,2H41.1z"/>
		<path class="st0" d="M60.2,30.9c0.8,0,1.4,0.7,1.4,1.5c0,0.8-0.6,1.5-1.4,1.5H41.1c-0.8,0-1.4-0.7-1.4-1.5c0-0.8,0.6-1.5,1.4-1.5
			H60.2 M60.2,29.9H41.1c-1.3,0-2.4,1.1-2.4,2.5c0,1.4,1.1,2.5,2.4,2.5h19.1c1.3,0,2.4-1.1,2.4-2.5C62.6,31.1,61.5,29.9,60.2,29.9
			L60.2,29.9z"/>
	</g>
	<g>
		<path class="st0" d="M41.1,21.4c-1.1,0-1.9-0.9-1.9-2c0-1.1,0.9-2,1.9-2h19.1c1.1,0,1.9,0.9,1.9,2c0,1.1-0.9,2-1.9,2H41.1z"/>
		<path class="st0" d="M60.2,17.9c0.8,0,1.4,0.7,1.4,1.5c0,0.8-0.6,1.5-1.4,1.5H41.1c-0.8,0-1.4-0.7-1.4-1.5c0-0.8,0.6-1.5,1.4-1.5
			H60.2 M60.2,16.9H41.1c-1.3,0-2.4,1.1-2.4,2.5s1.1,2.5,2.4,2.5h19.1c1.3,0,2.4-1.1,2.4-2.5S61.5,16.9,60.2,16.9L60.2,16.9z"/>
	</g>
	<g>
		<path class="st0" d="M29,24.5c-2.9,0-5.3-2.3-5.3-5.2c0-2.8,2.4-5.2,5.3-5.2s5.3,2.3,5.3,5.2C34.3,22.2,31.9,24.5,29,24.5z
			 M29,18.2c-0.7,0-1.3,0.5-1.3,1.2c0,0.6,0.6,1.2,1.3,1.2c0,0,0,0,0,0c0.4,0,0.7-0.1,0.9-0.4c0.2-0.2,0.4-0.5,0.4-0.8
			C30.3,18.7,29.7,18.2,29,18.2z"/>
		<path class="st0" d="M29,14.7c2.7,0,4.8,2.1,4.8,4.7S31.7,24,29,24s-4.8-2.1-4.8-4.7S26.3,14.7,29,14.7 M29,21
			c1,0,1.8-0.7,1.8-1.7c0-0.9-0.8-1.7-1.8-1.7c-1,0-1.8,0.7-1.8,1.7C27.2,20.3,28,21,29,21L29,21 M29,13.7c-3.2,0-5.8,2.5-5.8,5.7
			c0,3.1,2.6,5.7,5.8,5.7c3.2,0,5.8-2.5,5.8-5.7C34.8,16.3,32.2,13.7,29,13.7L29,13.7z M29,20c-0.4,0-0.8-0.3-0.8-0.7
			c0-0.4,0.4-0.7,0.8-0.7c0.4,0,0.8,0.3,0.8,0.7C29.8,19.7,29.4,20,29,20L29,20z"/>
	</g>
	<g>
		<path class="st0" d="M29,50.7c-2.9,0-5.3-2.3-5.3-5.2s2.4-5.2,5.3-5.2s5.3,2.3,5.3,5.2S31.9,50.7,29,50.7z M29,44.4
			c-0.7,0-1.3,0.5-1.3,1.2c0,0.6,0.6,1.2,1.3,1.2c0.7,0,1.3-0.5,1.3-1.2C30.3,44.9,29.7,44.4,29,44.4z"/>
		<path class="st0" d="M29,40.9c2.7,0,4.8,2.1,4.8,4.7s-2.2,4.7-4.8,4.7s-4.8-2.1-4.8-4.7S26.3,40.9,29,40.9 M29,47.2
			c1,0,1.8-0.7,1.8-1.7c0-0.9-0.8-1.7-1.8-1.7c-1,0-1.8,0.7-1.8,1.7C27.2,46.4,28,47.2,29,47.2 M29,39.9c-3.2,0-5.8,2.5-5.8,5.7
			c0,3.1,2.6,5.7,5.8,5.7c3.2,0,5.8-2.5,5.8-5.7C34.8,42.4,32.2,39.9,29,39.9L29,39.9z M29,46.2c-0.4,0-0.8-0.3-0.8-0.7
			c0-0.4,0.4-0.7,0.8-0.7c0.4,0,0.8,0.3,0.8,0.7C29.8,45.9,29.4,46.2,29,46.2L29,46.2z"/>
	</g>
	<g>
		<path class="st0" d="M41.1,47.6c-1.1,0-1.9-0.9-1.9-2s0.9-2,1.9-2h19.1c1.1,0,1.9,0.9,1.9,2s-0.9,2-1.9,2H41.1z"/>
		<path class="st0" d="M60.2,44.1c0.8,0,1.4,0.7,1.4,1.5s-0.6,1.5-1.4,1.5H41.1c-0.8,0-1.4-0.7-1.4-1.5s0.6-1.5,1.4-1.5H60.2
			 M60.2,43.1H41.1c-1.3,0-2.4,1.1-2.4,2.5s1.1,2.5,2.4,2.5h19.1c1.3,0,2.4-1.1,2.4-2.5S61.5,43.1,60.2,43.1L60.2,43.1z"/>
	</g>
</g>
</svg>
